<?xml version="1.0" encoding="UTF-8"?>
<svg width="25px" height="24px" viewBox="0 0 25 24" version="1.1" xmlns="http://www.w3.org/2000/svg" xmlns:xlink="http://www.w3.org/1999/xlink">
    <title>F6DD17C4-95B2-4285-952D-30B696131A44</title>
    <g id="Mercury-Labs" stroke="none" stroke-width="1" fill="none" fill-rule="evenodd">
        <g id="AICommerceAgencyWF_DT-Copy-35" transform="translate(-452.000000, -1631.000000)" fill="#000000">
            <g id="Actions-/-Operations-/-drag--horizontal-/-24-Copy-2" transform="translate(452.527149, 1631.000000)">
                <path d="M9,3 C11.0710678,3 12.75,4.67893219 12.75,6.75 C12.75,8.82106781 11.0710678,10.5 9,10.5 C6.92893219,10.5 5.25,8.82106781 5.25,6.75 C5.25,4.67893219 6.92893219,3 9,3 M9,1.5 C6.10050506,1.5 3.75,3.85050506 3.75,6.75 C3.75,9.64949494 6.10050506,12 9,12 C11.8994949,12 14.25,9.64949494 14.25,6.75 C14.25,5.35761343 13.6968766,4.02225539 12.7123106,3.0376894 C11.7277446,2.05312341 10.3923866,1.5 9,1.5 Z M16.5,22.5 L15,22.5 L15,18.75 C15,16.6789322 13.3210678,15 11.25,15 L6.75,15 C4.67893219,15 3,16.6789322 3,18.75 L3,22.5 L1.5,22.5 L1.5,18.75 C1.5,15.8505051 3.85050506,13.5 6.75,13.5 L11.25,13.5 C14.1494949,13.5 16.5,15.8505051 16.5,18.75 L16.5,22.5 Z M16.5,3 L24,3 L24,4.5 L16.5,4.5 L16.5,3 Z M16.5,6.75 L24,6.75 L24,8.25 L16.5,8.25 L16.5,6.75 Z M16.5,10.5 L21.75,10.5 L21.75,12 L16.5,12 L16.5,10.5 Z" id="Fill"></path>
            </g>
        </g>
    </g>
</svg>