<?xml version="1.0" encoding="UTF-8"?>
<svg width="25px" height="24px" viewBox="0 0 25 24" version="1.1" xmlns="http://www.w3.org/2000/svg" xmlns:xlink="http://www.w3.org/1999/xlink">
    <title>8D6086CC-D19A-47D3-9637-FEC6735FC916</title>
    <g id="Mercury-Labs" stroke="none" stroke-width="1" fill="none" fill-rule="evenodd">
        <g id="AICommerceAgencyWF_DT-Copy-35" transform="translate(-79.000000, -1726.000000)" fill="#000000">
            <g id="Actions-/-Operations-/-drag--horizontal-/-24-Copy" transform="translate(79.527149, 1726.000000)">
                <path d="M9,3 L9,11.25 L4.3725,11.25 L6.3075,9.3075 L5.25,8.25 L1.5,12 L5.25,15.75 L6.3075,14.6925 L4.3725,12.75 L9,12.75 L9,21 L10.5,21 L10.5,3 L9,3 L9,3 Z M18.75,8.25 L17.6925,9.3075 L19.6275,11.25 L15,11.25 L15,3 L13.5,3 L13.5,21 L15,21 L15,12.75 L19.6275,12.75 L17.6925,14.6925 L18.75,15.75 L22.5,12 L18.75,8.25 L18.75,8.25 Z" id="Fill"></path>
            </g>
        </g>
    </g>
</svg>