<?xml version="1.0" encoding="UTF-8"?>
<svg width="25px" height="24px" viewBox="0 0 25 24" version="1.1" xmlns="http://www.w3.org/2000/svg" xmlns:xlink="http://www.w3.org/1999/xlink">
    <title>24AC3580-72A7-40FF-A3DB-85E95F9AC0F1</title>
    <g id="Mercury-Labs" stroke="none" stroke-width="1" fill="none" fill-rule="evenodd">
        <g id="AICommerceAgencyWF_DT-Copy-35" transform="translate(-860.000000, -1726.000000)" fill="#000000">
            <g id="Actions-/-Operations-/-drag--horizontal-/-24-Copy-4" transform="translate(860.527149, 1726.000000)">
                <path d="M12,22.5 C6.20371729,22.4934695 1.50653047,17.7962827 1.5,12 L3,12 C3,16.9705627 7.02943725,21 12,21 C16.9705627,21 21,16.9705627 21,12 C21,7.02943725 16.9705627,3 12,3 L12,1.5 C17.7989899,1.5 22.5,6.20101013 22.5,12 C22.5,17.7989899 17.7989899,22.5 12,22.5 Z M12,19.5 C7.85983473,19.495247 4.504753,16.1401653 4.5,12 L6,12 C6,15.3137085 8.6862915,18 12,18 C15.3137085,18 18,15.3137085 18,12 C18,8.6862915 15.3137085,6 12,6 L12,4.5 C16.1421356,4.5 19.5,7.85786438 19.5,12 C19.5,16.1421356 16.1421356,19.5 12,19.5 Z M12,16.5 C9.51590084,16.4971482 7.5028518,14.4840992 7.5,12 L9,12 C9,13.6568542 10.3431458,15 12,15 C13.6568542,15 15,13.6568542 15,12 C15,10.3431458 13.6568542,9 12,9 L12,7.5 C14.4852814,7.5 16.5,9.51471863 16.5,12 C16.5,14.4852814 14.4852814,16.5 12,16.5 Z" id="Fill"></path>
            </g>
        </g>
    </g>
</svg>