<svg width="22" height="22" viewBox="0 0 22 22" fill="none" xmlns="http://www.w3.org/2000/svg">
<path fill-rule="evenodd" clip-rule="evenodd" d="M7.57978 21.7767C8.41702 21.7767 9.09574 21.098 9.09574 20.2607C9.09574 19.4235 8.41702 18.7448 7.57978 18.7448C6.74254 18.7448 6.06383 19.4235 6.06383 20.2607C6.06383 21.098 6.74254 21.7767 7.57978 21.7767ZM18.1915 21.7767C19.0287 21.7767 19.7074 21.098 19.7074 20.2607C19.7074 19.4235 19.0287 18.7448 18.1915 18.7448C17.3542 18.7448 16.6755 19.4235 16.6755 20.2607C16.6755 21.098 17.3542 21.7767 18.1915 21.7767ZM21.2234 4.34318H4.41143L3.78989 1.15967C3.71677 0.801049 3.39784 0.545905 3.03191 0.553128H0V2.06924H2.41037L5.30585 16.6224C5.37897 16.981 5.6979 17.2362 6.06383 17.229H19.7074V15.7128H6.68537L6.06383 12.6809H19.7074C20.0687 12.6898 20.386 12.4423 20.4654 12.0897L21.9814 5.26791C22.0328 5.04001 21.9763 4.80111 21.8282 4.62042C21.6801 4.43973 21.457 4.33744 21.2234 4.34318ZM19.1011 11.165H5.77579L4.71462 5.85913H20.2759L19.1011 11.165Z" fill="black"/>
</svg>
