<?xml version="1.0" encoding="UTF-8"?>
<svg width="25px" height="24px" viewBox="0 0 25 24" version="1.1" xmlns="http://www.w3.org/2000/svg" xmlns:xlink="http://www.w3.org/1999/xlink">
    <title>87A2939E-67C4-4C54-93CA-9ACB0892DDED</title>
    <g id="Mercury-Labs" stroke="none" stroke-width="1" fill="none" fill-rule="evenodd">
        <g id="AICommerceAgencyWF_DT-Copy-35" transform="translate(-892.000000, -2898.000000)" fill="#000000">
            <g id="Actions-/-Operations-/-drag--horizontal-/-24-Copy-12" transform="translate(892.527149, 2898.000000)">
                <path d="M4.5,18 C5.32842712,18 6,18.6715729 6,19.5 C6,20.3284271 5.32842712,21 4.5,21 C3.67157288,21 3,20.3284271 3,19.5 C3,18.6715729 3.67157288,18 4.5,18 M4.5,16.5 C2.84314575,16.5 1.5,17.8431458 1.5,19.5 C1.5,21.1568542 2.84314575,22.5 4.5,22.5 C6.15685425,22.5 7.5,21.1568542 7.5,19.5 C7.5,17.8431458 6.15685425,16.5 4.5,16.5 Z M12,3 C12.8284271,3 13.5,3.67157288 13.5,4.5 C13.5,5.32842712 12.8284271,6 12,6 C11.1715729,6 10.5,5.32842712 10.5,4.5 C10.5,3.67157288 11.1715729,3 12,3 M12,1.5 C10.3431458,1.5 9,2.84314575 9,4.5 C9,6.15685425 10.3431458,7.5 12,7.5 C13.6568542,7.5 15,6.15685425 15,4.5 C15,3.70435053 14.6839295,2.94128879 14.1213203,2.37867966 C13.5587112,1.81607052 12.7956495,1.5 12,1.5 Z M19.5,3 C20.3284271,3 21,3.67157288 21,4.5 C21,5.32842712 20.3284271,6 19.5,6 C18.6715729,6 18,5.32842712 18,4.5 C18,3.67157288 18.6715729,3 19.5,3 M19.5,1.5 C17.8431458,1.5 16.5,2.84314575 16.5,4.5 C16.5,6.15685425 17.8431458,7.5 19.5,7.5 C21.1568542,7.5 22.5,6.15685425 22.5,4.5 C22.5,3.70435053 22.1839295,2.94128879 21.6213203,2.37867966 C21.0587112,1.81607052 20.2956495,1.5 19.5,1.5 Z M13.5,18 L13.5,21 L10.5,21 L10.5,18 L13.5,18 M15,16.5 L9,16.5 L9,22.5 L15,22.5 L15,16.5 Z M20.25,16.605 L20.25,12.75 C20.25,11.9215729 19.5784271,11.25 18.75,11.25 L5.25,11.25 L5.25,7.5 L7.5,7.5 L7.5,1.5 L1.5,1.5 L1.5,7.5 L3.75,7.5 L3.75,11.25 C3.75,12.0784271 4.42157288,12.75 5.25,12.75 L18.75,12.75 L18.75,16.605 C17.28727,16.9826753 16.3335561,18.38909 16.5239109,19.8877504 C16.7142657,21.3864107 17.9892989,22.5097375 19.5,22.5097375 C21.0107011,22.5097375 22.2857343,21.3864107 22.4760891,19.8877504 C22.6664439,18.38909 21.71273,16.9826753 20.25,16.605 Z M3,3 L6,3 L6,6 L3,6 L3,3 Z M19.5,21 C18.6715729,21 18,20.3284271 18,19.5 C18,18.6715729 18.6715729,18 19.5,18 C20.3284271,18 21,18.6715729 21,19.5 C21,20.3284271 20.3284271,21 19.5,21 Z" id="Fill"></path>
            </g>
        </g>
    </g>
</svg>