<?xml version="1.0" encoding="UTF-8"?>
<svg width="25px" height="24px" viewBox="0 0 25 24" version="1.1" xmlns="http://www.w3.org/2000/svg" xmlns:xlink="http://www.w3.org/1999/xlink">
    <title>3FD109C7-08C1-42EF-B129-EE83BB74E2A2</title>
    <g id="Mercury-Labs" stroke="none" stroke-width="1" fill="none" fill-rule="evenodd">
        <g id="AICommerceAgencyWF_DT-Copy-35" transform="translate(-890.000000, -2671.000000)" fill="#000000">
            <g id="Actions-/-Operations-/-drag--horizontal-/-24-Copy-8" transform="translate(890.527149, 2671.000000)">
                <path d="M16.5,18 L13.5,18 L13.5,16.5 L16.5,16.5 L16.5,13.5 L18,13.5 L18,16.5 C17.9991319,17.3280673 17.3280673,17.9991319 16.5,18 L16.5,18 Z M7.5,10.5 L6,10.5 L6,7.5 C6.00090936,6.67194984 6.67194984,6.00090936 7.5,6 L10.5,6 L10.5,7.5 L7.5,7.5 L7.5,10.5 Z M21,6 L18,6 L18,3 C17.9990494,2.17196695 17.3280331,1.5009506 16.5,1.5 L3,1.5 C2.17196695,1.5009506 1.5009506,2.17196695 1.5,3 L1.5,16.5 C1.5009506,17.3280331 2.17196695,17.9990494 3,18 L6,18 L6,21 C6.0009506,21.8280331 6.67196695,22.4990494 7.5,22.5 L21,22.5 C21.8280331,22.4990494 22.4990494,21.8280331 22.5,21 L22.5,7.5 C22.4990494,6.67196695 21.8280331,6.0009506 21,6 Z M21,21 L7.5,21 L7.5,18 L10.5,18 L10.5,16.5 L7.5,16.5 L7.5,13.5 L6,13.5 L6,16.5 L3,16.5 L3,3 L16.5,3 L16.5,6 L13.5,6 L13.5,7.5 L16.5,7.5 L16.5,10.5 L18,10.5 L18,7.5 L21,7.5 L21,21 Z" id="Fill"></path>
            </g>
        </g>
    </g>
</svg>