<svg width="23" height="20" viewBox="0 0 23 20" fill="none" xmlns="http://www.w3.org/2000/svg">
<path fill-rule="evenodd" clip-rule="evenodd" d="M21.7922 3.19231C21.5542 3.0549 21.2609 3.0549 21.0229 3.19231L14.4614 6.44615V3.84615C14.4606 3.57954 14.3218 3.33236 14.0946 3.19289C13.8673 3.05343 13.5841 3.04156 13.346 3.16154L6.76908 6.44615V0.769231C6.76908 0.344396 6.42468 0 5.99985 0H1.38447C0.959631 0 0.615234 0.344396 0.615234 0.769231V20H22.1537V3.84615C22.1542 3.58038 22.0175 3.33317 21.7922 3.19231ZM15.9999 18.4615H12.9229V13.0769H15.9999V18.4615ZM20.6152 18.4615H17.5383V12.3077C17.5383 11.8829 17.1939 11.5385 16.7691 11.5385H12.1537C11.7289 11.5385 11.3845 11.8829 11.3845 12.3077V18.4615H2.1537V1.53846H5.23062V8.93846L12.9229 5.09231V8.93846L20.6152 5.09231V18.4615Z" fill="black"/>
</svg>
