<svg width="22" height="19" viewBox="0 0 22 19" fill="none" xmlns="http://www.w3.org/2000/svg">
<path fill-rule="evenodd" clip-rule="evenodd" d="M18.8571 7.07143C20.5921 7.06948 21.9981 5.66352 22 3.92857V1.57143H19.6429C18.8384 1.57274 18.0654 1.8841 17.4847 2.44074C16.6557 0.936444 15.0747 0.00153636 13.3571 0H11V2.35714C11.0029 4.95959 13.1118 7.06857 15.7143 7.07143H16.5V17.2857H7.07143V13.3571H7.85714C9.59209 13.3552 10.9981 11.9492 11 10.2143V7.85714H8.64286C7.83841 7.85846 7.06542 8.16981 6.48466 8.72646C5.65572 7.22216 4.07471 6.28725 2.35714 6.28571H0V8.64286C0.00285798 11.2453 2.11184 13.3543 4.71429 13.3571H5.5V17.2857H0V18.8571H22V17.2857H18.0714V7.07143H18.8571ZM18.0714 4.71429C18.0723 3.84677 18.7753 3.14372 19.6429 3.14286H20.4286V3.92857C20.4277 4.79609 19.7247 5.49913 18.8571 5.5H18.0714V4.71429ZM7.07143 11C7.0723 10.1325 7.77534 9.42944 8.64286 9.42857H9.42857V10.2143C9.42771 11.0818 8.72466 11.7848 7.85714 11.7857H7.07143V11ZM5.5 11.7857H4.71429C2.97934 11.7838 1.57338 10.3778 1.57143 8.64286V7.85714H2.35714C4.09209 7.85909 5.49805 9.26506 5.5 11V11.7857ZM16.5 5.5H15.7143C13.9793 5.49805 12.5734 4.09209 12.5714 2.35714V1.57143H13.3571C15.0921 1.57338 16.4981 2.97934 16.5 4.71429V5.5Z" fill="black"/>
</svg>
