<?xml version="1.0" encoding="UTF-8"?>
<svg width="25px" height="24px" viewBox="0 0 25 24" version="1.1" xmlns="http://www.w3.org/2000/svg" xmlns:xlink="http://www.w3.org/1999/xlink">
    <title>33536F9D-AA06-444B-B932-8C3641BD9632</title>
    <g id="Mercury-Labs" stroke="none" stroke-width="1" fill="none" fill-rule="evenodd">
        <g id="AICommerceAgencyWF_DT-Copy-35" transform="translate(-79.000000, -3125.000000)" fill="#000000">
            <g id="Actions-/-Operations-/-drag--horizontal-/-24-Copy-11" transform="translate(79.527149, 3125.000000)">
                <path d="M22.5,22.5 L16.5,22.5 L16.5,16.5 L22.5,16.5 L22.5,22.5 Z M18,21 L21,21 L21,18 L18,18 L18,21 Z M15,20.25 L6,20.25 C3.51471863,20.25 1.5,18.2352814 1.5,15.75 C1.5,13.2647186 3.51471863,11.25 6,11.25 L7.5,11.25 L7.5,12.75 L6,12.75 C4.34314575,12.75 3,14.0931458 3,15.75 C3,17.4068542 4.34314575,18.75 6,18.75 L15,18.75 L15,20.25 Z M15,15 L9,15 L9,9 L15,9 L15,15 Z M10.5,13.5 L13.5,13.5 L13.5,10.5 L10.5,10.5 L10.5,13.5 Z M18,12.75 L16.5,12.75 L16.5,11.25 L18,11.25 C19.6568542,11.25 21,9.90685425 21,8.25 C21,6.59314575 19.6568542,5.25 18,5.25 L9,5.25 L9,3.75 L18,3.75 C20.4852813,3.75 22.5,5.76471865 22.5,8.25 C22.5,10.7352813 20.4852813,12.75 18,12.75 Z M7.5,7.5 L1.5,7.5 L1.5,1.5 L7.5,1.5 L7.5,7.5 Z M3,6 L6,6 L6,3 L3,3 L3,6 Z" id="Fill"></path>
            </g>
        </g>
    </g>
</svg>