<?xml version="1.0" encoding="UTF-8"?>
<svg width="25px" height="24px" viewBox="0 0 25 24" version="1.1" xmlns="http://www.w3.org/2000/svg" xmlns:xlink="http://www.w3.org/1999/xlink">
    <title>E5AC86D3-7A4C-4415-B345-B09E8413E0D4</title>
    <g id="Mercury-Labs" stroke="none" stroke-width="1" fill="none" fill-rule="evenodd">
        <g id="AICommerceAgencyWF_DT-Copy-35" transform="translate(-452.000000, -1726.000000)" fill="#000000">
            <g id="Actions-/-Operations-/-drag--horizontal-/-24-Copy-3" transform="translate(452.527149, 1726.000000)">
                <path d="M1.5,6.75 L8.25,6.75 L8.25,1.5 L1.5,1.5 L1.5,6.75 Z M3,3 L6.75,3 L6.75,5.25 L3,5.25 L3,3 Z M1.5,14.25 L8.25,14.25 L8.25,9 L1.5,9 L1.5,14.25 Z M3,10.5 L6.75,10.5 L6.75,12.75 L3,12.75 L3,10.5 Z M1.5,21.75 L8.25,21.75 L8.25,16.5 L1.5,16.5 L1.5,21.75 Z M3,18 L6.75,18 L6.75,20.25 L3,20.25 L3,18 Z M20.25,6.75 L13.5,6.75 L16.0575,4.0575 L15,3 L10.5,7.5 L15,12 L16.0575,10.9425 L13.5,8.25 L20.25,8.25 C20.6642136,8.25 21,8.58578644 21,9 L21,18 C21,18.4142136 20.6642136,18.75 20.25,18.75 L11.25,18.75 L11.25,20.25 L20.25,20.25 C21.4926407,20.25 22.5,19.2426407 22.5,18 L22.5,9 C22.5,7.75735931 21.4926407,6.75 20.25,6.75 Z" id="Fill"></path>
            </g>
        </g>
    </g>
</svg>