<?xml version="1.0" encoding="UTF-8"?>
<svg width="22px" height="22px" viewBox="0 0 22 22" version="1.1" xmlns="http://www.w3.org/2000/svg" xmlns:xlink="http://www.w3.org/1999/xlink">
    <title>832EA247-CCDF-4862-A6F0-39AD1BC37CFA</title>
    <g id="Mercury-Labs" stroke="none" stroke-width="1" fill="none" fill-rule="evenodd">
        <g id="AICommerceAgencyWF_DT-Copy-35" transform="translate(-81.000000, -3337.000000)" fill="#000000">
            <g id="Actions-/-Operations-/-drag--horizontal-/-24-Copy-16" transform="translate(81.015837, 3337.499778)">
                <path d="M11.2613125,11.250222 L15.1178875,11.250222 C15.4955628,12.7129521 16.9019776,13.6666659 18.4006379,13.4763111 C19.8992982,13.2859563 21.022625,12.0109231 21.022625,10.500222 C21.022625,8.98952093 19.8992982,7.71448775 18.4006379,7.52413293 C16.9019776,7.33377811 15.4955628,8.28749198 15.1178875,9.75022202 L11.2613125,9.75022202 L11.2613125,3.75022202 L15.1178875,3.75022202 C15.4955628,5.21295206 16.9019776,6.16666593 18.4006379,5.97631111 C19.8992982,5.78595629 21.022625,4.51092311 21.022625,3.00022202 C21.022625,1.48952093 19.8992982,0.214487755 18.4006379,0.0241329326 C16.9019776,-0.16622189 15.4955628,0.787491978 15.1178875,2.25022202 L11.2613125,2.25022202 C10.4332795,2.25117262 9.76226311,2.92218897 9.76131251,3.75022202 L9.76131251,9.75022202 L5.90473751,9.75022202 C5.52706224,8.28749198 4.12064747,7.33377811 2.62198712,7.52413293 C1.12332678,7.71448775 0,8.98952093 0,10.500222 C0,12.0109231 1.12332678,13.2859563 2.62198712,13.4763111 C4.12064747,13.6666659 5.52706224,12.7129521 5.90473751,11.250222 L9.76131251,11.250222 L9.76131251,17.250222 C9.76226311,18.0782551 10.4332795,18.7492714 11.2613125,18.750222 L15.1178875,18.750222 C15.4955628,20.2129521 16.9019776,21.1666659 18.4006379,20.9763111 C19.8992982,20.7859563 21.022625,19.5109231 21.022625,18.000222 C21.022625,16.4895209 19.8992982,15.2144878 18.4006379,15.0241329 C16.9019776,14.8337781 15.4955628,15.787492 15.1178875,17.250222 L11.2613125,17.250222 L11.2613125,11.250222 Z M18.0113125,9.00022202 C18.8397396,9.00022202 19.5113125,9.6717949 19.5113125,10.500222 C19.5113125,11.3286491 18.8397396,12.000222 18.0113125,12.000222 C17.1828854,12.000222 16.5113125,11.3286491 16.5113125,10.500222 C16.5122631,9.67218897 17.1832795,9.00117262 18.0113125,9.00022202 Z M18.0113125,1.50022202 C18.8397396,1.50022202 19.5113125,2.1717949 19.5113125,3.00022202 C19.5113125,3.82864915 18.8397396,4.50022202 18.0113125,4.50022202 C17.1828854,4.50022202 16.5113125,3.82864915 16.5113125,3.00022202 C16.5122631,2.17218897 17.1832795,1.50117262 18.0113125,1.50022202 Z M3.01131251,12.000222 C2.18288538,12.000222 1.51131251,11.3286491 1.51131251,10.500222 C1.51131251,9.6717949 2.18288538,9.00022202 3.01131251,9.00022202 C3.83973963,9.00022202 4.51131251,9.6717949 4.51131251,10.500222 C4.51036191,11.3282551 3.83934556,11.9992714 3.01131251,12.000222 Z M18.0113125,16.500222 C18.8397396,16.500222 19.5113125,17.1717949 19.5113125,18.000222 C19.5113125,18.8286491 18.8397396,19.500222 18.0113125,19.500222 C17.1828854,19.500222 16.5113125,18.8286491 16.5113125,18.000222 C16.5122631,17.172189 17.1832795,16.5011726 18.0113125,16.500222 Z" id="Fill"></path>
            </g>
        </g>
    </g>
</svg>