<svg width="20" height="24" viewBox="0 0 20 24" fill="none" xmlns="http://www.w3.org/2000/svg">
<path fill-rule="evenodd" clip-rule="evenodd" d="M16.6667 0.333496V2.00014H18.3334V7.00008C18.3334 8.84101 16.841 10.3334 15.0001 10.3334C13.1591 10.3334 11.6668 8.84101 11.6668 7.00008V2.00014H13.3334V0.333496H10.0001V7.00008C10.0043 9.43734 11.7639 11.5171 14.1667 11.925V17C14.1667 19.7613 11.9282 21.9999 9.1668 21.9999C6.40541 21.9999 4.16686 19.7613 4.16686 17V11.8816C5.7921 11.462 6.85177 9.89931 6.64026 8.23415C6.42876 6.56899 5.01207 5.32087 3.33354 5.32087C1.655 5.32087 0.238317 6.56899 0.026814 8.23415C-0.184689 9.89931 0.87498 11.462 2.50022 11.8816V17C2.50022 20.6818 5.48495 23.6665 9.1668 23.6665C12.8487 23.6665 15.8334 20.6818 15.8334 17V11.925C18.2363 11.5171 19.9958 9.43734 20 7.00008V0.333496H16.6667ZM1.66689 8.66673C1.66689 7.74626 2.41308 7.00008 3.33354 7.00008C4.254 7.00008 5.00019 7.74626 5.00019 8.66673C5.00019 9.58719 4.254 10.3334 3.33354 10.3334C2.41351 10.3323 1.66795 9.58675 1.66689 8.66673Z" fill="black"/>
</svg>
