<?xml version="1.0" encoding="UTF-8"?>
<svg width="25px" height="24px" viewBox="0 0 25 24" version="1.1" xmlns="http://www.w3.org/2000/svg" xmlns:xlink="http://www.w3.org/1999/xlink">
    <title>7A55D501-BBEE-4D44-97D0-CDF2885F97BC</title>
    <g id="Mercury-Labs" stroke="none" stroke-width="1" fill="none" fill-rule="evenodd">
        <g id="AICommerceAgencyWF_DT-Copy-35" transform="translate(-486.000000, -3124.000000)" fill="#000000">
            <g id="Actions-/-Operations-/-drag--horizontal-/-24-Copy-13" transform="translate(486.527149, 3124.000000)">
                <path d="M18,2.25 L6,2.25 C5.17157288,2.25 4.5,2.92157288 4.5,3.75 L4.5,20.25 C4.5,21.0784271 5.17157288,21.75 6,21.75 L18,21.75 C18.8284271,21.75 19.5,21.0784271 19.5,20.25 L19.5,3.75 C19.5,2.92157288 18.8284271,2.25 18,2.25 Z M18,3.75 L18,8.25 L6,8.25 L6,3.75 L18,3.75 Z M6,14.25 L6,9.75 L18,9.75 L18,14.25 L6,14.25 Z M6,20.25 L6,15.75 L18,15.75 L18,20.25 L6,20.25 Z M8.25,6.75 C8.66421356,6.75 9,6.41421356 9,6 C9,5.58578644 8.66421356,5.25 8.25,5.25 C7.83578644,5.25 7.5,5.58578644 7.5,6 C7.5,6.41421356 7.83578644,6.75 8.25,6.75 Z M8.25,12.75 C8.66421356,12.75 9,12.4142136 9,12 C9,11.5857864 8.66421356,11.25 8.25,11.25 C7.83578644,11.25 7.5,11.5857864 7.5,12 C7.5,12.4142136 7.83578644,12.75 8.25,12.75 Z M8.25,18.75 C8.66421356,18.75 9,18.4142136 9,18 C9,17.5857864 8.66421356,17.25 8.25,17.25 C7.83578644,17.25 7.5,17.5857864 7.5,18 C7.5,18.4142136 7.83578644,18.75 8.25,18.75 Z" id="Fill"></path>
            </g>
        </g>
    </g>
</svg>