<?xml version="1.0" encoding="UTF-8"?>
<svg width="25px" height="24px" viewBox="0 0 25 24" version="1.1" xmlns="http://www.w3.org/2000/svg" xmlns:xlink="http://www.w3.org/1999/xlink">
    <title>9B891227-E54F-4205-B70D-9DA11BB5624D</title>
    <g id="Mercury-Labs" stroke="none" stroke-width="1" fill="none" fill-rule="evenodd">
        <g id="AICommerceAgencyWF_DT-Copy-35" transform="translate(-486.000000, -3336.000000)" fill="#000000">
            <g id="Actions-/-Operations-/-drag--horizontal-/-24-Copy-15" transform="translate(486.527149, 3336.000000)">
                <path d="M15,9.75 L9,9.75 C8.17200116,9.75103306 7.50103306,10.4220012 7.5,11.25 L7.5,21 C7.50103306,21.8279988 8.17200116,22.4989669 9,22.5 L15,22.5 C15.8279988,22.4989669 16.4989669,21.8279988 16.5,21 L16.5,11.25 C16.4989669,10.4220012 15.8279988,9.75103306 15,9.75 Z M15,11.25 L15,13.5 L9,13.5 L9,11.25 L15,11.25 Z M15,15 L15,17.25 L9,17.25 L9,15 L15,15 Z M9,21 L9,18.75 L15,18.75 L15,21 L9,21 Z M19.4325,7.5975 C19.3959985,7.59077076 19.367274,7.56249185 19.359975,7.5261 C18.758882,4.53828908 16.4105345,2.21071818 13.4175,1.6362 C9.37022939,0.8543597 5.45030665,3.48448779 4.63935,7.526025 C4.63218092,7.5624762 4.60355248,7.59089676 4.56705,7.5978 C1.71920676,8.14380569 -0.247259864,10.7647462 0.0248976856,13.6516587 C0.297055235,16.5385711 2.71869036,18.7458327 5.6184,18.75 L6,18.75 L6,17.25 L5.62155,17.25 C4.42410047,17.2466768 3.28695019,16.7241818 2.50445244,15.8177638 C1.72195468,14.9113457 1.37103334,13.7101106 1.542525,12.525 C1.85250627,10.7238575 3.27333035,9.31906889 5.077875,9.02955 L5.840325,8.89185 C5.87992168,8.88454366 5.91101327,8.8537496 5.9187,8.814225 L6.0537,8.1129 C6.51210694,5.50475127 8.57400356,3.47423377 11.188875,3.055875 C11.9004694,2.95824573 12.6238439,2.98987796 13.3242,3.14925 C15.6979597,3.72737516 17.5063685,5.65271643 17.934825,8.058 L18.0804,8.814225 C18.0879696,8.85381212 18.1191169,8.88466136 18.158775,8.89185 L18.951975,9.0354 C19.8269437,9.17356871 20.6386124,9.57638003 21.2778,10.18965 C22.4642824,11.3664878 22.8243824,13.1424782 22.1899906,14.6885166 C21.5555989,16.234555 20.0518282,17.2457363 18.3807,17.25 L18,17.25 L18,18.75 L18.3807,18.75 C21.2810975,18.7468641 23.7038551,16.5394519 23.9761853,13.6518661 C24.2485155,10.7642803 22.2811709,8.14283452 19.4325,7.5975 Z" id="Fill"></path>
            </g>
        </g>
    </g>
</svg>