<?xml version="1.0" encoding="UTF-8"?>
<svg width="25px" height="24px" viewBox="0 0 25 24" version="1.1" xmlns="http://www.w3.org/2000/svg" xmlns:xlink="http://www.w3.org/1999/xlink">
    <title>F2D0427B-0F47-42DA-BB50-9FF9963A3DBB</title>
    <g id="Mercury-Labs" stroke="none" stroke-width="1" fill="none" fill-rule="evenodd">
        <g id="AICommerceAgencyWF_DT-Copy-35" transform="translate(-79.000000, -2898.000000)" fill="#000000">
            <g id="Actions-/-Operations-/-drag--horizontal-/-24-Copy-9" transform="translate(79.527149, 2898.000000)">
                <path d="M17.25,1.5 L12.75,6 L13.81095,7.051725 L16.5,4.3638 L16.5,21 L4.5,21 L4.5,9 L3,9 L3,21 C3.00103306,21.8279988 3.67200116,22.4989669 4.5,22.5 L16.5,22.5 C17.3279988,22.4989669 17.9989669,21.8279988 18,21 L18,4.36155 L20.689425,7.051725 L21.75,6 L17.25,1.5 Z M12,18 L9,18 C8.17196695,17.9990494 7.5009506,17.3280331 7.5,16.5 L7.5,13.5 C7.5009506,12.6719669 8.17196695,12.0009506 9,12 L12,12 C12.8280331,12.0009506 13.4990494,12.6719669 13.5,13.5 L13.5,16.5 C13.4990494,17.3280331 12.8280331,17.9990494 12,18 Z M9,13.5 L9,16.5 L12,16.5 L12,13.5 L9,13.5 Z" id="Fill"></path>
            </g>
        </g>
    </g>
</svg>