<svg width="25" height="24" viewBox="0 0 25 24" fill="none" xmlns="http://www.w3.org/2000/svg">
<path fill-rule="evenodd" clip-rule="evenodd" d="M5.02734 15.75V15H3.52734V15.75C3.52734 18.6495 5.87785 21 8.77734 21H11.0273V19.5H8.77734C6.70628 19.5 5.02734 17.8211 5.02734 15.75ZM18.5273 8.25V9H20.0273V8.25C20.0273 5.35051 17.6768 3 14.7773 3H12.5273V4.5H14.7773C15.7719 4.5 16.7257 4.89509 17.429 5.59835C18.1323 6.30161 18.5273 7.25544 18.5273 8.25ZM8.77734 8.25H4.27734C3.0347 8.25 2.02734 9.25736 2.02734 10.5V12H3.52734V10.5C3.52734 10.0858 3.86313 9.75 4.27734 9.75H8.77734C9.19156 9.75 9.52734 10.0858 9.52734 10.5V12H11.0273V10.5C11.0273 9.25736 10.02 8.25 8.77734 8.25ZM9.52734 4.5C9.52734 6.15685 8.1842 7.5 6.52734 7.5C4.87049 7.5 3.52734 6.15685 3.52734 4.5C3.52734 2.84315 4.87049 1.5 6.52734 1.5C8.1842 1.5 9.52734 2.84315 9.52734 4.5ZM8.02734 4.5C8.02734 3.67157 7.35577 3 6.52734 3C5.69892 3 5.02734 3.67157 5.02734 4.5C5.02734 5.32843 5.69892 6 6.52734 6C7.35577 6 8.02734 5.32843 8.02734 4.5ZM20.7773 18.75H16.2773C15.0347 18.75 14.0273 19.7574 14.0273 21V22.5H15.5273V21C15.5273 20.5858 15.8631 20.25 16.2773 20.25H20.7773C21.1916 20.25 21.5273 20.5858 21.5273 21V22.5H23.0273V21C23.0273 19.7574 22.02 18.75 20.7773 18.75ZM18.5273 18C16.8705 18 15.5273 16.6569 15.5273 15C15.5273 13.3431 16.8705 12 18.5273 12C20.1842 12 21.5273 13.3431 21.5273 15C21.5273 16.6569 20.1842 18 18.5273 18ZM18.5273 16.5C19.3558 16.5 20.0273 15.8284 20.0273 15C20.0273 14.1716 19.3558 13.5 18.5273 13.5C17.6989 13.5 17.0273 14.1716 17.0273 15C17.0273 15.8284 17.6989 16.5 18.5273 16.5Z" fill="black"/>
</svg>
