<?xml version="1.0" encoding="UTF-8"?>
<svg width="25px" height="24px" viewBox="0 0 25 24" version="1.1" xmlns="http://www.w3.org/2000/svg" xmlns:xlink="http://www.w3.org/1999/xlink">
    <title>2FDD5631-36BA-43ED-BCA1-3EDB74F1C8A0</title>
    <g id="Mercury-Labs" stroke="none" stroke-width="1" fill="none" fill-rule="evenodd">
        <g id="AICommerceAgencyWF_DT-Copy-35" transform="translate(-79.000000, -3586.000000)" fill="#000000">
            <g id="Actions-/-Operations-/-drag--horizontal-/-24-Copy-19" transform="translate(79.527149, 3586.000000)">
                <path d="M18.75,9.75 L18.75,3 L17.25,3 L17.25,4.5 L15,4.5 L15,6 L17.25,6 L17.25,9.75 L15,9.75 L15,11.25 L21,11.25 L21,9.75 L18.75,9.75 L18.75,9.75 Z M6.375,4.5 C7.82474747,4.5 9,5.67525253 9,7.125 C9,8.57474747 7.82474747,9.75 6.375,9.75 C4.92525253,9.75 3.75,8.57474747 3.75,7.125 C3.75,5.67525253 4.92525253,4.5 6.375,4.5 M6.375,3 C4.09682541,3 2.25,4.84682541 2.25,7.125 C2.25,9.40317459 4.09682541,11.25 6.375,11.25 C8.65317459,11.25 10.5,9.40317459 10.5,7.125 C10.5,6.03098198 10.065403,4.98177209 9.29181547,4.20818453 C8.51822791,3.43459697 7.46901802,3 6.375,3 Z M6.375,15 C7.82474747,15 9,16.1752525 9,17.625 C9,19.0747475 7.82474747,20.25 6.375,20.25 C4.92525253,20.25 3.75,19.0747475 3.75,17.625 C3.75,16.1752525 4.92525253,15 6.375,15 M6.375,13.5 C4.09682541,13.5 2.25,15.3468254 2.25,17.625 C2.25,19.9031746 4.09682541,21.75 6.375,21.75 C8.65317459,21.75 10.5,19.9031746 10.5,17.625 C10.5,15.3468254 8.65317459,13.5 6.375,13.5 L6.375,13.5 Z M17.625,15 C19.0747475,15 20.25,16.1752525 20.25,17.625 C20.25,19.0747475 19.0747475,20.25 17.625,20.25 C16.1752525,20.25 15,19.0747475 15,17.625 C15,16.1752525 16.1752525,15 17.625,15 M17.625,13.5 C15.3468254,13.5 13.5,15.3468254 13.5,17.625 C13.5,19.9031746 15.3468254,21.75 17.625,21.75 C19.9031746,21.75 21.75,19.9031746 21.75,17.625 C21.75,15.3468254 19.9031746,13.5 17.625,13.5 L17.625,13.5 Z" id="Fill"></path>
            </g>
        </g>
    </g>
</svg>