<svg width="22" height="22" viewBox="0 0 22 22" fill="none" xmlns="http://www.w3.org/2000/svg">
<path fill-rule="evenodd" clip-rule="evenodd" d="M0 20.4285H22.0003V22H0V20.4285ZM19.6432 7.0712C20.0771 7.0712 20.4289 6.71942 20.4289 6.28548V3.9283C20.4289 3.59748 20.2214 3.30219 19.9103 3.18971L11.2673 0.0468093C11.0947 -0.0156031 10.9057 -0.0156031 10.733 0.0468093L2.09003 3.18971C1.77893 3.30219 1.57145 3.59748 1.57145 3.9283V6.28548C1.57145 6.71942 1.92323 7.0712 2.35718 7.0712H3.1429V17.2856H1.57145V18.8571H20.4289V17.2856H18.8574V7.0712H19.6432ZM3.1429 4.47831L11.0002 1.61826L18.8574 4.47831V5.49975H3.1429V4.47831ZM12.5716 17.2856H9.42871V7.0712H12.5716V17.2856ZM4.71436 7.0712H7.85726V17.2856H4.71436V7.0712ZM17.286 17.2856H14.1431V7.0712H17.286V17.2856Z" fill="black"/>
</svg>
