<?xml version="1.0" encoding="UTF-8"?>
<svg width="25px" height="24px" viewBox="0 0 25 24" version="1.1" xmlns="http://www.w3.org/2000/svg" xmlns:xlink="http://www.w3.org/1999/xlink">
    <title>10E5816A-B922-4D62-B4D2-69DD9B774273</title>
    <g id="Mercury-Labs" stroke="none" stroke-width="1" fill="none" fill-rule="evenodd">
        <g id="AICommerceAgencyWF_DT-Copy-35" transform="translate(-893.000000, -3124.000000)" fill="#000000">
            <g id="Actions-/-Operations-/-drag--horizontal-/-24-Copy-14" transform="translate(893.527149, 3124.000000)">
                <path d="M1.5,19.5 L22.5,19.5 L22.5,21 L1.5,21 L1.5,19.5 Z M19.05,6.75 C19.65,6.15 19.65,5.25 19.05,4.65 C19.05,4.65 19.05,4.65 19.05,4.65 L16.35,1.95 C15.75,1.35 14.85,1.35 14.25,1.95 C14.25,1.95 14.25,1.95 14.25,1.95 L3,13.2 L3,18 L7.8,18 L19.05,6.75 Z M15.3,3 L18,5.7 L15.75,7.95 L13.05,5.25 L15.3,3 Z M4.5,16.5 L4.5,13.8 L12,6.3 L14.7,9 L7.2,16.5 L4.5,16.5 Z" id="Fill"></path>
            </g>
        </g>
    </g>
</svg>