<?xml version="1.0" encoding="UTF-8"?>
<svg width="22px" height="24px" viewBox="0 0 22 24" version="1.1" xmlns="http://www.w3.org/2000/svg" xmlns:xlink="http://www.w3.org/1999/xlink">
    <title>5CCE65A7-D3E8-4C2C-A053-EFAAE805DA7E</title>
    <g id="Mercury-Labs" stroke="none" stroke-width="1" fill="none" fill-rule="evenodd">
        <g id="AICommerceAgencyWF_DT-Copy-35" transform="translate(-488.000000, -2671.000000)" fill="#000000">
            <g id="Actions-/-Operations-/-drag--horizontal-/-24-Copy-7" transform="translate(488.027149, 2671.000000)">
                <path d="M16.5,15 L15.4425,16.0575 L18.1275,18.75 L6,18.75 C4.34314575,18.75 3,17.4068542 3,15.75 C3,14.0931458 4.34314575,12.75 6,12.75 L15,12.75 C17.4852813,12.75 19.5,10.7352813 19.5,8.25 C19.5,5.76471865 17.4852813,3.75000004 15,3.75 L2.8725,3.75 L5.5575,1.0575 L4.5,0 L0,4.5 L4.5,9 L5.5575,7.9425 L2.8725,5.25 L15,5.25 C16.6568542,5.25 18,6.59314575 18,8.25 C18,9.90685425 16.6568542,11.25 15,11.25 L6,11.25 C3.51471863,11.25 1.5,13.2647186 1.5,15.75 C1.5,18.2352814 3.51471863,20.25 6,20.25 L18.1275,20.25 L15.4425,22.9425 L16.5,24 L21,19.5 L16.5,15 Z" id="Fill"></path>
            </g>
        </g>
    </g>
</svg>