<svg xmlns="http://www.w3.org/2000/svg" xmlns:xlink="http://www.w3.org/1999/xlink" width="25px" height="24px" viewBox="0 0 25 24" version="1.1">
    <title>EF2ECCED-BD2A-4E07-B03C-B9337666A157</title>
    <g id="Mercury-Labs" stroke="none" stroke-width="1" fill="none" fill-rule="evenodd">
        <g id="AICommerceAgencyWF_DT-Copy-35" transform="translate(-79.000000, -1631.000000)" fill="#000000">
            <g id="Actions-/-Operations-/-drag--horizontal-/-24" transform="translate(79.527149, 1631.000000)">
                <path d="M22.111425,6.468 L14.611425,2.343 C14.3863704,2.21922622 14.1136296,2.21922622 13.888575,2.343 L6.388575,6.468 C6.14907827,6.59986293 6.00030833,6.85160191 6.00030833,7.125 C6.00030833,7.39839809 6.14907827,7.65013707 6.388575,7.782 L13.5,11.693475 L13.5,19.73145 L11.22285,18.479475 L10.5,19.7934 L13.888575,21.657 C14.1135714,21.7810002 14.3864286,21.7810002 14.611425,21.657 L22.111425,17.532 C22.3510408,17.400218 22.5,17.1484634 22.5,16.875 L22.5,7.125 C22.5,6.85153662 22.3510408,6.599782 22.111425,6.468 Z M14.25,3.8562 L20.1936,7.125 L14.25,10.3938 L8.3064,7.125 L14.25,3.8562 Z M21,16.431525 L15,19.731525 L15,11.693475 L21,8.393475 L21,16.431525 Z M7.5,12 L1.5,12 L1.5,10.5 L7.5,10.5 L7.5,12 Z M9,18 L3,18 L3,16.5 L9,16.5 L9,18 Z M10.5,15 L4.5,15 L4.5,13.5 L10.5,13.5 L10.5,15 Z" id="Fill"/>
            </g>
        </g>
    </g>
</svg>