<?xml version="1.0" encoding="UTF-8"?>
<svg width="25px" height="24px" viewBox="0 0 25 24" version="1.1" xmlns="http://www.w3.org/2000/svg" xmlns:xlink="http://www.w3.org/1999/xlink">
    <title>09B63AB6-7178-4BD4-AA54-D368F7A3A7BC</title>
    <g id="Mercury-Labs" stroke="none" stroke-width="1" fill="none" fill-rule="evenodd">
        <g id="AICommerceAgencyWF_DT-Copy-35" transform="translate(-892.000000, -3336.000000)" fill="#000000">
            <g id="Actions-/-Operations-/-drag--horizontal-/-24-Copy-17" transform="translate(892.527149, 3336.000000)">
                <path d="M18,15.75 L19.5,15.75 L19.5,19.5 L18,19.5 L18,15.75 Z M15,12 L16.5,12 L16.5,19.5 L15,19.5 L15,12 Z M8.25,19.5 C6.17996014,19.4975204 4.50247959,17.8200399 4.5,15.75 L6,15.75 C6,16.9926407 7.00735931,18 8.25,18 C9.49264069,18 10.5,16.9926407 10.5,15.75 C10.5,14.5073593 9.49264069,13.5 8.25,13.5 L8.25,12 C10.3210678,12 12,13.6789322 12,15.75 C12,17.8210678 10.3210678,19.5 8.25,19.5 Z M21,1.5 L3,1.5 C2.17191561,1.50082684 1.50082684,2.17191561 1.5,3 L1.5,21 C1.50082684,21.8280844 2.17191561,22.4991732 3,22.5 L21,22.5 C21.8279133,22.4987609 22.4987609,21.8279133 22.5,21 L22.5,3 C22.4991732,2.17191561 21.8280844,1.50082684 21,1.5 Z M21,8.25 L10.5,8.25 L10.5,3 L21,3 L21,8.25 Z M9,3 L9,8.25 L3,8.25 L3,3 L9,3 Z M3,21 L3,9.75 L21,9.75 L21.0015,21 L3,21 Z" id="Fill"></path>
            </g>
        </g>
    </g>
</svg>