<?xml version="1.0" encoding="UTF-8"?>
<svg width="22px" height="22px" viewBox="0 0 22 22" version="1.1" xmlns="http://www.w3.org/2000/svg" xmlns:xlink="http://www.w3.org/1999/xlink">
    <title>Actions / Operations / drag--horizontal / 24 Copy 20</title>
    <g id="Mercury-Labs" stroke="none" stroke-width="1" fill="none" fill-rule="evenodd">
        <g id="AICommerceAgencyWF_DT-Copy-38" transform="translate(-894.000000, -3656.000000)" fill="#000000">
            <g id="Fill" transform="translate(892.527149, 3655.000000)">
                <path d="M17.560575,16.5 L7.5,6.439425 L7.5,1.5 L1.5,1.5 L1.5,7.5 L6.439425,7.5 L16.5,17.560575 L16.5,22.5 L22.5,22.5 L22.5,16.5 L17.560575,16.5 Z M6,6 L3,6 L3,3 L6,3 L6,6 Z M21,21 L18,21 L18,18 L21,18 L21,21 Z M22.500007,4.5 C22.5032377,2.99034041 21.3818889,1.71448867 19.884304,1.52390532 C18.3867191,1.33332197 16.9815567,2.28764873 16.606575,3.75 L9.75,3.75 L9.75,5.25 L16.606575,5.25 C16.8802168,6.29988834 17.7001117,7.11978316 18.75,7.393425 L18.75,14.25 L20.25,14.25 L20.25,7.393425 C21.5710675,7.05337117 22.4958547,5.86412567 22.500007,4.5 L22.500007,4.5 Z M19.5,6 C18.6715729,6 18,5.32842712 18,4.5 C18,3.67157288 18.6715729,3 19.5,3 C20.3284271,3 21,3.67157288 21,4.5 C20.9990494,5.32803305 20.3280331,5.9990494 19.5,6 Z M14.25,18.75 L7.393425,18.75 C7.11978316,17.7001117 6.29988834,16.8802168 5.25,16.606575 L5.25,9.75 L3.75,9.75 L3.75,16.606575 C2.33488672,16.9694707 1.38837838,18.3007844 1.51048091,19.7565762 C1.63258343,21.2123681 2.78763194,22.3674166 4.24342378,22.4895191 C5.69921561,22.6116216 7.03052929,21.6651133 7.393425,20.25 L14.25,20.25 L14.25,18.75 Z M4.5,21 C3.67157288,21 3,20.3284271 3,19.5 C3,18.6715729 3.67157288,18 4.5,18 C5.32842712,18 6,18.6715729 6,19.5 C5.9990494,20.3280331 5.32803305,20.9990494 4.5,21 Z"></path>
            </g>
        </g>
    </g>
</svg>