<?xml version="1.0" encoding="UTF-8"?>
<svg width="113px" height="46px" viewBox="0 0 113 46" version="1.1" xmlns="http://www.w3.org/2000/svg" xmlns:xlink="http://www.w3.org/1999/xlink">
    <title>EBF0F6BE-4103-4528-8FC9-A5B8300DF649</title>
    <g id="Product-Marketing" stroke="none" stroke-width="1" fill="none" fill-rule="evenodd">
        <g id="AICommerceAgencyWF_DT-Copy-24" transform="translate(-185.000000, -3338.000000)" fill="#000000" fill-rule="nonzero">
            <g id="Apple_Pay_logo" transform="translate(185.000000, 3338.000000)">
                <path d="M20.6472327,5.93054234 C19.3228622,7.48430067 17.2038695,8.70980019 15.0848767,8.53472883 C14.8200027,6.4338725 15.8574262,4.20171265 17.0714324,2.82302569 C18.3958029,1.22549952 20.7134512,0.0875356803 22.5896427,0 C22.8103711,2.18839201 21.9495303,4.33301618 20.6472327,5.93054234 M22.5675699,8.95052331 C19.499445,8.77545195 16.8727769,10.679353 15.4159694,10.679353 C13.937089,10.679353 11.7077321,9.03805899 9.27971953,9.08182683 C6.12330325,9.12559467 3.18761538,10.8981922 1.57629797,13.7212179 C-1.7346282,19.3672693 0.715457169,27.7269267 3.91601913,32.32255 C5.48319085,34.5984776 7.35938235,37.0932445 9.83154056,37.0057088 C12.1712617,36.9181732 13.098321,35.4957184 15.9236447,35.4957184 C18.7710412,35.4957184 19.5877363,37.0057088 22.0598945,36.961941 C24.6203441,36.9181732 26.2316615,34.6860133 27.7988332,32.4100856 C29.5867334,29.8277831 30.3151371,27.3111323 30.3592828,27.1798287 C30.3151371,27.1360609 25.4149664,25.2759277 25.3708207,19.6736441 C25.326675,14.9904853 29.2335679,12.7583254 29.4101506,12.6270219 C27.2028665,9.38820171 23.7595033,9.03805899 22.5675699,8.95052331 M40.2920613,2.60418649 L40.2920613,36.7212179 L45.6336889,36.7212179 L45.6336889,25.0570885 L53.0280906,25.0570885 C59.78238,25.0570885 64.5280409,20.4614653 64.5280409,13.8087536 C64.5280409,7.15604186 59.8706714,2.60418649 53.2046734,2.60418649 L40.2920613,2.60418649 Z M45.6336889,7.06850618 L51.7920115,7.06850618 C56.4273082,7.06850618 59.0760491,9.51950523 59.0760491,13.8306375 C59.0760491,18.1417697 56.4273082,20.6146527 51.7699387,20.6146527 L45.6336889,20.6146527 L45.6336889,7.06850618 L45.6336889,7.06850618 Z M74.2842367,36.9838249 C77.6393085,36.9838249 80.7515791,35.2987631 82.1642409,32.6289248 L82.2746051,32.6289248 L82.2746051,36.7212179 L87.2189216,36.7212179 L87.2189216,19.7392959 C87.2189216,14.8154139 83.2458102,11.6422455 77.1316332,11.6422455 C71.458913,11.6422455 67.2650732,14.8591817 67.1105633,19.2797336 L71.9224427,19.2797336 C72.3197538,17.1788773 74.2842367,15.8001903 76.9771233,15.8001903 C80.2439038,15.8001903 82.0759496,17.3101808 82.0759496,20.0894386 L82.0759496,21.9714558 L75.4099516,22.3653663 C69.2074832,22.737393 65.8524113,25.2540438 65.8524113,29.6308278 C65.8524113,34.0513796 69.3178474,36.9838249 74.2842367,36.9838249 Z M75.7189713,32.9352997 C72.8715748,32.9352997 71.0616019,31.5784967 71.0616019,29.4995243 C71.0616019,27.3549001 72.8053563,26.1075167 76.1383553,25.9105614 L82.0759496,25.5385347 L82.0759496,27.4643197 C82.0759496,30.659372 79.3389173,32.9352997 75.7189713,32.9352997 Z M93.8187011,46 C99.0278916,46 101.477977,44.0304472 103.619043,38.056137 L113,11.9705043 L107.570081,11.9705043 L101.279321,32.1255947 L101.168957,32.1255947 L94.8781974,11.9705043 L89.2937686,11.9705043 L98.3436335,36.8087536 L97.858031,38.3187441 C97.0413359,40.8791627 95.7169654,41.8639391 93.3551714,41.8639391 C92.9357874,41.8639391 92.1190923,41.8201713 91.7879997,41.7764034 L91.7879997,45.8686965 C92.0970194,45.9562322 93.4213899,46 93.8187011,46 Z" id="XMLID_34_"></path>
            </g>
        </g>
    </g>
</svg>