<?xml version="1.0" encoding="UTF-8"?>
<svg width="152px" height="26px" viewBox="0 0 152 26" version="1.1" xmlns="http://www.w3.org/2000/svg" xmlns:xlink="http://www.w3.org/1999/xlink">
    <title>7D1BAEB0-005E-4334-8994-1F8E98FB03A6</title>
    <g id="Mercury-Labs" stroke="none" stroke-width="1" fill="none" fill-rule="evenodd">
        <g id="AICommerceAgencyWF_DT-Copy-32" transform="translate(-1013.000000, -2887.000000)" fill="#000000">
            <g id="Group" transform="translate(1013.000000, 2887.450000)">
                <path d="M36.783904,21 L38.4215996,16.7887826 L45.3339514,16.7887826 L46.9716471,21 L49.0347183,21 L43.207074,6.11185764 L40.654821,6.11185764 L34.8059079,21 L36.783904,21 Z M44.717157,15.1723557 L39.0596629,15.1723557 L41.8884099,7.87716595 L44.717157,15.1723557 Z M54.2663051,21.2764941 C55.9678071,21.2764941 57.1375897,20.4682806 57.6693091,18.9794664 L57.6267716,21 L59.6047676,21 L59.6047676,10.3868814 L57.6267716,10.3868814 L57.6267716,15.8529565 C57.6267716,18.3201344 56.6484079,19.6600672 54.9043684,19.6600672 C53.3730166,19.6600672 52.5009968,18.5753597 52.5009968,16.6186324 L52.5009968,10.3868814 L50.5230008,10.3868814 L50.5230008,16.8951265 C50.5230008,19.6175296 51.9480087,21.2764941 54.2663051,21.2764941 Z M67.5374889,25.3600988 C70.7916114,25.3600988 72.7696075,23.2970277 72.7696075,19.9152925 L72.7696075,10.3868814 L70.9192241,10.3868814 L70.9192241,12.4924901 C70.4087735,11.0887509 68.7923466,10.0678498 67.0908446,10.0678498 C64.0281411,10.0678498 61.9012636,12.407415 61.9012636,15.3850435 C61.9012636,18.5115533 64.1557537,20.6809684 67.0483071,20.6809684 C68.8136154,20.6809684 70.2811608,19.6600672 70.7916114,18.3414031 L70.7916114,20.149249 C70.7916114,22.4250079 69.5792913,23.7649407 67.4736826,23.7649407 C65.6232992,23.7649407 64.2833664,22.7440395 64.1770225,21.191419 L62.2202952,21.2552253 C62.3053703,23.7436719 64.410979,25.3600988 67.5374889,25.3600988 Z M67.3886075,19.0645415 C65.3255363,19.0645415 63.8792596,17.4693834 63.8792596,15.3850435 C63.8792596,13.2156284 65.3893426,11.7055454 67.3886075,11.7055454 C69.4729474,11.7055454 70.9192241,13.2794347 70.9192241,15.3850435 C70.9192241,17.5544585 69.4091411,19.0645415 67.3886075,19.0645415 Z M77.3205936,10.3868814 L75.3425975,10.3868814 L75.3425975,21 L77.3205936,21 L77.3205936,15.5339249 C77.3205936,13.066747 78.320226,11.7268142 80.1068031,11.7268142 C81.7019612,11.7268142 82.5952497,12.8115217 82.5952497,14.768249 L82.5952497,21 L84.5732458,21 L84.5732458,15.5339249 C84.5732458,13.066747 85.5303407,11.7268142 87.295649,11.7268142 C88.8270008,11.7268142 89.6990205,12.8115217 89.6990205,14.768249 L89.6990205,21 L91.6770166,21 L91.6770166,14.4917549 C91.6770166,11.7693517 90.2307399,10.1103873 87.9337122,10.1103873 C86.0407913,10.1103873 84.8072023,11.0887509 84.3818268,12.8965968 C83.9139138,11.1312885 82.6165185,10.1103873 80.7448663,10.1103873 C78.9656515,10.1103873 77.7370337,11.1329246 77.304815,12.913289 L77.2563071,13.129 L77.3205936,10.3868814 Z M99.0992873,21.3190316 C101.65154,21.3190316 103.629536,19.8089486 103.842224,17.7671462 L102.098185,17.6182648 C101.885497,18.9156601 100.60937,19.8089486 99.0992873,19.8089486 C97.14256,19.8089486 95.7813584,18.2350593 95.7600896,16.2145257 L104.033643,16.2145257 C104.076181,15.9805691 104.076181,15.7466126 104.076181,15.5551937 C104.076181,12.3223399 101.928034,10.0678498 99.0142122,10.0678498 C95.908971,10.0678498 93.7608248,12.4712213 93.7608248,15.6828063 C93.7608248,19.0007352 96.0153149,21.3190316 99.0992873,21.3190316 Z M102.140722,14.959668 L95.7600896,14.959668 C95.8451647,12.9391344 97.1850975,11.556664 98.9929434,11.556664 C100.843327,11.556664 102.140722,13.0454782 102.140722,14.959668 Z M108.244329,10.3868814 L106.266333,10.3868814 L106.266333,21 L108.244329,21 L108.244329,15.5339249 C108.244329,13.066747 109.243961,11.7268142 111.051807,11.7268142 C112.668234,11.7268142 113.582791,12.8115217 113.582791,14.768249 L113.582791,21 L115.560787,21 L115.560787,14.4917549 C115.560787,11.7693517 114.093242,10.1103873 111.711139,10.1103873 C109.908807,10.1103873 108.658705,11.155679 108.226721,12.9233981 L108.180307,13.129 L108.244329,10.3868814 Z M122.111038,21.1063439 C122.621489,21.1063439 123.089402,21.0212688 123.557315,20.8936561 L123.514777,19.2346917 C123.217014,19.3197668 122.897983,19.3835731 122.515145,19.3835731 C121.536781,19.3835731 120.962524,18.7242411 120.962524,17.5119209 L120.962524,11.9395019 L123.557315,11.9395019 L123.557315,10.3868814 L120.962524,10.3868814 L120.962524,7.8346284 L119.005797,7.8346284 L119.005797,10.3868814 L117.027801,10.3868814 L117.027801,11.9395019 L119.005797,11.9395019 L119.005797,17.6395336 C119.005797,19.95783 120.281924,21.1063439 122.111038,21.1063439 Z M126.747099,8.55776674 C127.555313,8.55776674 128.172107,7.94097227 128.172107,7.13275883 C128.172107,6.32454539 127.555313,5.70775092 126.747099,5.70775092 C125.938886,5.70775092 125.322091,6.32454539 125.322091,7.13275883 C125.322091,7.94097227 125.938886,8.55776674 126.747099,8.55776674 Z M127.725463,21 L127.725463,10.3868814 L125.747467,10.3868814 L125.747467,21 L127.725463,21 Z M135.700722,21 L139.975746,10.3868814 L137.955212,10.3868814 L134.701089,18.9794664 L131.446967,10.3868814 L129.383896,10.3868814 L133.637651,21 L135.700722,21 Z M145.909202,21.3190316 C148.461455,21.3190316 150.439451,19.8089486 150.652139,17.7671462 L148.908099,17.6182648 C148.695411,18.9156601 147.419285,19.8089486 145.909202,19.8089486 C143.952475,19.8089486 142.591273,18.2350593 142.570004,16.2145257 L150.843558,16.2145257 C150.886095,15.9805691 150.886095,15.7466126 150.886095,15.5551937 C150.886095,12.3223399 148.737949,10.0678498 145.824127,10.0678498 C142.718886,10.0678498 140.57074,12.4712213 140.57074,15.6828063 C140.57074,19.0007352 142.82523,21.3190316 145.909202,21.3190316 Z M148.950637,14.959668 L142.570004,14.959668 C142.655079,12.9391344 143.995012,11.556664 145.802858,11.556664 C147.653242,11.556664 148.950637,13.0454782 148.950637,14.959668 Z" id="Augmentive" fill-rule="nonzero"></path>
                <g id="Group-6-Copy-4" transform="translate(0.000000, 1.196281)">
                    <ellipse id="Oval-Copy-7" cx="6.65538798" cy="17.6767562" rx="6.65258638" ry="6.58545821"></ellipse>
                    <path d="M24.6019656,12.0015055 L24.6019656,24.3537186 L15.2889833,24.3537186 L15.2888498,10.9612684 C15.2888311,10.01318 14.5202487,9.24460873 13.5721603,9.24460376 L0,9.24466557 L0,9.24466557 L0,0 L12.8363568,0 L24.6019656,12.0015055 Z" id="Path-19" fill-rule="nonzero"></path>
                </g>
            </g>
        </g>
    </g>
</svg>