<svg width="79" height="69" viewBox="0 0 79 69" fill="none" xmlns="http://www.w3.org/2000/svg">
<g clip-path="url(#clip0_58_6463)">
<path fill-rule="evenodd" clip-rule="evenodd" d="M8.45549 41.248C7.81973 41.7725 5.83274 41.8276 2.49452 41.4133L2.49453 41.4133C2.21477 41.3784 1.96936 41.2099 1.83631 40.9614C0.821745 39.0661 0.314453 37.6782 0.314453 36.7976C0.314453 35.3865 2.70249 30.2848 4.00506 26.8113C5.30762 23.3378 5.74181 18.236 7.69566 15.848C9.64951 13.46 12.7974 7.27278 16.7051 4.7762C20.6128 2.27961 25.9316 0.217217 27.994 0.217217C30.0564 0.217217 37.4376 1.95397 40.3683 1.95397C43.2991 1.95397 47.2068 -0.434066 50.5718 0.217217C53.9367 0.8685 57.7359 2.60525 61.1008 3.25654C64.4658 3.90782 65.6598 2.82235 66.7453 3.79927C67.8308 4.7762 71.5214 8.90099 72.1727 10.095C72.8239 11.289 71.847 11.5061 73.2581 13.0258C74.6692 14.5454 77.4915 16.1736 76.6231 17.3677C75.7547 18.5617 74.5607 19.9728 72.1727 19.7557C69.7846 19.5386 69.2419 18.4531 63.1632 18.4531C57.0846 18.4531 53.6111 18.7788 53.2855 20.9497C52.9598 23.1207 54.6966 29.1993 55.9991 30.719C57.3017 32.2386 61.3179 33.3241 60.341 36.472C59.3641 39.6198 58.4957 40.5968 57.0846 40.4882C55.6735 40.3797 57.1931 39.1856 55.9991 38.3173C54.8051 37.4489 52.2 37.2318 50.7889 35.3865C49.3778 33.5412 48.7265 30.8275 47.9666 30.5019C47.2068 30.1762 45.4701 28.7651 45.4701 30.719C45.4701 32.6728 44.7102 37.666 44.7102 38.86C44.7102 40.054 47.9666 40.054 46.5555 41.3566C45.1444 42.6591 42.2136 41.6822 41.4538 41.3566C40.694 41.0309 39.1743 39.1856 38.9572 36.2549C38.7401 33.3241 39.6085 24.5318 39.6085 23.4463C39.6085 22.3608 38.8487 21.7096 38.0889 22.3608C37.329 23.0121 31.0333 27.5711 31.0333 30.5019C31.0333 33.4326 31.0333 38.2087 31.7931 38.86C32.553 39.5113 35.5923 40.2711 35.0495 41.3566C34.5068 42.4421 26.0401 41.8993 25.7145 41.3566C25.3888 40.8138 22.4581 28.8737 22.1324 26.5942C21.9153 25.0745 21.7706 23.8805 21.6982 23.0121C13.5934 30.0315 9.17914 33.903 8.45549 34.6267C7.37002 35.7121 6.06745 36.3634 6.39309 37.7745C6.71873 39.1856 9.45061 40.4271 8.45549 41.248Z" fill="#29265E"/>
<path d="M7.23461 52.7595C8.43948 52.4501 9.07448 51.522 9.07448 50.3497C9.07448 48.5587 7.95102 47.2724 5.54128 47.2724H1.32422V58.8327H5.68781C8.09756 58.8327 9.28615 57.4813 9.28615 55.56C9.28615 54.0457 8.55346 53.0525 7.23461 52.7595ZM4.98768 49.0146C6.01345 49.0146 6.45307 49.617 6.45307 50.5125C6.45307 51.4895 6.04602 52.1082 5.00397 52.1082H3.84794V49.0146H4.98768ZM5.11794 57.0905H3.84794V53.7364H5.13422C6.15999 53.7364 6.64846 54.3388 6.64846 55.4297C6.64846 56.4392 6.19256 57.0905 5.11794 57.0905Z" fill="#29265E"/>
<path d="M11.0176 58.8327H17.335V56.716H13.5413V47.2724H11.0176V58.8327Z" fill="#29265E"/>
<path d="M18.4961 47.2724V55.3972C18.4961 57.6766 20.0103 59.1095 22.6155 59.1095C25.2369 59.1095 26.7348 57.6766 26.7348 55.3972V47.2724H24.2274V55.2832C24.2274 56.3741 23.6249 57.0254 22.6155 57.0254C21.606 57.0254 21.0198 56.3741 21.0198 55.2832V47.2724H18.4961Z" fill="#29265E"/>
<path d="M31.429 56.9277V53.8504H35.2878V51.9616H31.429V49.1774H35.5321V47.2724H28.9053V58.8327H35.6461V56.9277H31.429Z" fill="#29265E"/>
<path d="M47.0559 52.7595C48.2608 52.4501 48.8958 51.522 48.8958 50.3497C48.8958 48.5587 47.7723 47.2724 45.3626 47.2724H41.1455V58.8327H45.5091C47.9188 58.8327 49.1074 57.4813 49.1074 55.56C49.1074 54.0457 48.3747 53.0525 47.0559 52.7595ZM44.809 49.0146C45.8347 49.0146 46.2744 49.617 46.2744 50.5125C46.2744 51.4895 45.8673 52.1082 44.8253 52.1082H43.6692V49.0146H44.809ZM44.9392 57.0905H43.6692V53.7364H44.9555C45.9813 53.7364 46.4697 54.3388 46.4697 55.4297C46.4697 56.4392 46.0138 57.0905 44.9392 57.0905Z" fill="#29265E"/>
<path d="M53.3616 56.9277V53.8504H57.2205V51.9616H53.3616V49.1774H57.4647V47.2724H50.8379V58.8327H57.5787V56.9277H53.3616Z" fill="#29265E"/>
<path d="M65.7575 58.8327H68.2975L65.0574 47.2724H61.98L58.7236 58.8327H61.2636L61.9149 56.1461H65.1062L65.7575 58.8327ZM62.3545 54.3388L63.1686 50.9359C63.2989 50.3986 63.4129 49.9427 63.4943 49.2751H63.5268C63.6245 49.9427 63.7385 50.3986 63.8525 50.9359L64.6666 54.3388H62.3545Z" fill="#29265E"/>
<path d="M75.3051 58.8327H78.0079L75.9238 53.8015C77.1124 53.3293 77.78 52.2547 77.78 50.7405C77.78 48.6075 76.6077 47.2724 73.9211 47.2724H69.8018V58.8327H72.3255V54.2574H73.5955L75.3051 58.8327ZM72.3255 52.6129V49.0146H73.5466C74.6701 49.0146 75.126 49.6007 75.126 50.7405C75.126 51.9128 74.6538 52.6129 73.5466 52.6129H72.3255Z" fill="#29265E"/>
<path d="M3.56047 68.0871C4.81354 68.0871 5.53646 67.3481 5.53646 66.312C5.53646 65.4605 5.19106 64.9545 4.33962 64.6653L3.52031 64.3922C3.07049 64.2396 2.86164 63.9906 2.86164 63.6452C2.86164 63.2837 3.12672 63.0427 3.5444 63.0427C4.03439 63.0427 4.41191 63.356 4.57256 64.0629L5.58466 63.5568C5.35171 62.5287 4.62076 62.111 3.5926 62.111C2.46805 62.111 1.67284 62.7295 1.67284 63.7737C1.67284 64.5769 2.05036 65.1633 2.86164 65.4203L3.68096 65.6774C4.15487 65.822 4.30749 66.0469 4.30749 66.4324C4.30749 66.826 4.05045 67.0911 3.60866 67.0911C3.03033 67.0911 2.70099 66.7377 2.51625 65.9907L1.42383 66.4726C1.6889 67.5088 2.40379 68.0871 3.56047 68.0871Z" fill="#878888"/>
<path d="M9.94425 67.0108V65.4927H11.848V64.5609H9.94425V63.1874H11.9684V62.2476H8.69922V67.9506H12.0247V67.0108H9.94425Z" fill="#878888"/>
<path d="M15.2852 67.9506H18.4018V66.9064H16.5302V62.2476H15.2852V67.9506Z" fill="#878888"/>
<path d="M24.7936 63.2034V62.2476H21.5244V67.9506H22.7694V65.5328H24.6651V64.593H22.7694V63.2034H24.7936Z" fill="#878888"/>
<path d="M33.3456 68.0871C34.5987 68.0871 35.3216 67.3481 35.3216 66.312C35.3216 65.4605 34.9762 64.9545 34.1248 64.6653L33.3055 64.3922C32.8556 64.2396 32.6468 63.9906 32.6468 63.6452C32.6468 63.2837 32.9119 63.0427 33.3296 63.0427C33.8195 63.0427 34.1971 63.356 34.3577 64.0629L35.3698 63.5568C35.1369 62.5287 34.4059 62.111 33.3778 62.111C32.2532 62.111 31.458 62.7295 31.458 63.7737C31.458 64.5769 31.8355 65.1633 32.6468 65.4203L33.4661 65.6774C33.94 65.822 34.0926 66.0469 34.0926 66.4324C34.0926 66.826 33.8356 67.0911 33.3938 67.0911C32.8155 67.0911 32.4861 66.7377 32.3014 65.9907L31.209 66.4726C31.4741 67.5088 32.1889 68.0871 33.3456 68.0871Z" fill="#878888"/>
<path d="M42.0029 62.2476H38.0107V63.2677H39.3843V67.9506H40.6293V63.2677H42.0029V62.2476Z" fill="#878888"/>
<path d="M46.8367 68.0872C48.2504 68.0872 49.1018 67.2277 49.1018 65.0991C49.1018 62.9624 48.2504 62.103 46.8367 62.103C45.4149 62.103 44.5635 62.9624 44.5635 65.0991C44.5635 67.2277 45.4149 68.0872 46.8367 68.0872ZM46.8367 67.1072C46.2101 67.1072 45.8487 66.6413 45.8487 65.0991C45.8487 63.5408 46.2101 63.091 46.8367 63.091C47.4552 63.091 47.8086 63.5408 47.8086 65.0991C47.8086 66.6413 47.4552 67.1072 46.8367 67.1072Z" fill="#878888"/>
<path d="M55.0451 67.9506H56.3785L55.3503 65.4686C55.9367 65.2356 56.266 64.7055 56.266 63.9585C56.266 62.9062 55.6877 62.2476 54.3623 62.2476H52.3301V67.9506H53.5751V65.6935H54.2016L55.0451 67.9506ZM53.5751 64.8822V63.107H54.1775C54.7318 63.107 54.9567 63.3962 54.9567 63.9585C54.9567 64.5368 54.7238 64.8822 54.1775 64.8822H53.5751Z" fill="#878888"/>
<path d="M62.6907 67.9506H63.9438L62.3453 62.2476H60.8272L59.2207 67.9506H60.4738L60.7951 66.6253H62.3694L62.6907 67.9506ZM61.0119 65.7337L61.4136 64.0549C61.4778 63.7898 61.5341 63.5649 61.5742 63.2356H61.5903C61.6385 63.5649 61.6947 63.7898 61.7509 64.0549L62.1526 65.7337H61.0119Z" fill="#878888"/>
<path d="M68.5517 68.0871C69.2827 68.0871 69.7727 67.7016 69.9735 67.075L70.0217 67.9506H70.9293V64.7858H68.7606V65.7175H69.7405V65.8621C69.7405 66.6413 69.4594 67.1232 68.873 67.1232C68.1983 67.1232 67.885 66.6172 67.885 65.0428C67.885 63.5488 68.2144 63.0508 68.8489 63.0508C69.3951 63.0508 69.6361 63.4283 69.6923 64.1351L70.9213 63.9022C70.841 62.7696 70.1341 62.111 68.865 62.111C67.4272 62.111 66.5918 63.0186 66.5918 65.0428C66.5918 67.1554 67.2906 68.0871 68.5517 68.0871Z" fill="#878888"/>
<path d="M75.5546 67.0108V65.4927H77.4583V64.5609H75.5546V63.1874H77.5788V62.2476H74.3096V67.9506H77.635V67.0108H75.5546Z" fill="#878888"/>
</g>
<defs>
<clipPath id="clip0_58_6463">
<rect width="77.7197" height="68.1676" fill="white" transform="translate(0.313477)"/>
</clipPath>
</defs>
</svg>
