<?xml version="1.0" encoding="UTF-8"?>
<svg width="68px" height="62px" viewBox="0 0 68 62" version="1.1" xmlns="http://www.w3.org/2000/svg" xmlns:xlink="http://www.w3.org/1999/xlink">
    <title>796BE611-892F-4F9F-8200-6821857E036D</title>
    <g id="Product-Marketing" stroke="none" stroke-width="1" fill="none" fill-rule="evenodd">
        <g id="AICommerceAgencyWF_DT-Copy-24" transform="translate(-625.000000, -1038.000000)" fill="#2C479E">
            <g id="Group-2" transform="translate(77.000000, 997.000000)">
                <g id="dash-water-logo" transform="translate(548.000000, 41.000000)">
                    <path d="M5.40087555,5.42178249 L5.40087555,21.5931153 L8.08005003,21.5931153 C13.9061914,21.5931153 16.9681051,18.6333754 16.9681051,13.4860015 C16.9681051,8.33862767 13.9061914,5.37888771 8.08005003,5.37888771 L5.40087555,5.37888771 L5.40087555,5.42178249 Z M22.3689806,13.4860015 C22.3689806,21.7217997 17.1382114,26.5260153 8.20762977,26.5260153 L0,26.5260153 L0,0.488882555 L8.25015635,0.488882555 C17.0531582,0.488882555 22.3689806,5.25020336 22.3689806,13.4860015 Z" id="Fill-1"></path>
                    <g id="Group-5" transform="translate(31.516245, 0.000000)">
                        <path d="M9.27079425,18.2731771 L15.8198874,18.2731771 L12.5453408,10.4663268 L9.27079425,18.2731771 Z M25.0906817,26.5518701 L19.1794872,26.5518701 L17.478424,22.5197606 L7.56973108,22.5197606 L5.86866792,26.5518701 L0,26.5518701 L12.4602877,0 L12.630394,0 L25.0906817,26.5518701 Z" id="Fill-3"></path>
                    </g>
                    <path d="M19.0519074,37.7644481 L16.2876798,42.2255055 C14.7141964,40.938662 12.7154472,39.952082 9.99374609,39.952082 C7.69731082,39.952082 6.29393371,40.8957672 6.29393371,42.7831376 C6.29393371,44.284455 7.27204503,45.0136663 11.1419637,45.7428776 C17.8186366,47.1584054 19.9449656,49.603408 19.9449656,53.6355175 C19.9449656,58.654207 16.2451532,62 10.1638524,62 C6.20888055,62 2.72170106,60.7560513 0.127579737,58.5255227 L3.0619137,54.0215705 C4.80550344,55.8660462 7.69731082,57.0671001 10.3339587,57.0671001 C13.0556598,57.0671001 14.5866166,56.0376253 14.5866166,54.1073601 C14.5866166,52.563148 13.438399,51.7481471 9.5684803,50.976041 C2.89180738,49.5605132 0.893058161,46.8581419 0.893058161,43.0405063 C0.893058161,38.3649751 4.46529081,35.0191821 9.99374609,35.0191821 C13.6935585,35.0191821 16.8830519,36.0915516 19.0519074,37.7644481" id="Fill-6"></path>
                    <polygon id="Fill-8" points="54.7317073 61.5710522 49.3733583 61.5710522 49.3733583 50.6757775 38.8692933 50.6757775 38.8692933 61.5710522 33.5109443 61.5710522 33.5109443 35.4910247 38.8692933 35.4910247 38.8692933 45.7428776 49.3733583 45.7428776 49.3733583 35.4910247 54.7317073 35.4910247"></polygon>
                    <polygon id="Fill-10" points="58.6441526 14.9015293 68 14.9015293 68 10.6978407 58.6441526 10.6978407"></polygon>
                </g>
            </g>
        </g>
    </g>
</svg>