<svg width="153" height="34" viewBox="0 0 153 34" fill="none" xmlns="http://www.w3.org/2000/svg">
<path d="M26.5136 8.06211V14.1629H26.5854C26.5854 10.1006 28.7751 7.71644 32.4354 7.71644C36.4183 7.71644 38.7515 10.3506 38.7515 14.8566V25.4626H34.0148V15.0641C34.0148 12.707 32.7225 11.3212 30.4965 11.3212C27.9858 11.3212 26.5136 13.0881 26.5136 16.0348V25.4626H21.7769V8.06211H26.5136ZM41.8378 16.7199C41.8378 11.0666 44.3902 7.71644 48.7558 7.71644C52.6314 7.71644 54.9476 10.0898 54.9476 14.068H55.0171V8.06596H59.584V25.7852C59.584 30.9153 56.3318 33.9499 50.8668 33.9499C46.1617 33.9499 42.9805 31.6128 42.3571 27.6693L46.681 27.0073C46.9572 29.0659 48.549 30.2865 50.8668 30.2865C53.4616 30.2865 55.0171 28.7171 55.0171 26.066V19.3718H54.9476C54.9476 23.3485 52.6314 25.7219 48.7558 25.7219C44.4025 25.7219 41.8378 22.3717 41.8378 16.7199ZM50.8668 22.0585C53.9793 22.0585 55.2601 19.476 55.2601 16.7199C55.2601 13.994 53.9793 11.3467 50.8668 11.3467C48.0999 11.3467 46.4742 13.3698 46.4742 16.7199C46.4742 20.0701 48.0999 22.0585 50.8668 22.0585ZM77.4444 8.06211V14.1629H77.5162C77.5162 10.1006 79.7036 7.71644 83.3624 7.71644C87.3445 7.71644 89.6754 10.3506 89.6754 14.8566V25.4626H84.9333V15.0641C84.9333 12.707 83.6425 11.3212 81.418 11.3212C78.9065 11.3212 77.4367 13.0881 77.4367 16.0348V25.4626H72.7008V8.06211H77.4444ZM97.378 7.71644V18.1149C97.378 20.4721 98.6025 21.8231 100.668 21.8231C102.978 21.8231 104.345 20.0902 104.345 17.1103V7.71644H108.965V25.117H104.345V18.9814H104.276C104.276 23.0438 102.247 25.4626 98.7815 25.4626C95.0008 25.4626 92.7617 22.7938 92.7617 18.3225V7.71644H97.378ZM117.946 7.71181V25.4626H113.099V7.71181H117.946ZM114.472 0.205944C114.964 0.00527574 115.503 -0.0501374 116.026 0.046275C116.548 0.142687 117.032 0.386881 117.42 0.749904C117.798 1.10316 118.058 1.56374 118.166 2.06961C118.274 2.57549 118.225 3.10236 118.025 3.57926C117.613 4.55376 116.633 5.1934 115.54 5.20034C114.829 5.20743 114.143 4.93924 113.626 4.45191C113.375 4.21648 113.175 3.93286 113.037 3.61809C112.899 3.30331 112.826 2.96389 112.823 2.6202C112.815 1.56777 113.465 0.61565 114.471 0.206716L114.472 0.205944ZM147.229 7.67169L143.229 24.85H143.159L139.16 7.67169H123.48V7.60225C126.293 7.07835 127.967 5.51051 127.967 3.28144V0.772279H123.344V7.67169H120.538V10.8475H123.064V19.8718C123.064 23.4257 125.273 25.5151 129.027 25.5151C130.343 25.5133 131.644 25.2407 132.85 24.7142V21.2961C132.122 21.6673 131.316 21.8581 130.499 21.8524C128.746 21.8524 127.693 20.9119 127.693 19.2816V10.8429H135.048L138.81 25.1633H142.632L140.494 33.1784H145.439L152.173 7.67169H147.229ZM68.5651 7.60379V25.4626H63.7181V7.60379H68.5651ZM65.0915 0.206716C65.5835 0.00500716 66.1231 -0.0505975 66.6459 0.0465627C67.1686 0.143723 67.6523 0.389528 68.0389 0.754533C68.4173 1.11128 68.6779 1.57492 68.786 2.08362C68.8941 2.59231 68.8445 3.12186 68.6438 3.60164C68.2326 4.58154 67.2527 5.22503 66.1594 5.23197C65.4476 5.23928 64.7608 4.96951 64.2443 4.47969C63.9935 4.24202 63.7932 3.95622 63.6553 3.63938C63.5174 3.32254 63.4449 2.98115 63.4419 2.63563C63.4342 1.57626 64.0854 0.617965 65.0915 0.205944V0.206716ZM4.86248 14.9438V21.6889H17.919V25.4626H0.172853C0.171961 23.4783 0.589109 21.516 1.39712 19.7036C2.20514 17.8912 3.38589 16.2694 4.86248 14.9438ZM17.5487 0.772279V4.54527H4.86248V14.9438H0.172853V0.772279H17.5487ZM4.86248 14.9438C6.36238 13.5899 8.13172 12.5685 10.0543 11.9469C11.9769 11.3252 14.0092 11.1172 16.0179 11.3367V14.9438H4.86248Z" fill="#3C3AFF"/>
</svg>
