<?xml version="1.0" encoding="UTF-8"?>
<svg width="162px" height="25px" viewBox="0 0 162 25" version="1.1" xmlns="http://www.w3.org/2000/svg" xmlns:xlink="http://www.w3.org/1999/xlink">
    <title>62C76DFE-835F-4243-B84F-C40A1B3B26B1</title>
    <g id="Mercury-Labs" stroke="none" stroke-width="1" fill="none" fill-rule="evenodd">
        <g id="AICommerceAgencyWF_DT-Copy-28" transform="translate(-1005.000000, -2966.000000)" fill-rule="nonzero">
            <g id="Group" transform="translate(1005.000000, 2966.000000)">
                <g id="Fill-10-Clipped" transform="translate(34.714286, 3.195489)" fill="#000000">
                    <path d="M9.37658572,3.7358846 L10.724006,1.19786859 C10.724006,1.19786859 9.54517047,0 7.38334303,0 C4.6885025,0 2.3580903,1.85388481 2.3580903,4.73396643 L2.3580903,5.84621212 L0,5.84621212 L0,8.84003162 L2.3580903,8.84003162 L2.3580903,20.1047673 L5.89501612,20.1047673 L5.89501612,8.84003162 L9.93769628,8.84003162 L9.93769628,5.84621212 L5.89501612,5.84621212 L5.89501612,4.96229415 C5.89501612,3.99275329 6.73752069,3.19403224 7.74819073,3.19403224 C8.59027602,3.19403224 9.37658572,3.7358846 9.37658572,3.7358846 L9.37658572,3.7358846 Z M18.0792515,20.2470462 C21.8698933,20.2470462 25.2948486,17.4807025 25.2948486,12.9469487 C25.2948486,8.46942505 21.9818638,5.70350729 18.1920608,5.70350729 C14.4299359,5.70350729 10.9487857,8.44131008 10.9487857,13.0036047 C10.9487857,17.4807025 14.2613511,20.2470462 18.0792515,20.2470462 L18.0792515,20.2470462 Z M18.1920608,16.939276 C16.0579115,16.939276 14.6266181,15.1999811 14.6266181,12.9754898 C14.6266181,10.7509983 16.0579115,9.01127742 18.1920608,9.01127742 C20.3253713,9.01127742 21.6170161,10.7509983 21.6170161,12.9754898 C21.6170161,15.1999811 20.3253713,16.939276 18.1920608,16.939276 L18.1920608,16.939276 Z M36.07463,5.70350729 C33.7727347,5.70350729 32.3967976,6.78721203 31.7790727,7.41426131 L31.330352,7.41426131 L30.8245976,5.84621212 L27.9615916,5.84621212 L27.9615916,20.1047673 L31.6951997,20.1047673 L31.6951997,12.8898668 C31.6951997,10.2662279 33.7446372,9.23960516 35.7097823,9.23960516 C36.1874393,9.23960516 36.6642574,9.29626105 36.9448128,9.35376902 L36.9448128,5.70350729 L36.07463,5.70350729 Z M45.0582706,5.70350729 C41.3531794,5.70350729 38.068292,8.44131008 38.068292,12.8608998 C38.068292,17.3098826 41.3808575,20.2470462 45.1706604,20.2470462 C47.9221152,20.2470462 50.4768879,18.678997 51.5433335,15.8270304 L48.0059883,15.8270304 C48.0059883,15.8270304 47.1920005,17.024899 45.2830503,17.024899 C43.7670453,17.024899 42.0262605,16.2261779 41.6056372,14.0591944 L51.8524052,14.0591944 C52.3011264,8.2419493 48.65223,5.70350729 45.0582706,5.70350729 L45.0582706,5.70350729 Z M45.1706604,8.81191665 C46.5742756,8.81191665 47.725433,9.49647381 48.1464757,11.1782609 L41.8299975,11.1782609 C42.3911082,9.69583459 43.6269773,8.81191665 45.1706604,8.81191665 L45.1706604,8.81191665 Z M65.439837,16.0268171 C65.439837,13.0896536 62.8288693,12.3480144 60.695559,11.7771952 C59.3196217,11.4065886 58.0002985,10.9507851 58.0002985,9.63875265 C58.0002985,8.46942505 59.0105499,7.7282119 60.3021944,7.7282119 C61.7901016,7.7282119 62.8850642,8.69775278 62.8850642,9.75291652 L65.1588623,9.75291652 C65.1588623,7.78486788 63.4465945,5.70350729 60.3021944,5.70350729 C57.7197438,5.70350729 55.6698863,7.12927759 55.6698863,9.66771961 C55.6698863,12.5188343 58.2812732,13.2890144 60.1898045,13.8023258 C61.7339067,14.2300143 63.1094248,14.6866697 63.1094248,16.140981 C63.1094248,17.5382104 61.8743945,18.1938006 60.5550712,18.1938006 C59.0105499,18.1938006 57.523061,17.2813417 57.523061,15.5135057 L55.249263,15.5135057 C55.249263,18.1081777 57.3548962,20.2470462 60.5827499,20.2470462 C63.3346238,20.2470462 65.439837,18.678997 65.439837,16.0268171 L65.439837,16.0268171 Z M75.1531728,17.5948663 C74.9011344,17.7946531 74.5916425,17.9944398 74.0305323,17.9944398 C73.0760575,17.9944398 72.2335525,17.3955056 72.2335525,15.5705877 L72.2335525,7.92799863 L75.6023132,7.92799863 L75.6023132,5.84621212 L72.2058746,5.84621212 L72.2058746,1.56890114 L70.1283393,1.56890114 L70.1283393,4.13503214 C70.1283393,5.30435975 69.3420301,6.10308081 68.2470674,6.10308081 L67.3768846,6.10308081 L67.3768846,7.95611368 L69.8192675,7.95611368 L69.8192675,15.7984895 C69.8192675,18.3935874 71.3075939,20.2470462 73.7491384,20.2470462 C75.0412021,20.2470462 75.7989951,19.7051938 76.2204567,19.3345872 L75.1531728,17.5948663 Z M85.2598732,5.70350729 C83.1261429,5.70350729 81.9754054,6.81575295 81.441973,7.44322827 L81.0486084,7.44322827 L80.571371,5.84621212 L78.942976,5.84621212 L78.942976,20.1047673 L81.4138751,20.1047673 L81.4138751,11.6919983 C81.4138751,9.06878531 83.1827579,8.04173654 84.9793177,8.04173654 C85.343746,8.04173654 85.8495005,8.09881847 86.130056,8.15590041 L86.130056,5.70350729 L85.2598732,5.70350729 Z M94.4678737,5.70350729 C90.9590461,5.70350729 87.814646,8.44131008 87.814646,12.8608998 C87.814646,17.3098826 90.9590461,20.2470462 94.4955524,20.2470462 C97.0511635,20.2470462 99.4650293,18.707112 100.531894,16.1120141 L97.9494434,16.1120141 C97.2751041,17.2242598 96.0966887,17.9369319 94.4955524,17.9369319 C92.0816866,17.9369319 90.4532916,16.2836858 90.228931,13.63108 L100.840967,13.63108 C101.121521,8.2419493 97.8370535,5.70350729 94.4678737,5.70350729 L94.4678737,5.70350729 Z M94.4397766,7.81383484 C96.545409,7.81383484 97.9494434,9.35376902 98.2861939,11.5497194 L90.3409017,11.5497194 C90.7900412,9.26814608 92.3622413,7.81383484 94.4397766,7.81383484 L94.4397766,7.81383484 Z M110.301425,5.70350729 C106.791758,5.70350729 103.647358,8.44131008 103.647358,12.8608998 C103.647358,17.3098826 106.791758,20.2470462 110.329942,20.2470462 C112.884295,20.2470462 115.29858,18.707112 116.365445,16.1120141 L113.782575,16.1120141 C113.108655,17.2242598 111.92982,17.9369319 110.329942,17.9369319 C107.915238,17.9369319 106.286843,16.2836858 106.062063,13.63108 L116.674518,13.63108 C116.955073,8.2419493 113.670605,5.70350729 110.301425,5.70350729 L110.301425,5.70350729 Z M110.273328,7.81383484 C112.37896,7.81383484 113.782575,9.35376902 114.119745,11.5497194 L106.174453,11.5497194 C106.623592,9.26814608 108.195792,7.81383484 110.273328,7.81383484 L110.273328,7.81383484 Z M126.219269,17.5948663 C125.966391,17.7946531 125.657739,17.9944398 125.095789,17.9944398 C124.141314,17.9944398 123.299648,17.3955056 123.299648,15.5705877 L123.299648,7.92799863 L126.667989,7.92799863 L126.667989,5.84621212 L123.271551,5.84621212 L123.271551,1.56890114 L121.193597,1.56890114 L121.193597,4.13503214 C121.193597,5.30435975 120.407706,6.10308081 119.312743,6.10308081 L118.442981,6.10308081 L118.442981,7.95611368 L120.884943,7.95611368 L120.884943,15.7984895 C120.884943,18.3935874 122.372851,20.2470462 124.815234,20.2470462 C126.106879,20.2470462 126.864672,19.7051938 127.285714,19.3345872 L126.219269,17.5948663 Z" id="Fill-10"></path>
                </g>
                <path d="M22.0628571,3.43611216 C22.0628571,1.5872854 20.6688161,0.083873604 18.9227176,0.00721493367 L18.9227176,0 L3.14486906,0 L3.14486906,0.00781617815 C1.39640582,0.0817692483 0,1.58638354 0,3.43611216 C0,5.28644203 1.39640582,6.79105632 3.14486906,6.86500939 L3.14486906,6.87432868 L18.9227176,6.87432868 L18.9227176,6.86440815 C20.6688161,6.78774947 22.0628571,5.28433767 22.0628571,3.43611216" id="Fill-1" fill="#337CFF"></path>
                <path d="M2.97,24.9194415 C1.32986996,24.9194415 0,23.5728139 0,21.9119227 C0,20.2510314 1.32986996,18.9044039 2.97,18.9044039 C4.61038751,18.9044039 5.94,20.2510314 5.94,21.9119227 C5.94,23.5728139 4.61038751,24.9194415 2.97,24.9194415 Z" id="Fill-3" fill="#337CFF"></path>
                <path d="M11.0563259,16.3265306 C12.9170111,16.3265306 14.4257143,14.7874629 14.4257143,12.8892217 C14.4257143,10.9912696 12.9170111,9.45220193 11.0563259,9.45220193 L3.36938837,9.45220193 C1.50870316,9.45220193 0,10.9912696 0,12.8892217 C0,14.7874629 1.50870316,16.3265306 3.36938837,16.3265306 L11.0563259,16.3265306 Z" id="Fill-5" fill="#337CFF"></path>
            </g>
        </g>
    </g>
</svg>