<?xml version="1.0" encoding="UTF-8"?>
<svg width="70px" height="73px" viewBox="0 0 70 73" version="1.1" xmlns="http://www.w3.org/2000/svg" xmlns:xlink="http://www.w3.org/1999/xlink">
    <title>4B55D4DC-5A6C-4AAD-843D-5B9F6178492C</title>
    <g id="Mercury-Labs" stroke="none" stroke-width="1" fill="none" fill-rule="evenodd">
        <g id="AICommerceAgencyWF_DT-Copy-28" transform="translate(-467.000000, -3070.000000)" fill-rule="nonzero">
            <g id="5caf37c0d784468965e1de08_frst-logo-main" transform="translate(467.000000, 3070.000000)">
                <g id="Group" transform="translate(10.197878, 26.540000)" fill="#000000">
                    <path d="M23.3266418,18.3 L29.0980786,18.3 L29.0980786,19.93 L15.9191282,19.93 L15.9191282,18.3 L21.690565,18.3 L21.690565,13.02 C21.690565,12.95 21.690565,12.88 21.690565,12.81 L21.690565,7.73 L15.9191282,7.73 L15.9191282,6.1 L23.3366791,6.1 L23.3366791,8.55 C24.6515629,6.99 26.5486091,6.1 28.6363636,6.1 L29.1081159,6.1 L29.1081159,7.73 L28.6363636,7.73 C25.7556639,7.73 23.4270146,9.97 23.3366791,12.84 L23.3366791,18.3 L23.3266418,18.3 Z" id="Path"></path>
                    <path d="M5.8617723,6.1 L0,6.1 L0,7.73 L5.77143677,7.73 L5.77143677,19.93 L7.40751362,19.93 L7.40751362,7.73 L13.1789504,7.73 L13.1789504,6.1 L7.49784915,6.1 C7.89934041,3.58 10.1577287,1.63 12.73731,1.63 L13.2090622,1.63 L13.2090622,0 L12.73731,0 C9.26441067,0 6.27330083,2.67 5.8617723,6.1 Z" id="Path"></path>
                    <path d="M41.4037855,12.18 L36.2546602,12.18 C35.0200746,12.18 34.0063091,11.18 34.0063091,9.94 C34.0063091,8.71 35.0100373,7.7 36.2446229,7.7 L43.4815027,7.71 L43.4815027,6.08 L36.2446229,6.07 C34.106682,6.07 32.360195,7.8 32.360195,9.94 C32.360195,12.07 34.0966447,13.81 36.2446229,13.81 L41.4037855,13.81 C42.6383711,13.81 43.6521365,14.81 43.6521365,16.05 C43.6521365,17.28 42.6484084,18.29 41.4037855,18.29 L32.2196731,18.29 L32.2196731,19.92 L41.4037855,19.92 C43.5417264,19.92 45.2882134,18.19 45.2882134,16.05 C45.2781761,13.91 43.5417264,12.18 41.4037855,12.18 Z" id="Path"></path>
                    <path d="M59.3404072,18.3 C56.4195584,18.3 54.0407227,15.93 54.0407227,13.02 L54.0407227,7.73 L59.7720103,7.73 L59.7720103,6.1 L54.0306854,6.1 L54.0306854,0.98 L52.3946085,0.98 L52.3946085,6.1 L46.5830227,6.1 L46.5830227,7.73 L52.3946085,7.73 L52.3946085,13.02 C52.3946085,16.83 55.5061658,19.93 59.3303699,19.93 L59.8021222,19.93 L59.8021222,18.3 L59.3404072,18.3 Z" id="Path"></path>
                </g>
                <path d="M36.6360769,1.46 L36.9472326,1.46 L36.9472326,0 L36.6360769,0 C16.4310295,0 0,16.37 0,36.5 C0,56.63 16.4310295,73 36.6360769,73 L36.9472326,73 L36.9472326,71.54 L36.6360769,71.54 C17.2440493,71.54 1.46544307,55.83 1.46544307,36.5 C1.46544307,17.17 17.2440493,1.46 36.6360769,1.46 Z" id="Path" fill="#F49589"></path>
            </g>
        </g>
    </g>
</svg>