<?xml version="1.0" encoding="UTF-8"?>
<svg width="212px" height="33px" viewBox="0 0 212 33" version="1.1" xmlns="http://www.w3.org/2000/svg" xmlns:xlink="http://www.w3.org/1999/xlink">
    <title>966BB4C4-61B3-4450-8DC6-D0A4EA3FBA4D</title>
    <g id="Product-Marketing" stroke="none" stroke-width="1" fill="none" fill-rule="evenodd">
        <g id="AICommerceAgencyWF_DT-Copy-24" transform="translate(-155.000000, -1225.000000)" fill="#000000" fill-rule="nonzero">
            <g id="Group-2" transform="translate(77.000000, 997.000000)">
                <g id="Group" transform="translate(78.000000, 228.000000)">
                    <path d="M148.593818,27.775 C148.593818,28.5083333 148.224641,28.9666667 147.578581,28.9666667 C146.932521,28.9666667 146.563343,28.5083333 146.563343,27.775 L146.563343,5.225 C146.563343,4.49166667 146.932521,4.03333333 147.578581,4.03333333 C148.224641,4.03333333 148.593818,4.49166667 148.593818,5.225 L148.593818,27.775 Z M147.578581,0 C144.902046,0 142.779277,2.29166667 142.779277,5.5 L142.779277,27.5 C142.779277,30.8 144.99434,33 147.578581,33 C150.255115,33 152.377884,30.8 152.377884,27.5 L152.377884,5.5 C152.377884,2.29166667 150.255115,0 147.578581,0 M9.0448411,16.8666667 L5.35306922,16.8666667 C5.07618633,16.8666667 4.89159774,17.05 4.89159774,17.325 L4.89159774,19.8 C4.89159774,20.075 5.07618633,20.2583333 5.35306922,20.2583333 L5.35306922,20.2583333 L5.72224641,20.2583333 L5.72224641,28.05 C5.72224641,28.875 5.35306922,29.3333333 4.70700914,29.3333333 C4.06094906,29.3333333 3.69177188,28.875 3.69177188,28.1416667 L3.69177188,5.225 C3.69177188,4.49166667 4.15324336,4.03333333 4.70700914,4.03333333 C5.35306922,4.03333333 5.81454071,4.49166667 5.81454071,5.225 L5.81454071,11.6416667 L5.81454071,11.6416667 C5.81454071,11.9166667 5.9991293,12.1 6.27601219,12.1 L8.76795821,12.1 C9.0448411,12.1 9.22942969,11.9166667 9.22942969,11.6416667 L9.22942969,11.6416667 L9.22942969,5.5 C9.22942969,2.29166667 7.29124946,0 4.70700914,0 C2.03047453,0 0,2.29166667 0,5.5 L0,27.5 C0,31.1666667 1.66129734,33 4.24553766,33 C5.26077492,33 6.27601219,32.5416667 6.82977797,31.4416667 L7.19895516,32.6333333 L9.0448411,32.6333333 L9.0448411,32.6333333 C9.32172399,32.6333333 9.50631258,32.45 9.50631258,32.175 L9.50631258,17.4166667 C9.50631258,17.05 9.32172399,16.8666667 9.0448411,16.8666667 M19.3818024,4.30833333 L19.3818024,4.30833333 C19.6586852,4.30833333 19.8432738,4.125 19.8432738,3.85 L19.8432738,0.916666667 C19.8432738,0.641666667 19.6586852,0.458333333 19.3818024,0.458333333 L12.4597301,0.458333333 C12.1828472,0.458333333 11.9982586,0.641666667 11.9982586,0.916666667 L11.9982586,32.0833333 C11.9982586,32.3583333 12.1828472,32.5416667 12.4597301,32.5416667 L19.3818024,32.5416667 C19.6586852,32.5416667 19.8432738,32.3583333 19.8432738,32.0833333 L19.8432738,29.15 C19.8432738,28.875 19.6586852,28.6916667 19.3818024,28.6916667 L15.7823248,28.6916667 L15.7823248,17.9666667 L18.0896822,17.9666667 L18.0896822,17.9666667 L18.0896822,17.9666667 C18.3665651,17.9666667 18.5511537,17.7833333 18.5511537,17.5083333 L18.5511537,14.575 L18.5511537,14.575 C18.5511537,14.3 18.3665651,14.1166667 18.0896822,14.1166667 L15.7823248,14.1166667 L15.7823248,4.21666667 L19.3818024,4.30833333 L19.3818024,4.30833333 Z M63.8676535,4.30833333 L63.8676535,4.30833333 C64.1445364,4.30833333 64.3291249,4.125 64.3291249,3.85 L64.3291249,0.916666667 C64.3291249,0.641666667 64.1445364,0.458333333 63.8676535,0.458333333 L57.0378755,0.458333333 C56.7609926,0.458333333 56.576404,0.641666667 56.576404,0.916666667 L56.576404,32.0833333 C56.576404,32.3583333 56.7609926,32.5416667 57.0378755,32.5416667 L63.9599478,32.5416667 C64.2368306,32.5416667 64.4214192,32.3583333 64.4214192,32.0833333 L64.4214192,29.15 C64.4214192,28.875 64.2368306,28.6916667 63.9599478,28.6916667 L60.3604702,28.6916667 L60.3604702,17.9666667 L62.5755333,17.9666667 L62.5755333,17.9666667 L62.5755333,17.9666667 C62.8524162,17.9666667 63.0370048,17.7833333 63.0370048,17.5083333 L63.0370048,14.575 L63.0370048,14.575 C63.0370048,14.3 62.8524162,14.1166667 62.5755333,14.1166667 L60.2681759,14.1166667 L60.2681759,4.21666667 L63.8676535,4.30833333 L63.8676535,4.30833333 Z M53.7152808,28.875 L53.7152808,28.875 L50.3926861,28.875 L50.3926861,0.916666667 L50.3926861,0.916666667 C50.3926861,0.641666667 50.2080975,0.458333333 49.9312146,0.458333333 L47.1623857,0.458333333 C46.8855028,0.458333333 46.7009142,0.641666667 46.7009142,0.916666667 L46.7009142,32.0833333 C46.7009142,32.3583333 46.8855028,32.5416667 47.1623857,32.5416667 L53.8075751,32.5416667 C54.084458,32.5416667 54.2690466,32.3583333 54.2690466,32.0833333 L54.2690466,29.3333333 C54.1767523,29.0583333 53.9921637,28.875 53.7152808,28.875 M163.914671,0.458333333 L161.238137,0.458333333 C160.961254,0.458333333 160.776665,0.641666667 160.776665,0.916666667 L160.776665,0.916666667 L160.776665,27.775 C160.776665,28.5083333 160.407488,28.9666667 159.761428,28.9666667 C159.207662,28.9666667 158.746191,28.5083333 158.746191,27.775 L158.746191,0.916666667 L158.746191,0.916666667 C158.746191,0.641666667 158.561602,0.458333333 158.284719,0.458333333 L155.51589,0.458333333 C155.239007,0.458333333 155.054419,0.641666667 155.054419,0.916666667 L155.054419,27.5 C155.054419,30.8 157.177188,33 159.761428,33 C162.437963,33 164.376143,30.8 164.376143,27.5 L164.376143,0.916666667 C164.376143,0.641666667 164.191554,0.458333333 163.914671,0.458333333 M211.446234,28.875 L211.446234,28.875 L208.12364,28.875 L208.12364,0.916666667 L208.12364,0.916666667 C208.12364,0.641666667 207.939051,0.458333333 207.662168,0.458333333 L204.893339,0.458333333 L204.893339,0.458333333 C204.616456,0.458333333 204.431868,0.641666667 204.431868,0.916666667 L204.431868,32.0833333 C204.431868,32.3583333 204.616456,32.5416667 204.893339,32.5416667 L211.538529,32.5416667 C211.815411,32.5416667 212,32.3583333 212,32.0833333 L212,29.3333333 C211.907706,29.0583333 211.630823,28.875 211.446234,28.875 M139.641271,0.458333333 L136.872442,0.458333333 C136.595559,0.458333333 136.410971,0.641666667 136.410971,0.916666667 L136.410971,0.916666667 L136.410971,27.775 C136.410971,28.5083333 136.041794,28.9666667 135.395734,28.9666667 C134.749673,28.9666667 134.380496,28.5083333 134.380496,27.775 L134.380496,20.2583333 L134.380496,20.2583333 C134.380496,19.9833333 134.195908,19.8 133.919025,19.8 L131.427079,19.8 C131.150196,19.8 130.965607,19.9833333 130.965607,20.2583333 L130.965607,27.775 C130.965607,30.8916667 132.996082,33 135.672616,33 C138.349151,33 140.102743,30.8916667 140.102743,27.775 L140.102743,0.916666667 C140.195037,0.641666667 139.918154,0.458333333 139.641271,0.458333333 M118.044406,15.125 C116.290814,10.9083333 115.55246,9.53333333 115.55246,5.31666667 C115.55246,4.30833333 116.106226,3.85 116.84458,3.85 C117.49064,3.85 117.952111,4.30833333 117.952111,5.31666667 L117.952111,9.71666667 L117.952111,9.71666667 C117.952111,9.99166667 118.1367,10.175 118.413583,10.175 L120.72094,10.175 L120.72094,10.175 C120.997823,10.175 121.182412,9.99166667 121.182412,9.71666667 L121.182412,9.71666667 L121.182412,5.86666667 C121.182412,1.83333333 119.42882,0 116.752286,0 C113.245102,0 111.676099,2.65833333 111.676099,6.41666667 C111.676099,9.71666667 113.798868,14.85 115.183283,18.15 C116.84458,21.9083333 117.582934,24.475 117.582934,27.6833333 C117.582934,28.6916667 117.121463,29.3333333 116.290814,29.3333333 C115.275577,29.3333333 114.9064,28.6916667 114.9064,27.6833333 L114.9064,23.65 C114.9064,23.375 114.721811,23.1916667 114.444928,23.1916667 L112.137571,23.1916667 L112.137571,23.1916667 C111.860688,23.1916667 111.676099,23.375 111.676099,23.65 L111.676099,27.1333333 C111.676099,30.9833333 113.429691,33 116.475403,33 C118.413583,33 121.274706,31.8083333 121.274706,26.8583333 C121.274706,23.375 119.797997,19.25 118.044406,15.125 M105.03091,0.458333333 L102.815847,0.458333333 C102.538964,0.458333333 102.354375,0.641666667 102.354375,0.916666667 L102.354375,20.5333333 L101.800609,16.1333333 L99.2163692,0.825 L99.2163692,0.825 C99.2163692,0.641666667 99.0317806,0.458333333 98.7548977,0.458333333 L95.8014802,0.458333333 C95.5245973,0.458333333 95.3400087,0.641666667 95.3400087,0.916666667 L95.3400087,32.0833333 C95.3400087,32.3583333 95.5245973,32.5416667 95.8014802,32.5416667 L98.0165433,32.5416667 C98.2934262,32.5416667 98.4780148,32.3583333 98.4780148,32.0833333 L98.4780148,32.0833333 L98.4780148,12.375 L99.2163692,16.775 L102.262081,32.2666667 L102.262081,32.2666667 L102.262081,32.2666667 L102.262081,32.2666667 C102.262081,32.45 102.538964,32.6333333 102.723552,32.6333333 L105.03091,32.6333333 C105.307793,32.6333333 105.492381,32.45 105.492381,32.175 L105.492381,0.916666667 C105.492381,0.641666667 105.307793,0.458333333 105.03091,0.458333333 M32.026121,0.458333333 L29.8110579,0.458333333 C29.534175,0.458333333 29.3495864,0.641666667 29.3495864,0.916666667 L29.3495864,20.5333333 L28.7958206,16.1333333 L26.3038746,0.825 L26.3038746,0.825 C26.3038746,0.641666667 26.119286,0.458333333 25.8424031,0.458333333 L22.7966913,0.458333333 C22.5198084,0.458333333 22.3352199,0.641666667 22.3352199,0.916666667 L22.3352199,32.0833333 C22.3352199,32.3583333 22.5198084,32.5416667 22.7966913,32.5416667 L25.0117545,32.5416667 C25.2886374,32.5416667 25.4732259,32.3583333 25.4732259,32.0833333 L25.4732259,32.0833333 L25.4732259,12.375 L26.2115803,16.775 L29.3495864,32.2666667 L29.3495864,32.2666667 L29.3495864,32.2666667 L29.3495864,32.2666667 C29.3495864,32.45 29.6264693,32.6333333 29.8110579,32.6333333 L32.1184153,32.6333333 C32.3952982,32.6333333 32.5798868,32.45 32.5798868,32.175 L32.5798868,0.916666667 C32.5798868,0.641666667 32.3030039,0.458333333 32.026121,0.458333333 M172.68263,13.75 C172.68263,14.7583333 172.405747,15.0333333 172.036569,15.0333333 L171.021332,15.0333333 L171.021332,4.30833333 L172.036569,4.30833333 C172.498041,4.30833333 172.68263,4.675 172.68263,5.59166667 L172.68263,13.75 Z M176.466696,27.225 L176.466696,20.35 C176.466696,18.7916667 175.636047,17.875 174.62081,17.05 C175.636047,16.225 176.374401,15.2166667 176.374401,13.75 L176.374401,5.5 C176.374401,1.375 173.97475,0.458333333 172.128864,0.458333333 L167.698737,0.458333333 C167.421855,0.458333333 167.237266,0.641666667 167.237266,0.916666667 L167.237266,32.175 C167.237266,32.45 167.421855,32.6333333 167.698737,32.6333333 L170.559861,32.6333333 C170.836744,32.6333333 171.021332,32.45 171.021332,32.175 L171.021332,32.175 L171.021332,18.7916667 L171.944275,18.7916667 C172.498041,18.7916667 172.774924,19.3416667 172.774924,20.075 L172.774924,27.6833333 C172.774924,29.3333333 173.144101,32.6333333 173.697867,32.6333333 L177.020461,32.6333333 L177.020461,32.45 C176.743579,30.8916667 176.466696,29.2416667 176.466696,27.225 M196.033087,22.6416667 L196.95603,8.43333333 L197.971267,22.6416667 L196.033087,22.6416667 Z M201.939922,32.0833333 L201.939922,32.0833333 L199.078798,0.825 L199.078798,0.825 C199.078798,0.55 198.89421,0.366666667 198.617327,0.366666667 C198.617327,0.366666667 198.617327,0.366666667 198.617327,0.366666667 L195.387027,0.366666667 C195.387027,0.366666667 195.387027,0.366666667 195.387027,0.366666667 C195.110144,0.366666667 194.925555,0.55 194.925555,0.825 L194.925555,0.825 L191.879843,32.0833333 C191.879843,32.3583333 192.064432,32.5416667 192.341315,32.5416667 L194.833261,32.5416667 C195.110144,32.5416667 195.294732,32.3583333 195.294732,32.0833333 L195.294732,32.0833333 L195.663909,26.675 L198.155855,26.675 L198.340444,32.0833333 L198.340444,32.0833333 C198.340444,32.3583333 198.525033,32.5416667 198.801916,32.5416667 L198.801916,32.5416667 L201.386156,32.5416667 C201.755333,32.5416667 201.939922,32.3583333 201.939922,32.0833333 C201.939922,32.0833333 201.939922,32.0833333 201.939922,32.0833333 M87.033522,22.6416667 L87.956465,8.43333333 L88.9717022,22.6416667 L87.033522,22.6416667 Z M92.940357,32.0833333 L92.940357,32.0833333 L90.0792338,0.825 L90.0792338,0.825 C90.0792338,0.55 89.8946452,0.366666667 89.6177623,0.366666667 C89.6177623,0.366666667 89.6177623,0.366666667 89.6177623,0.366666667 L86.3874619,0.366666667 C86.3874619,0.366666667 86.3874619,0.366666667 86.3874619,0.366666667 C86.110579,0.366666667 85.9259904,0.55 85.9259904,0.825 L85.9259904,0.825 L82.9725729,32.0833333 C82.9725729,32.3583333 83.1571615,32.5416667 83.4340444,32.5416667 L85.9259904,32.5416667 C86.2028733,32.5416667 86.3874619,32.3583333 86.3874619,32.0833333 L86.3874619,32.0833333 L86.7566391,26.675 L89.2485851,26.675 L89.4331737,32.0833333 L89.4331737,32.0833333 C89.4331737,32.3583333 89.6177623,32.5416667 89.8946452,32.5416667 L89.8946452,32.5416667 L92.4788855,32.5416667 C92.7557684,32.5416667 93.0326513,32.3583333 92.940357,32.0833333 C92.940357,32.0833333 92.940357,32.0833333 92.940357,32.0833333 M189.111014,0.458333333 L186.895951,0.458333333 C186.619068,0.458333333 186.43448,0.641666667 186.43448,0.916666667 L186.43448,20.5333333 L185.880714,16.1333333 L183.296474,0.825 L183.296474,0.825 C183.296474,0.641666667 183.111885,0.458333333 182.835002,0.458333333 L179.78929,0.458333333 C179.512407,0.458333333 179.327819,0.641666667 179.327819,0.916666667 L179.327819,32.175 C179.327819,32.45 179.512407,32.6333333 179.78929,32.6333333 L182.004354,32.6333333 C182.281236,32.6333333 182.465825,32.45 182.465825,32.175 L182.465825,32.175 L182.465825,12.375 L183.204179,16.775 L186.249891,32.2666667 L186.249891,32.2666667 L186.249891,32.2666667 L186.249891,32.2666667 C186.249891,32.45 186.526774,32.6333333 186.711363,32.6333333 L189.01872,32.6333333 C189.295603,32.6333333 189.480192,32.45 189.480192,32.175 L189.480192,0.916666667 C189.572486,0.641666667 189.387897,0.458333333 189.111014,0.458333333 M43.839791,0.458333333 L35.3487157,0.458333333 C35.0718328,0.458333333 34.8872442,0.641666667 34.8872442,0.916666667 L34.8872442,4.125 C34.8872442,4.4 35.0718328,4.58333333 35.3487157,4.58333333 L35.3487157,4.58333333 L37.6560731,4.58333333 L37.6560731,32.0833333 L37.6560731,32.0833333 C37.6560731,32.3583333 37.8406617,32.5416667 38.1175446,32.5416667 L40.9786678,32.5416667 C41.2555507,32.5416667 41.4401393,32.3583333 41.4401393,32.0833333 L41.4401393,32.0833333 L41.4401393,4.49166667 L43.7474967,4.49166667 L43.7474967,4.49166667 C44.0243796,4.49166667 44.2089682,4.30833333 44.2089682,4.03333333 L44.2089682,0.916666667 C44.3012625,0.641666667 44.0243796,0.458333333 43.839791,0.458333333 M108.168916,5.31666667 C108.722682,5.225 109.091859,5.13333333 109.461036,4.95 C109.830213,4.76666667 110.107096,4.49166667 110.291685,4.21666667 C110.476273,3.94166667 110.660862,3.66666667 110.753156,3.3 C110.845451,2.93333333 110.937745,2.56666667 110.937745,2.2 C110.937745,1.925 110.937745,1.65 110.845451,1.375 C110.753156,1.1 110.660862,0.916666667 110.476273,0.733333333 C110.291685,0.55 110.107096,0.366666667 109.830213,0.275 C109.645625,0.0916666667 109.368742,0 108.999565,0 C108.722682,0 108.445799,0 108.26121,0.183333333 C107.984327,0.275 107.799739,0.458333333 107.61515,0.641666667 C107.430562,0.825 107.338267,1.00833333 107.153679,1.28333333 C106.96909,1.55833333 106.96909,1.74166667 106.96909,2.01666667 C106.96909,2.29166667 106.96909,2.56666667 107.153679,2.75 C107.338267,2.93333333 107.430562,3.20833333 107.61515,3.39166667 C107.799739,3.575 107.984327,3.66666667 108.26121,3.85 C108.538093,3.94166667 108.722682,4.03333333 108.999565,4.03333333 C109.368742,4.03333333 109.737919,3.94166667 110.107096,3.75833333 C110.476273,3.575 110.660862,3.3 110.845451,2.93333333 C110.753156,3.575 110.476273,4.125 110.014802,4.58333333 C109.55333,4.95 108.999565,5.225 108.168916,5.40833333 L108.168916,5.31666667 Z M80.1114497,0.458333333 L76.2350892,0.458333333 C75.9582064,0.458333333 75.7736178,0.641666667 75.7736178,0.916666667 L75.7736178,0.916666667 L74.4814976,13.1083333 L73.9277318,21.2666667 L73.2816717,13.1083333 L71.8972573,0.825 L71.8972573,0.825 C71.8972573,0.55 71.7126687,0.366666667 71.4357858,0.366666667 L67.3748367,0.366666667 C67.0979539,0.366666667 66.9133653,0.55 66.9133653,0.825 L66.9133653,32.0833333 L66.9133653,32.0833333 L66.9133653,32.0833333 C66.9133653,32.3583333 67.0979539,32.5416667 67.3748367,32.5416667 L69.5898999,32.5416667 C69.8667828,32.5416667 70.0513714,32.3583333 70.0513714,32.0833333 C70.0513714,32.0833333 70.0513714,32.0833333 70.0513714,32.0833333 L70.0513714,6.6 L70.4205485,13.6583333 L72.0818459,32.0833333 L72.0818459,32.0833333 C72.0818459,32.3583333 72.2664345,32.5416667 72.5433174,32.5416667 L74.296909,32.5416667 C74.5737919,32.5416667 74.7583805,32.3583333 74.7583805,32.0833333 L74.7583805,32.0833333 L76.6042664,13.6583333 L76.9734436,6.6 L76.9734436,32.0833333 L76.9734436,32.0833333 C76.9734436,32.3583333 77.1580322,32.5416667 77.4349151,32.5416667 L80.1114497,32.5416667 C80.3883326,32.5416667 80.5729212,32.3583333 80.5729212,32.0833333 L80.5729212,32.0833333 L80.5729212,0.916666667 C80.5729212,0.641666667 80.3883326,0.458333333 80.1114497,0.458333333" id="Shape"></path>
                </g>
            </g>
        </g>
    </g>
</svg>