<?xml version="1.0" encoding="UTF-8"?>
<svg width="123px" height="49px" viewBox="0 0 123 49" version="1.1" xmlns="http://www.w3.org/2000/svg" xmlns:xlink="http://www.w3.org/1999/xlink">
    <title>A4A10AFE-1C1D-4C69-82DB-6D3832A08959</title>
    <g id="Product-Marketing" stroke="none" stroke-width="1" fill="none" fill-rule="evenodd">
        <g id="AICommerceAgencyWF_DT-Copy-24" transform="translate(-591.000000, -3337.000000)" fill-rule="nonzero">
            <g id="Google_Pay_(GPay)_Logo_(2018-2020)" transform="translate(591.000000, 3337.000000)">
                <path d="M58.170613,23.9388805 L58.170613,38.3019727 L53.6286063,38.3019727 L53.6286063,2.83150288 L65.6747979,2.83150288 C68.5790682,2.77064155 71.3872528,3.87611996 73.4752007,5.90223294 C75.5877232,7.80851471 76.7757376,10.5378406 76.7335967,13.3880219 C76.7941028,16.2541225 75.6039717,19.0038172 73.4752007,20.9162633 C71.3687628,22.9313414 68.7686285,23.9379371 65.6747979,23.9360504 L58.170613,23.9360504 L58.170613,23.9388805 Z M58.170613,7.19844894 L58.170613,19.580425 L65.7876428,19.580425 C67.476138,19.630635 69.1075868,18.9648674 70.2816904,17.7464774 C71.4486703,16.6082748 72.1070675,15.0448957 72.1070675,13.4120783 C72.1070675,11.7792609 71.4486703,10.2158818 70.2816904,9.07767913 C69.1218267,7.83310394 67.4853149,7.14774982 65.7876428,7.19561878 L58.170613,7.19561878 L58.170613,7.19844894 Z" id="Shape" fill="#5F6368"></path>
                <path d="M87.1999599,13.2408532 C90.5570953,13.2408532 93.2070693,14.140846 95.1498821,15.9408316 C97.0926949,17.7408171 98.0631609,20.2087218 98.0612829,23.3445457 L98.0612829,38.3019727 L93.7167521,38.3019727 L93.7167521,34.9340752 L93.5192735,34.9340752 C91.6385254,37.7076379 89.1371305,39.0944192 86.0150886,39.0944192 C83.3500686,39.0944192 81.1204417,38.3019727 79.326208,36.7170798 C77.5823757,35.2438973 76.5936318,33.0604397 76.6348575,30.7737313 C76.6348575,28.2624307 77.5808738,26.2652769 79.4729064,24.78227 C81.3649389,23.299263 83.8907836,22.5558728 87.0504404,22.5520992 C89.7474332,22.5520992 91.9685967,23.0473783 93.713931,24.0379363 L93.713931,22.9964353 C93.724346,21.4376149 93.0354732,19.9567269 91.8378847,18.9634488 C90.6367815,17.8763199 89.0714512,17.2831446 87.4538609,17.3021414 C84.9167317,17.3021414 82.9090331,18.3757177 81.4307651,20.5228702 L77.4304139,17.995532 C79.6308892,14.8257462 82.8874045,13.2408532 87.1999599,13.2408532 Z M81.323512,30.8727871 C81.3173837,32.0494041 81.8785867,33.1564308 82.8300417,33.8444613 C83.8345812,34.6371766 85.0814097,35.057118 86.3592655,35.033131 C88.2759226,35.0299178 90.1131442,34.2645839 91.4683177,32.9048463 C92.9729162,31.4841029 93.7252155,29.8171352 93.7252155,27.903943 C92.3090121,26.7718766 90.3342266,26.2058435 87.8008589,26.2058435 C85.9558451,26.2058435 84.4173931,26.6520663 83.1855031,27.5445119 C81.9413882,28.450165 81.323512,29.5510996 81.323512,30.8727871 L81.323512,30.8727871 Z" id="Shape" fill="#5F6368"></path>
                <polygon id="Path" fill="#5F6368" points="123 14.0332997 107.833647 49 103.144942 49 108.773081 36.7651926 98.8004142 14.0332997 103.737378 14.0332997 110.945345 31.4671219 111.044084 31.4671219 118.054573 14.0332997"></polygon>
                <path d="M39.8164108,20.842679 C39.818105,19.4540636 39.7010696,18.0678605 39.4665731,16.699316 L20.3111537,16.699316 L20.3111537,24.5473662 L31.2824978,24.5473662 C30.8288362,27.0802291 29.3633536,29.3171937 27.2257241,30.7397693 L27.2257241,35.834068 L33.7735486,35.834068 C37.6074536,32.2878701 39.8164108,27.0435726 39.8164108,20.842679 Z" id="Path" fill="#4285F4"></path>
                <path d="M20.3111537,40.7557266 C25.7925941,40.7557266 30.4079499,38.9500807 33.7735486,35.8368982 L27.2257241,30.7425995 C25.4032792,31.9822122 23.0561056,32.6897536 20.3111537,32.6897536 C15.0130863,32.6897536 10.5162176,29.1067635 8.90817802,24.2785004 L2.16287496,24.2785004 L2.16287496,29.5284583 C5.61072036,36.4113002 12.6326858,40.7553755 20.3111537,40.7557266 Z" id="Path" fill="#34A853"></path>
                <path d="M8.90817802,24.2785004 C8.05806515,21.7484577 8.05806515,19.0086058 8.90817802,16.4785631 L8.90817802,11.2286053 L2.16287496,11.2286053 C-0.720958319,16.9855248 -0.720958319,23.7715387 2.16287496,29.5284583 L8.90817802,24.2785004 Z" id="Path" fill="#FBBC04"></path>
                <path d="M20.3111537,8.06730989 C23.2078468,8.01983388 26.0068212,9.11780021 28.1030931,11.1238891 L28.1030931,11.1238891 L33.9004991,5.30789809 C30.2243401,1.84398953 25.3542458,-0.0577542712 20.3111537,0.00133693473 C12.6326858,0.00168801035 5.61072036,4.34576332 2.16287496,11.2286053 L8.90817802,16.4785631 C10.5162176,11.6503 15.0130863,8.06730989 20.3111537,8.06730989 Z" id="Path" fill="#EA4335"></path>
            </g>
        </g>
    </g>
</svg>