<?xml version="1.0" encoding="UTF-8"?>
<svg width="219px" height="50px" viewBox="0 0 219 50" version="1.1" xmlns="http://www.w3.org/2000/svg" xmlns:xlink="http://www.w3.org/1999/xlink">
    <title>FF09632E-4814-4100-852E-55E326B595AE</title>
    <defs>
        <linearGradient x1="50.000101%" y1="100.000211%" x2="50.000101%" y2="0.000307322624%" id="linearGradient-1">
            <stop stop-color="#F1C205" offset="0%"></stop>
            <stop stop-color="#93C94B" offset="33.14%"></stop>
            <stop stop-color="#70C05A" offset="48.59%"></stop>
            <stop stop-color="#12B259" offset="75.06%"></stop>
            <stop stop-color="#24AD69" offset="90.3%"></stop>
            <stop stop-color="#24AD69" offset="100%"></stop>
        </linearGradient>
    </defs>
    <g id="Product-Marketing" stroke="none" stroke-width="1" fill="none" fill-rule="evenodd">
        <g id="AICommerceAgencyWF_DT-Copy-24" transform="translate(-946.000000, -3490.000000)" fill-rule="nonzero">
            <g id="klaviyo-gradient-horiz-RBG-12-17" transform="translate(946.000000, 3490.000000)">
                <path d="M1.51224994,22.6415358 L35.0044953,0.628916611 C36.3252166,-0.20963887 38.3853338,-0.20963887 39.7060552,0.628916611 L73.1980837,22.6415358 C75.2055108,23.9518594 75.2055108,26.1007385 73.1980837,27.410847 L68.7077177,30.3457912 C62.1043277,20.0208886 50.4825866,13.207464 37.3287134,13.207464 C24.1219332,13.207464 12.5528822,20.073379 5.94970899,30.3457912 L1.45934302,27.410847 C-0.495177178,26.1007385 -0.495177178,23.8995842 1.51224994,22.6415358 Z M37.3289302,22.3795141 C27.3447015,22.3795141 18.6282873,27.6205934 13.6626265,35.3773392 L21.3753271,40.4611625 C24.6505687,35.1153175 30.5143461,31.5513492 37.2762401,31.5513492 C43.9852272,31.5513492 49.9019115,35.1153175 53.1771531,40.4611625 L60.8898538,35.3773392 C56.0822631,27.6205934 47.3131589,22.3795141 37.3289302,22.3795141 Z M37.3289302,40.7758897 C33.8422778,40.7758897 30.778447,42.7150224 29.1407178,45.5452009 L34.3177895,48.8994228 C35.1629992,49.5807223 36.1667127,50 37.3289302,50 C38.4911477,50 39.5477681,49.5807223 40.3400709,48.8994228 L45.5171426,45.5452009 C43.9850104,42.7672976 40.8682727,40.7758897 37.3289302,40.7758897 Z" id="Shape" fill="url(#linearGradient-1)"></path>
                <path d="M95.490976,24.8953957 L103.890382,36.845134 L97.973698,36.845134 L91.6344088,27.5683182 C91.6344088,30.6082431 91.6344088,33.805209 91.6344088,36.845134 L86.8272519,36.845134 L86.8272519,13.1551887 L91.6344088,13.1551887 C91.6344088,16.2998793 91.6344088,19.4445699 91.6344088,22.5890454 L97.6566902,13.1551887 L103.20346,13.1551887 L95.490976,24.8953957 Z M112.184409,13.2076791 L107.377252,13.2076791 L107.377252,36.8974093 L119.685915,36.8974093 L119.685915,32.1280981 L112.078812,32.1280981 L112.184409,13.2076791 L112.184409,13.2076791 Z M133.896192,12.3691236 L143.933328,36.8974093 L138.545062,36.8974093 L137.594255,34.3292524 L129.670144,34.3292524 L128.719337,36.8974093 L123.278165,36.8974093 L133.3153,12.3691236 L133.896192,12.3691236 Z M135.850712,29.8742382 L133.684781,23.742113 L131.46616,29.8742382 L135.850712,29.8742382 Z M150.695005,26.3627602 L145.782034,13.2076791 L140.393768,13.2076791 L150.430904,37.7359647 L150.906416,37.7359647 L160.943551,13.2076791 L155.502379,13.2076791 L150.695005,26.3627602 Z M164.588491,36.8974093 L169.395648,36.8974093 L169.395648,13.2076791 L164.588491,13.2076791 L164.588491,36.8974093 Z M188.466205,13.2076791 L183.606141,21.3837026 L178.746078,13.2076791 L172.935207,13.2076791 L181.229016,26.2055042 L181.229016,36.8974093 L185.983483,36.8974093 L185.983483,26.2055042 L194.3302,13.2076791 L188.466205,13.2076791 L188.466205,13.2076791 Z M219,24.6331589 C219,31.3940931 213.45323,36.8971941 206.638429,36.8971941 C199.823629,36.8971941 194.276859,31.3940931 194.276859,24.6331589 C194.276859,17.8722246 199.823629,12.3691236 206.638429,12.3691236 C213.45323,12.3691236 219,17.8199494 219,24.6331589 Z M214.351347,24.6331589 C214.351347,20.3878911 210.917601,16.9811788 206.638646,16.9811788 C202.359691,16.9811788 198.925946,20.3878911 198.925946,24.6331589 C198.925946,28.8784267 202.359691,32.285139 206.638646,32.285139 C210.917601,32.285139 214.351347,28.8261514 214.351347,24.6331589 Z" id="Shape" fill="#181B1E"></path>
            </g>
        </g>
    </g>
</svg>