<?xml version="1.0" encoding="UTF-8"?>
<svg width="245px" height="34px" viewBox="0 0 245 34" version="1.1" xmlns="http://www.w3.org/2000/svg" xmlns:xlink="http://www.w3.org/1999/xlink">
    <title>B78EF44C-F1C8-4959-9BCD-A4C57F5CDFEE</title>
    <defs>
        <polygon id="path-1" points="0 0 14.4740558 0 14.4740558 17.0249541 0 17.0249541"></polygon>
        <polygon id="path-3" points="0 0 14.4740361 0 14.4740361 17.0244288 0 17.0244288"></polygon>
    </defs>
    <g id="Product-Marketing" stroke="none" stroke-width="1" fill="none" fill-rule="evenodd">
        <g id="AICommerceAgencyWF_DT-Copy-24" transform="translate(-928.000000, -1223.000000)">
            <g id="Group-2" transform="translate(77.000000, 997.000000)">
                <g id="Group-4" transform="translate(851.000000, 226.000000)">
                    <path d="M56.406528,21.6666667 L56.7846802,18.4285714 L56.3483508,18.4285714 C56.1010975,19.6258503 55.8538441,20.4013605 55.5775021,20.755102 C55.3011602,21.1088435 54.8211978,21.2857143 54.1376151,21.2857143 L52.2613986,21.2857143 C51.6941703,21.2857143 51.3305625,21.2176871 51.170575,21.0680272 C51.0105876,20.9183673 50.937866,20.5782313 50.937866,20.047619 L50.937866,14.170068 C50.937866,13.585034 51.0105876,13.2176871 51.170575,13.0408163 C51.3305625,12.8639456 51.7087146,12.7823129 52.3341201,12.7687075 L52.3341201,12.414966 L48.7562189,12.414966 L48.7562189,12.7687075 C49.3525358,12.7823129 49.7452323,12.8503401 49.9052197,12.9863946 C50.0652072,13.1360544 50.152473,13.4489796 50.152473,13.952381 L50.152473,20.1292517 C50.152473,20.6326531 50.0652072,20.9455782 49.9052197,21.0816327 C49.7452323,21.2312925 49.3525358,21.2993197 48.7562189,21.3129252 L48.7562189,21.6666667 L56.406528,21.6666667 Z M64.1358758,21.8571429 C66.4193331,21.8571429 67.7137771,20.5238095 67.7137771,18.2517007 L67.7137771,14.3605442 C67.7137771,13.7346939 67.7719543,13.3129252 67.9028531,13.0952381 C68.0192077,12.8911565 68.2810053,12.7823129 68.6737018,12.7687075 L68.6737018,12.414966 L65.8230163,12.414966 L65.8230163,12.7687075 C66.4047888,12.7823129 66.782941,12.877551 66.9574727,13.0816327 C67.1174602,13.2857143 67.2047261,13.7210884 67.2047261,14.3605442 L67.2047261,18.2653061 C67.2047261,20.170068 66.1575355,21.2721088 64.3104076,21.2721088 C62.4487354,21.2721088 61.4160891,20.2108844 61.4160891,18.2653061 L61.4160891,14.170068 C61.4160891,13.585034 61.4888107,13.2040816 61.6487981,13.0272109 C61.8087856,12.8639456 62.1869378,12.7823129 62.8123433,12.7687075 L62.8123433,12.414966 L59.6707715,12.414966 L59.6707715,12.7687075 C60.0634679,12.7823129 60.3107213,12.8639456 60.4125315,13.0408163 C60.5143417,13.2176871 60.5579746,13.585034 60.5579746,14.170068 L60.5579746,18.414966 C60.5579746,20.6326531 61.8669629,21.8571429 64.1358758,21.8571429 Z M77.1884425,21.8571429 C78.6865069,21.8571429 80.0100394,21.5714286 81.1735846,21 L81.2753947,18.4285714 L80.8390653,18.4285714 C80.591812,19.5034014 80.1991155,20.2653061 79.6609759,20.7142857 C79.1228363,21.1632653 78.322899,21.3945578 77.2611641,21.3945578 C75.9958088,21.3945578 74.9922511,21 74.2504911,20.1972789 C73.5087311,19.4081633 73.1305789,18.3333333 73.1305789,16.9727891 C73.1305789,14.2517007 74.6868205,12.6870748 77.304797,12.6870748 C79.1664692,12.6870748 80.1991155,13.4489796 80.6209006,15.2993197 L81.05723,15.2993197 L81.05723,12.3469388 L80.6209006,12.3469388 C80.5481791,12.6326531 80.4463689,12.7823129 80.3009257,12.7823129 C80.1845712,12.7823129 78.8901273,12.2244898 77.2902527,12.2244898 C75.7340111,12.2244898 74.4977444,12.6734694 73.552364,13.5714286 C72.6069836,14.4693878 72.1415656,15.6394558 72.1415656,17.0952381 C72.1415656,18.5238095 72.6069836,19.6666667 73.5378197,20.537415 C74.4541115,21.4217687 75.6758339,21.8571429 77.1884425,21.8571429 Z M90.880959,21.6666667 L90.880959,21.3129252 C90.2846422,21.2993197 89.8774014,21.2040816 89.6883253,21.0272109 C89.4847049,20.8639456 89.3828947,20.537415 89.3828947,20.0340136 L89.3828947,18.1020408 L92.6117324,13.5170068 C92.917163,13.0816327 93.2225936,12.8367347 93.5280242,12.7687075 L93.5280242,12.414966 L90.7500602,12.414966 L90.7500602,12.7687075 C91.6954406,12.8231293 91.9863269,12.9455782 91.9863269,13.2857143 C91.9863269,13.4217687 91.7972508,13.7619048 91.4190987,14.3061224 L89.1501857,17.5442177 L86.8230954,14.2380952 C86.4885762,13.7891156 86.3285888,13.462585 86.3285888,13.2585034 C86.3285888,12.9319728 86.5903864,12.8231293 87.6230327,12.7687075 L87.6230327,12.414966 L84.5250938,12.414966 L84.5250938,12.7687075 C84.8305244,12.8367347 84.9614233,12.9591837 85.4268413,13.6122449 L88.5975017,18.1020408 L88.5975017,20.0340136 C88.5975017,21.0272109 88.2920712,21.2993197 87.0848931,21.3129252 L87.0848931,21.6666667 L90.880959,21.6666667 Z M106.485098,21.7482993 L109.597581,13.7210884 C109.873923,13.0272109 110.048455,12.8367347 110.557506,12.7687075 L110.557506,12.414966 L107.794086,12.414966 L107.794086,12.7687075 C108.783099,12.8095238 109.073986,12.9319728 109.073986,13.3265306 C109.073986,13.5034014 108.98672,13.8027211 108.826732,14.2380952 L106.266933,20.9047619 L103.605324,14.4013605 C103.416248,13.9115646 103.314437,13.5578231 103.314437,13.3537415 C103.314437,12.9183673 103.605324,12.8095238 104.63797,12.7687075 L104.63797,12.414966 L101.554575,12.414966 L101.554575,12.7687075 C102.019993,12.8367347 102.165437,12.9727891 102.470867,13.7346939 L105.786971,21.7482993 L106.485098,21.7482993 Z M115.232548,21.6666667 L115.232548,21.3129252 C113.996281,21.2857143 113.763572,20.9319728 114.3308,19.5578231 L114.810762,18.4557823 L118.970436,18.4557823 L119.52312,19.7210884 C119.697652,20.1156463 119.784918,20.414966 119.784918,20.6462585 C119.784918,21.122449 119.392221,21.2993197 118.505018,21.3129252 L118.505018,21.6666667 L121.777489,21.6666667 L121.777489,21.3129252 C121.210261,21.2585034 120.875741,20.877551 120.352146,19.6938776 L117.108764,12.292517 L116.265194,12.292517 L116.570624,13 L113.734483,19.6258503 C113.458141,20.2653061 113.225432,20.6870748 113.036356,20.9183673 C112.84728,21.1496599 112.629115,21.2857143 112.352773,21.3129252 L112.352773,21.6666667 L115.232548,21.6666667 Z M118.78136,18.0204082 L114.999838,18.0204082 L116.861511,13.6666667 L118.78136,18.0204082 Z M128.459646,21.6666667 L128.459646,21.3129252 C127.863329,21.2993197 127.470633,21.2312925 127.310645,21.0816327 C127.150658,20.9455782 127.063392,20.6326531 127.063392,20.1292517 L127.063392,13.952381 C127.063392,13.4489796 127.150658,13.1360544 127.310645,12.9863946 C127.470633,12.8503401 127.863329,12.7823129 128.459646,12.7687075 L128.459646,12.414966 L124.881745,12.414966 L124.881745,12.7687075 C125.478062,12.7823129 125.870758,12.8503401 126.030746,12.9863946 C126.190733,13.1360544 126.277999,13.4489796 126.277999,13.952381 L126.277999,20.1292517 C126.277999,20.6326531 126.190733,20.9455782 126.030746,21.0816327 C125.870758,21.2312925 125.478062,21.2993197 124.881745,21.3129252 L124.881745,21.6666667 L128.459646,21.6666667 Z M139.65054,21.6666667 L140.028693,18.4285714 L139.592363,18.4285714 C139.34511,19.6258503 139.097857,20.4013605 138.821515,20.755102 C138.545173,21.1088435 138.06521,21.2857143 137.381628,21.2857143 L135.505411,21.2857143 C134.938183,21.2857143 134.574575,21.2176871 134.414587,21.0680272 C134.2546,20.9183673 134.181878,20.5782313 134.181878,20.047619 L134.181878,14.170068 C134.181878,13.585034 134.2546,13.2176871 134.414587,13.0408163 C134.574575,12.8639456 134.952727,12.7823129 135.578133,12.7687075 L135.578133,12.414966 L132.000231,12.414966 L132.000231,12.7687075 C132.596548,12.7823129 132.989245,12.8503401 133.149232,12.9863946 C133.30922,13.1360544 133.396485,13.4489796 133.396485,13.952381 L133.396485,20.1292517 C133.396485,20.6326531 133.30922,20.9455782 133.149232,21.0816327 C132.989245,21.2312925 132.596548,21.2993197 132.000231,21.3129252 L132.000231,21.6666667 L139.65054,21.6666667 Z M152.709424,21.6666667 L152.709424,21.3129252 C151.938576,21.2993197 151.429525,21.2176871 151.182271,21.0816327 C150.935018,20.9455782 150.818663,20.6326531 150.818663,20.1292517 L150.818663,17.1360544 L153.64026,17.1360544 C154.1784,17.1360544 154.527464,17.2176871 154.687451,17.3809524 C154.847438,17.5578231 154.949249,17.952381 155.007426,18.5918367 L155.443755,18.5918367 L155.443755,15.2993197 L155.007426,15.2993197 C154.949249,15.9387755 154.847438,16.3333333 154.687451,16.4965986 C154.527464,16.6734694 154.1784,16.755102 153.64026,16.755102 L150.818663,16.755102 L150.818663,12.7959184 L153.945691,12.7959184 C154.774717,12.7959184 155.356489,12.9319728 155.66192,13.1904762 C155.967351,13.462585 156.170971,13.9795918 156.272781,14.755102 L156.709111,14.755102 L156.578212,12.414966 L148.637016,12.414966 L148.637016,12.7687075 C149.233333,12.7823129 149.62603,12.8503401 149.786017,12.9863946 C149.946005,13.1360544 150.033271,13.4489796 150.033271,13.952381 L150.033271,20.1292517 C150.033271,20.6326531 149.946005,20.9455782 149.786017,21.0816327 C149.62603,21.2312925 149.233333,21.2993197 148.637016,21.3129252 L148.637016,21.6666667 L152.709424,21.6666667 Z M167.68184,21.6666667 L168.059993,18.4285714 L167.623663,18.4285714 C167.37641,19.6258503 167.129156,20.4013605 166.852815,20.755102 C166.576473,21.1088435 166.09651,21.2857143 165.412927,21.2857143 L163.536711,21.2857143 C162.969483,21.2857143 162.605875,21.2176871 162.445887,21.0680272 C162.2859,20.9183673 162.213178,20.5782313 162.213178,20.047619 L162.213178,14.170068 C162.213178,13.585034 162.2859,13.2176871 162.445887,13.0408163 C162.605875,12.8639456 162.984027,12.7823129 163.609433,12.7687075 L163.609433,12.414966 L160.031531,12.414966 L160.031531,12.7687075 C160.627848,12.7823129 161.020545,12.8503401 161.180532,12.9863946 C161.34052,13.1360544 161.427785,13.4489796 161.427785,13.952381 L161.427785,20.1292517 C161.427785,20.6326531 161.34052,20.9455782 161.180532,21.0816327 C161.020545,21.2312925 160.627848,21.2993197 160.031531,21.3129252 L160.031531,21.6666667 L167.68184,21.6666667 Z M176.283847,21.8571429 C177.694645,21.8571429 178.887279,21.4081633 179.83266,20.5238095 C180.77804,19.6394558 181.258002,18.4829932 181.258002,17.0408163 C181.258002,15.5986395 180.77804,14.4285714 179.83266,13.5442177 C178.887279,12.6598639 177.694645,12.2244898 176.283847,12.2244898 C174.873049,12.2244898 173.680415,12.6598639 172.735034,13.5442177 C171.789654,14.4285714 171.309692,15.5986395 171.309692,17.0408163 C171.309692,18.4829932 171.789654,19.6394558 172.735034,20.5238095 C173.680415,21.4081633 174.873049,21.8571429 176.283847,21.8571429 Z M176.283847,21.3945578 C175.091213,21.3945578 174.131289,20.9863946 173.404073,20.1836735 C172.662313,19.3809524 172.298705,18.3333333 172.298705,17.0408163 C172.298705,15.7482993 172.662313,14.6870748 173.404073,13.8843537 C174.131289,13.0816327 175.091213,12.6870748 176.283847,12.6870748 C177.476481,12.6870748 178.436405,13.0816327 179.178166,13.8843537 C179.905381,14.6870748 180.268989,15.7482993 180.268989,17.0408163 C180.268989,18.3333333 179.905381,19.3809524 179.178166,20.1836735 C178.436405,20.9863946 177.476481,21.3945578 176.283847,21.3945578 Z M188.216502,21.6666667 L188.216502,21.3129252 C187.634729,21.2993197 187.256577,21.2176871 187.096589,21.0408163 C186.922058,20.877551 186.834792,20.5238095 186.834792,19.9931973 L186.834792,16.8503401 L188.492844,16.8503401 L192.085289,21.6666667 L193.365189,21.6666667 L193.365189,21.3129252 C193.059758,21.2721088 192.768872,21.0680272 192.49253,20.7142857 L189.438224,16.8095238 C191.183542,16.6054422 192.128922,15.8027211 192.128922,14.4829932 C192.128922,13.1088435 191.125364,12.414966 189.118249,12.414966 L184.653145,12.414966 L184.653145,12.7687075 C185.249462,12.7823129 185.642158,12.8503401 185.802145,12.9863946 C185.962133,13.1360544 186.049399,13.4489796 186.049399,13.952381 L186.049399,20.1292517 C186.049399,20.6326531 185.962133,20.9455782 185.802145,21.0816327 C185.642158,21.2312925 185.249462,21.2993197 184.653145,21.3129252 L184.653145,21.6666667 L188.216502,21.6666667 Z M188.463755,16.4693878 L186.834792,16.4693878 L186.834792,12.7959184 L188.900084,12.7959184 C190.427237,12.7959184 191.198086,13.3673469 191.198086,14.5238095 C191.198086,15.7755102 190.26725,16.4693878 188.463755,16.4693878 Z M200.047346,21.6666667 L200.047346,21.3129252 C199.451029,21.2993197 199.058333,21.2312925 198.898345,21.0816327 C198.738358,20.9455782 198.651092,20.6326531 198.651092,20.1292517 L198.651092,13.952381 C198.651092,13.4489796 198.738358,13.1360544 198.898345,12.9863946 C199.058333,12.8503401 199.451029,12.7823129 200.047346,12.7687075 L200.047346,12.414966 L196.469445,12.414966 L196.469445,12.7687075 C197.065762,12.7823129 197.458458,12.8503401 197.618445,12.9863946 C197.778433,13.1360544 197.865699,13.4489796 197.865699,13.952381 L197.865699,20.1292517 C197.865699,20.6326531 197.778433,20.9455782 197.618445,21.0816327 C197.458458,21.2312925 197.065762,21.2993197 196.469445,21.3129252 L196.469445,21.6666667 L200.047346,21.6666667 Z M206.904035,21.8571429 C208.780251,21.8571429 209.885619,20.9727891 209.885619,19.4897959 C209.885619,18.3469388 209.289302,17.6258503 207.907592,16.9727891 L206.424072,16.2789116 C205.158717,15.6802721 204.736932,15.1088435 204.736932,14.2517007 C204.736932,13.2721088 205.551414,12.6870748 206.874946,12.6870748 C208.576631,12.6870748 209.332935,13.462585 209.44929,15.2993197 L209.885619,15.2993197 L209.885619,12.3469388 L209.44929,12.3469388 C209.405657,12.6326531 209.318391,12.7823129 209.202036,12.7823129 C209.100226,12.7823129 208.183934,12.2244898 206.904035,12.2244898 C205.085996,12.2244898 203.951539,13.0544218 203.951539,14.414966 C203.951539,15.5578231 204.5624,16.3469388 206.016832,17.0136054 L207.442174,17.6802721 C208.663897,18.2380952 209.114771,18.8095238 209.114771,19.7755102 C209.114771,20.8095238 208.329378,21.3945578 206.933123,21.3945578 C205.231439,21.3945578 204.344236,20.4013605 204.242425,18.4285714 L203.806096,18.4285714 L203.806096,21.7346939 L204.242425,21.7346939 C204.286058,21.4489796 204.373324,21.2993197 204.489679,21.2993197 C204.591489,21.2993197 205.667768,21.8571429 206.904035,21.8571429 Z M219.796614,21.6666667 L219.796614,21.3129252 C219.025765,21.2993197 218.531259,21.1904762 218.327638,20.9727891 C218.109474,20.7687075 218.007663,20.3197279 218.007663,19.6258503 L218.007663,12.8095238 L220.145678,12.8095238 C220.654729,12.8095238 220.974704,12.9319728 221.134691,13.1632653 C221.280134,13.3945578 221.411033,13.9795918 221.512843,14.8911565 L221.949173,14.8911565 L221.832818,12.1428571 L221.396489,12.1428571 C221.338311,12.3741497 221.26559,12.414966 220.843805,12.414966 L214.386129,12.414966 C213.964344,12.414966 213.891623,12.3741497 213.833445,12.1428571 L213.397116,12.1428571 L213.280761,14.8911565 L213.717091,14.8911565 C213.818901,13.9795918 213.9498,13.3945578 214.109787,13.1632653 C214.25523,12.9319728 214.575205,12.8095238 215.084256,12.8095238 L217.222271,12.8095238 L217.222271,19.6258503 C217.222271,20.3197279 217.12046,20.7687075 216.91684,20.9727891 C216.698675,21.1904762 216.204169,21.2993197 215.43332,21.3129252 L215.43332,21.6666667 L219.796614,21.6666667 Z M228.689507,21.6666667 L228.689507,21.3129252 C228.107734,21.2993197 227.729582,21.2176871 227.569595,21.0408163 C227.395063,20.877551 227.307797,20.5238095 227.307797,19.9931973 L227.307797,16.8503401 L228.965849,16.8503401 L232.558294,21.6666667 L233.838194,21.6666667 L233.838194,21.3129252 C233.532764,21.2721088 233.241877,21.0680272 232.965535,20.7142857 L229.911229,16.8095238 C231.656547,16.6054422 232.601927,15.8027211 232.601927,14.4829932 C232.601927,13.1088435 231.59837,12.414966 229.591254,12.414966 L225.12615,12.414966 L225.12615,12.7687075 C225.722467,12.7823129 226.115163,12.8503401 226.275151,12.9863946 C226.435138,13.1360544 226.522404,13.4489796 226.522404,13.952381 L226.522404,20.1292517 C226.522404,20.6326531 226.435138,20.9455782 226.275151,21.0816327 C226.115163,21.2312925 225.722467,21.2993197 225.12615,21.3129252 L225.12615,21.6666667 L228.689507,21.6666667 Z M228.93676,16.4693878 L227.307797,16.4693878 L227.307797,12.7959184 L229.37309,12.7959184 C230.900243,12.7959184 231.671091,13.3673469 231.671091,14.5238095 C231.671091,15.7755102 230.740255,16.4693878 228.93676,16.4693878 Z M242.352935,21.6666667 L242.352935,21.3129252 C241.756618,21.2993197 241.349377,21.2040816 241.160301,21.0272109 C240.956681,20.8639456 240.854871,20.537415 240.854871,20.0340136 L240.854871,18.1020408 L244.083708,13.5170068 C244.389139,13.0816327 244.694569,12.8367347 245,12.7687075 L245,12.414966 L242.222036,12.414966 L242.222036,12.7687075 C243.167416,12.8231293 243.458303,12.9455782 243.458303,13.2857143 C243.458303,13.4217687 243.269227,13.7619048 242.891074,14.3061224 L240.622162,17.5442177 L238.295071,14.2380952 C237.960552,13.7891156 237.800565,13.462585 237.800565,13.2585034 C237.800565,12.9319728 238.062362,12.8231293 239.095009,12.7687075 L239.095009,12.414966 L235.99707,12.414966 L235.99707,12.7687075 C236.3025,12.8367347 236.433399,12.9591837 236.898817,13.6122449 L240.069478,18.1020408 L240.069478,20.0340136 C240.069478,21.0272109 239.764047,21.2993197 238.556869,21.3129252 L238.556869,21.6666667 L242.352935,21.6666667 Z" id="LUCYVAILFLORISTRY" fill="#000000" fill-rule="nonzero"></path>
                    <g id="Group-19-Copy-14">
                        <path d="M17.040056,16.9999343 L21.0723085,12.7373752 C21.7605007,12.0242125 22.455944,11.2742752 23.3379375,10.7633723 C24.2054288,10.2380222 25.1948699,9.92215548 26.202109,9.80592178 C28.2264752,9.55769387 30.3299439,10.2656031 31.8150943,11.6367668 C33.325953,12.9901999 34.1650992,15.0101709 34.1281847,16.9999343 C34.0879743,18.9982347 33.18225,20.922986 31.7168753,22.2540917 C30.2587516,23.5851975 28.2284527,24.3417016 26.2073825,24.1446953 C25.2060761,24.0389686 24.2159758,23.7382057 23.3484845,23.2187658 C22.4658318,22.7144297 21.7670926,21.969746 21.0749453,21.2605234 C19.6860363,19.8289445 18.3340419,18.3855451 17.040056,16.9999343 L17.040056,16.9999343 Z M17.089495,16.9999343 C18.5680536,18.3770082 19.9892628,19.6956369 21.3728982,21.0267426 C22.0591129,21.6978774 22.729507,22.3873993 23.5673349,22.8444539 C24.3913198,23.3107021 25.3036359,23.632479 26.2515481,23.7395191 C28.134848,23.989717 30.1578958,23.424309 31.6021766,22.1280077 C33.0741432,20.8625707 33.9040608,18.9168054 33.8572585,16.9999343 C33.8269358,15.075183 32.9304402,13.2252941 31.5039576,11.9808711 C30.0867035,10.7246277 28.1368256,10.1119382 26.2561624,10.3102578 C25.3155013,10.4074476 24.402526,10.7128073 23.5778819,11.1731453 C22.740054,11.623633 22.0663639,12.3079015 21.3761942,12.9750961 L17.089495,16.9999343 Z" id="Fill-1" fill="#000000"></path>
                        <g id="Group-5" transform="translate(9.793498, 0.000000)">
                            <mask id="mask-2" fill="white">
                                <use xlink:href="#path-1"></use>
                            </mask>
                            <g id="Clip-4"></g>
                            <path d="M7.27101424,17.0249541 L2.99222537,13.0079961 C2.27634728,12.3224143 1.52355466,11.6289522 1.01070645,10.7503042 C0.484015292,9.88676002 0.165627521,8.90107195 0.0489512573,7.89765331 C-0.199562593,5.88096572 0.511041998,3.78481893 1.8874264,2.30530179 C3.24601273,0.800173829 5.27367481,-0.0351327861 7.27101424,0.00098503138 C9.27692312,0.0410429744 11.2090029,0.943988411 12.5451769,2.40314824 C13.8813508,3.85574119 14.6407353,5.87833897 14.4429789,7.89174312 C14.3368497,8.88925157 14.0349416,9.87559633 13.513524,10.7397972 C13.0072676,11.6191019 12.2597485,12.3151907 11.5478255,13.0047127 C10.1107959,14.3883535 8.66255997,15.7352197 7.27101424,17.0249541 L7.27101424,17.0249541 Z M7.27101424,16.9757026 C8.65267215,15.5027523 9.97763989,14.0862772 11.3131546,12.7078899 C11.9868447,12.0249348 12.6796512,11.3564268 13.138446,10.5224336 C13.6058103,9.70091743 13.9288124,8.79206181 14.0356008,7.84774505 C14.2874106,5.9715886 13.720509,3.95687108 12.4179536,2.51741188 C11.1476985,1.05168518 9.19452463,0.2249155 7.27101424,0.270883631 C5.33893441,0.30109126 3.48134282,1.19484307 2.23350006,2.61525833 C0.97247355,4.02713665 0.356132834,5.96961854 0.555866777,7.84314824 C0.653426591,8.78024143 0.95994898,9.68975374 1.42203972,10.5112699 C1.87424264,11.3465765 2.56111647,12.0170546 3.23151059,12.7052632 L7.27101424,16.9757026 Z" id="Fill-3" fill="#000000" mask="url(#mask-2)"></path>
                        </g>
                        <path d="M5.10512884,5.45142636 C6.99502065,5.37459392 8.96665175,5.27346403 10.9798117,5.21961564 C11.9778222,5.19466152 13.0127473,5.14935007 14.011417,5.4074283 C15.0087683,5.6451492 15.947452,6.11796427 16.7569347,6.74969773 C18.3805146,8.02170159 19.3699557,10.032479 19.4424664,12.0688672 C19.5466181,14.1098522 18.6989024,16.1574042 17.2262765,17.5265978 C15.7595834,18.9108952 13.7464234,19.6220879 11.7583126,19.5400019 C9.77679372,19.4559459 7.78077266,18.5825514 6.46898868,17.0104413 C5.82957638,16.2237296 5.33123031,15.3069937 5.08798996,14.3173655 C4.82233722,13.3277373 4.85925175,12.3000212 4.87704982,11.3051395 C4.92253379,9.30158571 5.01350172,7.322986 5.10512884,5.45142636 L5.10512884,5.45142636 Z M5.151272,5.49805118 C5.24289912,7.53378271 5.33386706,9.46116079 5.37935102,11.3648981 C5.3918756,12.3170951 5.38001021,13.2673221 5.64764051,14.1696108 C5.90142787,15.0692728 6.30616926,15.9315036 6.89416489,16.6689638 C8.02599057,18.1622714 9.83348388,19.2103448 11.770178,19.312788 C13.7022579,19.4638262 15.663342,18.6606972 16.9705116,17.2724597 C18.2809772,15.8783119 18.9526897,13.9666944 18.8234889,12.1017016 C18.7094494,10.2360521 17.7694474,8.45642878 16.3152788,7.29474843 C15.5954456,6.70438629 14.7470707,6.27688267 13.8492568,6.01946113 C12.9494652,5.7456224 11.9982571,5.75021922 11.0411162,5.7298619 L5.151272,5.49805118 Z" id="Fill-6" fill="#000000"></path>
                        <path d="M29.0242244,29.2801236 C27.1343326,29.3576127 25.1627015,29.4580859 23.1488824,29.5119343 C22.151531,29.5375451 21.116606,29.5828566 20.1179362,29.3241217 C19.1205849,29.0864008 18.1812421,28.6142424 17.3724185,27.9818522 C15.7488386,26.7098484 14.7593975,24.6997277 14.6868869,22.6626828 C14.5827352,20.6216977 15.4304509,18.5741458 16.9030767,17.2049522 C18.3697698,15.8213114 20.3829298,15.1094621 22.3710406,15.191548 C24.3525595,15.2756041 26.3485806,16.1489986 27.6603646,17.7211086 C28.2997769,18.5084771 28.7981229,19.4252129 29.0413633,20.4148411 C29.307016,21.4038127 29.2701015,22.4321854 29.2523034,23.4270671 C29.2061603,25.4299643 29.1158515,27.408564 29.0242244,29.2801236 L29.0242244,29.2801236 Z M28.9774221,29.2341555 C28.8864541,27.1984239 28.7954862,25.2710459 28.7500022,23.3673085 C28.7368185,22.4144549 28.749343,21.4642279 28.4817127,20.5619392 C28.2279254,19.6622772 27.823184,18.8000464 27.2351883,18.0632429 C26.1033627,16.5692786 24.2958694,15.5218619 22.3591752,15.418762 C20.4270954,15.2683805 18.4660113,16.0708527 17.1588416,17.4590903 C15.848376,18.8538947 15.1760043,20.7655123 15.3058643,22.6298484 C15.4199039,24.4954978 16.3592467,26.2751212 17.8140744,27.4368015 C18.5339076,28.0278204 19.3822825,28.455324 20.2794373,28.7127455 C21.179888,28.9859276 22.1310962,28.9819874 23.0882371,29.0016881 L28.9774221,29.2341555 Z" id="Fill-8" fill="#000000"></path>
                        <path d="M5.10512884,29.2801236 C5.02734467,27.3974003 4.92648891,25.4332477 4.8724355,23.4277238 C4.84672718,22.4328421 4.80124321,21.4024993 5.06096325,20.4076176 C5.2989301,19.4140493 5.77354541,18.4789261 6.4076842,17.6725138 C7.68519041,16.0544355 9.70296467,15.0694042 11.7477656,14.9971685 C13.7958625,14.8934119 15.8512105,15.7379121 17.2262765,17.2049522 C18.6151855,18.6660821 19.3297452,20.671606 19.2473467,22.6521758 C19.1629707,24.6261787 18.2862507,26.6146287 16.7074956,27.921437 C15.9177885,28.5577673 14.9975621,29.0542231 14.0041659,29.2971975 C13.0114289,29.5624993 11.9791406,29.5244114 10.9804709,29.5073375 C8.96994769,29.4613694 6.98315526,29.3714032 5.10512884,29.2801236 L5.10512884,29.2801236 Z M5.151272,29.2341555 C7.19475459,29.1428759 9.12947117,29.0515963 11.040457,29.0069416 C11.9969387,28.9938078 12.9507836,29.0062849 13.8565078,28.7396697 C14.7589361,28.486845 15.6251091,28.0836388 16.3647179,27.4978735 C17.8643705,26.3703409 18.9157752,24.5697035 19.0192677,22.6403554 C19.1702218,20.7162607 18.3646941,18.7619585 16.9705116,17.4590903 C15.5710556,16.1542521 13.6521596,15.4844307 11.780725,15.6131415 C9.90797212,15.7274051 8.12157282,16.6631849 6.95546937,18.1118378 C6.36220023,18.8295973 5.93306889,19.6740975 5.67466722,20.568506 C5.40044504,21.4655413 5.40440017,22.4137982 5.38396534,23.3666519 L5.151272,29.2341555 Z" id="Fill-10" fill="#000000"></path>
                        <g id="Group-14" transform="translate(9.861490, 16.975571)">
                            <mask id="mask-4" fill="white">
                                <use xlink:href="#path-3"></use>
                            </mask>
                            <g id="Clip-13"></g>
                            <path d="M7.20302189,0 L11.4818108,4.0163013 C12.1976888,4.70188315 12.9511407,5.39534524 13.4639889,6.27399324 C13.99068,7.13753742 14.3084086,8.12322549 14.4250849,9.12730082 C14.6735987,11.1439884 13.9629941,13.2394785 12.5866097,14.7189957 C11.2280234,16.2241236 9.20036132,17.0600869 7.20302189,17.0233124 C5.1977722,16.9832545 3.26503318,16.0809657 1.92885924,14.6211492 C0.59334449,13.1685563 -0.166699196,11.1459585 0.0310571839,9.13255432 C0.137845629,8.13570256 0.439753702,7.14870111 0.961171356,6.28450024 C1.4667685,5.40519556 2.21428762,4.7097634 2.92686977,4.01958474 C4.36324027,2.63594399 5.81213535,1.28907774 7.20302189,0 L7.20302189,0 Z M7.20302189,0.0492515693 C5.82136398,1.52154515 4.49705542,2.93802028 3.16088149,4.31640753 C2.48719142,5.00001931 1.79504409,5.66852728 1.33624929,6.50186383 C0.868225858,7.32338001 0.545882959,8.23223563 0.438435326,9.17655239 C0.187284724,11.0527088 0.754186346,13.0680831 2.05608251,14.5075423 C3.32633766,15.973269 5.2795115,16.8000386 7.20302189,16.7540705 C9.13510172,16.7232062 10.9926933,15.8301111 12.2411953,14.4090391 C13.5022218,12.9971608 14.1179033,11.0553356 13.9181694,9.1811492 C13.8206095,8.24405601 13.5140871,7.3345437 13.0519964,6.51302752 C12.5997935,5.6783776 11.9129197,5.00724288 11.2431847,4.31903428 L7.20302189,0.0492515693 Z" id="Fill-12" fill="#000000" mask="url(#mask-4)"></path>
                        </g>
                        <path d="M17.0892973,16.9999343 L13.0570447,21.2624935 C12.3688525,21.9756562 11.6734092,22.7262501 10.7914158,23.2364964 C9.92392447,23.7618465 8.93448338,24.0783699 7.92724422,24.1946036 C5.90287808,24.4421748 3.79940939,23.7349223 2.31359979,22.3631019 C0.803400237,21.0096688 -0.0357460009,18.9896977 0.00116852329,16.9999343 C0.0413789872,15.001634 0.947103206,13.0768827 2.41247798,11.7457769 C3.87060169,10.4153279 5.90090052,9.65816707 7.92197072,9.85517335 C8.922618,9.96090005 9.91337746,10.261663 10.7808688,10.7811028 C11.6635214,11.2860956 12.3616014,12.0301226 13.054408,12.7400019 C14.4433169,14.1709242 15.7953114,15.6143235 17.0892973,16.9999343 L17.0892973,16.9999343 Z M17.0398582,16.9999343 C15.5612997,15.6235171 14.1400905,14.3042318 12.756455,12.973126 C12.0702404,12.302648 11.3991871,11.6124693 10.5620184,11.1554148 C9.73737428,10.6891666 8.82571737,10.3680464 7.87780512,10.2610063 C5.9945052,10.0108083 3.97145744,10.5755596 2.52651749,11.8725176 C1.05521003,13.1379546 0.22529242,15.0837199 0.271435575,16.9999343 C0.302417408,18.9253423 1.198913,20.7752313 2.62473649,22.0189976 C4.04264974,23.2752409 5.99186845,23.8885872 7.87253162,23.6896108 C8.81385199,23.5924211 9.72682727,23.2870613 10.5514714,22.8267233 C11.3892992,22.3762356 12.0629893,21.6919672 12.7531591,21.0247726 L17.0398582,16.9999343 Z" id="Fill-15" fill="#000000"></path>
                        <path d="M29.0242244,5.45142636 C29.1020086,7.33414969 29.2028643,9.29895896 29.2569177,11.3044829 C29.2826261,12.2987079 29.32811,13.3290507 29.06839,14.3245891 C28.829764,15.3175007 28.3558078,16.2532805 27.721669,17.0596929 C26.4441628,18.6771144 24.4263886,19.6621458 22.3815876,19.7350381 C20.3334907,19.8387948 18.2781427,18.9936379 16.9030767,17.5265978 C15.5135085,16.0654679 14.799608,14.059944 14.8820065,12.0793742 C14.9663826,10.106028 15.8431025,8.11757798 17.4218576,6.81011299 C18.2109056,6.17378271 19.1317911,5.6773269 20.1251873,5.43500917 C21.1179243,5.16970739 22.1502126,5.20713858 23.1488824,5.22421246 C25.1594055,5.27018059 27.1455388,5.36014679 29.0242244,5.45142636 L29.0242244,5.45142636 Z M28.9774221,5.49805118 C26.9345987,5.58933076 24.9998821,5.67995365 23.0888963,5.72526509 C22.1324146,5.73774215 21.1785696,5.72526509 20.2728454,5.99188025 C19.3704171,6.24470497 18.5042442,6.64856784 17.7646353,7.23367648 C16.2649828,8.36186577 15.213578,10.1625031 15.1100855,12.0911946 C14.9591315,14.0159459 15.7646591,15.9702482 17.1588416,17.2724597 C18.5582976,18.5779546 20.4771937,19.2471193 22.3486282,19.1184085 C24.2213811,19.0048015 26.0077804,18.068365 27.1738839,16.6197122 C27.7664938,15.9019527 28.1962844,15.0574524 28.454686,14.1630439 C28.7289082,13.2660087 28.7242939,12.3184085 28.7453879,11.3655548 L28.9774221,5.49805118 Z" id="Fill-17" fill="#000000"></path>
                    </g>
                </g>
            </g>
        </g>
    </g>
</svg>