<?xml version="1.0" encoding="UTF-8"?>
<svg width="198px" height="53px" viewBox="0 0 198 53" version="1.1" xmlns="http://www.w3.org/2000/svg" xmlns:xlink="http://www.w3.org/1999/xlink">
    <title>53B2BAD6-CE2B-4CE6-BE1B-F51E9DEAFECB</title>
    <defs>
        <polygon id="path-1" points="0 0 97.870612 0 97.870612 25.1882461 0 25.1882461"></polygon>
        <polygon id="path-3" points="0 0 50.164318 0 50.164318 53 0 53"></polygon>
    </defs>
    <g id="Product-Marketing" stroke="none" stroke-width="1" fill="none" fill-rule="evenodd">
        <g id="AICommerceAgencyWF_DT-Copy-24" transform="translate(-552.000000, -3489.000000)">
            <g id="Mailchimp_Logo-Horizontal_Black" transform="translate(552.000000, 3489.000000)">
                <path d="M76.7821304,20.2632873 C74.2401043,20.2632873 72.9825665,22.2551476 72.4055248,23.5399884 C72.0832074,24.2573957 71.9930106,24.8246127 71.7315488,24.8246127 C71.363155,24.8246127 71.6270076,24.3316252 71.3255549,23.2383094 C70.9289067,21.7998158 69.7333112,20.2632873 67.1930238,20.2632873 C64.5223316,20.2632873 63.378898,22.5100815 62.836631,23.7447146 C62.4658464,24.5887232 62.4654117,24.8246127 62.1802597,24.8246127 C61.7670935,24.8246127 62.1094064,24.1541669 62.2952333,23.3659928 C62.6614537,21.814099 62.3830393,20.6281588 62.3830393,20.6281588 L58.1494444,20.6281588 L58.1494444,36.4795057 L63.92812,36.4795057 C63.92812,36.4795057 63.92812,29.8549039 63.92812,28.5927865 C63.92812,27.0372137 64.5816658,25.0633157 65.7018439,25.0633157 C66.9961124,25.0633157 67.2551835,26.0529699 67.2551835,27.885767 C67.2551835,29.5473818 67.2551835,36.4829683 67.2551835,36.4829683 L73.0571146,36.4829683 C73.0571146,36.4829683 73.0571146,29.8181138 73.0571146,28.5927865 C73.0571146,27.2081796 73.6245932,25.0633157 74.8393148,25.0633157 C76.1516227,25.0633157 76.3839608,26.4537657 76.3839608,27.885767 C76.3839608,29.3177682 76.3839608,36.4795057 76.3839608,36.4795057 L82.081568,36.4795057 C82.081568,36.4795057 82.081568,30.1987833 82.081568,27.1579719 C82.081568,23.0212477 80.617121,20.2632873 76.7821304,20.2632873" id="Fill-1" fill="#0A0B09"></path>
                <path d="M174.866824,20.2632873 C172.324798,20.2632873 171.067042,22.2551476 170.490001,23.5399884 C170.167683,24.2573957 170.077704,24.8246127 169.816025,24.8246127 C169.447631,24.8246127 169.694314,24.1983151 169.410248,23.2383094 C168.986867,21.8073902 167.933413,20.2632873 165.277717,20.2632873 C162.607025,20.2632873 161.463374,22.5100815 160.921324,23.7447146 C160.55054,24.5887232 160.550105,24.8246127 160.264953,24.8246127 C159.851787,24.8246127 160.193882,24.1541669 160.379927,23.3659928 C160.746147,21.814099 160.467733,20.6281588 160.467733,20.6281588 L156.23392,20.6281588 L156.23392,36.4795057 L162.012813,36.4795057 C162.012813,36.4795057 162.012813,29.8549039 162.012813,28.5927865 C162.012813,27.0372137 162.666359,25.0633157 163.786537,25.0633157 C165.080588,25.0633157 165.33966,26.0529699 165.33966,27.885767 C165.33966,29.5473818 165.33966,36.4829683 165.33966,36.4829683 L171.141591,36.4829683 C171.141591,36.4829683 171.141591,29.8181138 171.141591,28.5927865 C171.141591,27.2081796 171.709287,25.0633157 172.924008,25.0633157 C174.236316,25.0633157 174.468654,26.4537657 174.468654,27.885767 C174.468654,29.3177682 174.468654,36.4795057 174.468654,36.4795057 L180.166261,36.4795057 C180.166261,36.4795057 180.166261,30.1987833 180.166261,27.1579719 C180.166261,23.0212477 178.701814,20.2632873 174.866824,20.2632873" id="Fill-2" fill="#0A0B09"></path>
                <path d="M90.5418028,32.7747408 C89.1599456,33.0924343 88.4435881,32.6686987 88.4435881,31.7567366 C88.4435881,30.5073875 89.7413341,30.0070419 91.5937356,30.0070419 C92.4102876,30.0070419 93.1781551,30.0773759 93.1781551,30.0773759 C93.1781551,30.6121311 92.0123354,32.436921 90.5418028,32.7747408 Z M91.9486543,20.2667499 C87.5220602,20.2667499 84.3458316,21.8872464 84.3458316,21.8872464 L84.3458316,26.6504847 C84.3458316,26.6504847 87.8535059,24.6423935 90.6989407,24.6423935 C92.9701593,24.6423935 93.2492258,25.8620941 93.1457712,26.8744716 C93.1457712,26.8744716 92.4909213,26.7017744 90.4918143,26.7017744 C85.7820242,26.7017744 83.4043083,28.8332207 83.4043083,32.2510227 C83.4043083,35.4928813 86.0765219,36.8480561 88.3277451,36.8480561 C91.6128617,36.8480561 93.0568786,34.6499548 93.5006899,33.6070631 C93.8086628,32.8835963 93.8647369,32.396019 94.1414126,32.396019 C94.4565578,32.396019 94.3504951,32.7457416 94.3352812,33.4657458 C94.3085482,34.7267812 94.3680998,35.6800781 94.5689233,36.4829683 L98.9244468,36.4829683 L98.9244468,28.6819484 C98.9244468,23.8113696 97.1937565,20.2667499 91.9486543,20.2667499 L91.9486543,20.2667499 Z" id="Fill-3" fill="#0A0B09"></path>
                <polygon id="Fill-4" fill="#0A0B09" points="108.443135 36.4829683 114.222028 36.4829683 114.222028 15.8296453 108.443135 15.8296453"></polygon>
                <path d="M120.582744,28.5572948 C120.582744,27.1320024 121.912439,25.8352589 124.353836,25.8352589 C127.013878,25.8352589 129.153388,27.1105775 129.633278,27.4001374 L129.633278,21.8872464 C129.633278,21.8872464 127.943013,20.2667499 123.788531,20.2667499 C119.4091,20.2667499 115.762109,22.8184692 115.762109,28.3105846 C115.762109,33.8027 119.071786,36.8480561 123.776794,36.8480561 C127.451821,36.8480561 129.642624,34.837368 129.642624,34.837368 L129.642624,29.6010521 C128.949522,29.9873484 127.018225,31.3217476 124.380352,31.3217476 C121.587079,31.3217476 120.582744,30.0423171 120.582744,28.5572948" id="Fill-5" fill="#0A0B09"></path>
                <path d="M141.339291,20.2667499 C137.99397,20.2667499 136.721653,23.4233421 136.464756,23.9715148 C136.207641,24.5194712 136.080713,24.8347841 135.870327,24.8280753 C135.505193,24.8161727 135.7597,24.155249 135.902059,23.7271852 C136.171127,22.9186682 136.741214,20.7971769 136.741214,18.1898396 C136.741214,16.421317 136.501052,15.8296453 136.501052,15.8296453 L131.512413,15.8296453 L131.512413,36.4829683 L137.291305,36.4829683 C137.291305,36.4829683 137.291305,29.8808734 137.291305,28.5964655 C137.291305,27.3116247 137.806187,25.0667783 139.261941,25.0667783 C140.467751,25.0667783 140.845274,25.9564499 140.845274,27.7479122 C140.845274,29.5391582 140.845274,36.4829683 140.845274,36.4829683 L146.624166,36.4829683 C146.624166,36.4829683 146.624166,31.651993 146.624166,28.0926573 C146.624166,24.0236702 145.946713,20.2667499 141.339291,20.2667499" id="Fill-6" fill="#0A0B09"></path>
                <path d="M148.502214,20.6498 L148.502214,36.4829683 L154.281107,36.4829683 L154.281107,20.6498 C154.281107,20.6498 153.309808,21.2155022 151.397638,21.2155022 C149.485684,21.2155022 148.502214,20.6498 148.502214,20.6498" id="Fill-7" fill="#0A0B09"></path>
                <path d="M151.374599,15.6690673 C149.420917,15.6690673 147.837149,16.6983249 147.837149,17.9680168 C147.837149,19.2374923 149.420917,20.2667499 151.374599,20.2667499 C153.328065,20.2667499 154.912049,19.2374923 154.912049,17.9680168 C154.912049,16.6983249 153.328065,15.6690673 151.374599,15.6690673" id="Fill-8" fill="#0A0B09"></path>
                <path d="M100.794453,20.6498 L100.794453,36.4829683 L106.573129,36.4829683 L106.573129,20.6498 C106.573129,20.6498 105.601829,21.2155022 103.689659,21.2155022 C101.777706,21.2155022 100.794453,20.6498 100.794453,20.6498" id="Fill-9" fill="#0A0B09"></path>
                <g id="Group-13" transform="translate(100.129388, 15.669067)">
                    <mask id="mask-2" fill="white">
                        <use xlink:href="#path-1"></use>
                    </mask>
                    <g id="Clip-11"></g>
                    <path d="M3.53723276,0 C1.58376744,0 0,1.02925765 0,2.29894955 C0,3.56842503 1.58376744,4.59768269 3.53723276,4.59768269 C5.49091542,4.59768269 7.07468286,3.56842503 7.07468286,2.29894955 C7.07468286,1.02925765 5.49091542,0 3.53723276,0" id="Fill-10" fill="#0A0B09" mask="url(#mask-2)"></path>
                    <path d="M89.9319967,17.407569 C88.606431,17.407569 87.631437,15.7340514 87.631437,13.4022072 C87.631437,11.1376672 88.6329466,9.39771103 89.8861376,9.39771103 C91.4944647,9.39771103 92.1797424,10.8660696 92.1797424,13.4022072 C92.1797424,16.0404915 91.5479307,17.407569 89.9319967,17.407569 Z M91.5181549,4.59422009 C88.5475314,4.59422009 87.1861043,6.81223138 86.5942834,8.07564732 C86.2030687,8.91056658 86.2230642,9.15554549 85.9376948,9.15554549 C85.5245286,9.15554549 85.8670588,8.48509969 86.0531031,7.69692551 C86.4191062,6.14503177 86.1406917,4.9590915 86.1406917,4.9590915 L81.9068795,4.9590915 L81.9068795,25.1882461 L87.6857724,25.1882461 C87.6857724,25.1882461 87.6857724,21.8780011 87.6857724,18.7746465 C88.3695287,19.9296398 89.6361949,21.16384 91.5890082,21.16384 C95.7676157,21.16384 97.8708293,17.6434585 97.8708293,12.8869291 C97.8708293,7.49587834 95.3531455,4.59422009 91.5181549,4.59422009 L91.5181549,4.59422009 Z" id="Fill-12" fill="#0A0B09" mask="url(#mask-2)"></path>
                </g>
                <path d="M37.7341235,25.0511966 C38.1227301,25.0051007 38.4950361,25.0029366 38.8371316,25.0511966 C39.0351297,24.599111 39.0692523,23.8195933 38.8910322,22.9708236 C38.6263103,21.709139 38.2681315,20.9456358 37.5276491,21.0644463 C36.787384,21.1832567 36.7599989,22.0973829 37.0247209,23.3590676 C37.1735998,24.068684 37.4387564,24.6752881 37.7341235,25.0511966" id="Fill-14" fill="#1A1919"></path>
                <path d="M31.3779716,26.0495073 C31.9076328,26.2810686 32.2332104,26.434505 32.3605725,26.3003293 C32.4425102,26.2167941 32.418168,26.0572981 32.2916752,25.8514899 C32.0302134,25.4264558 31.4922932,24.9955786 30.9217718,24.753413 C29.7548653,24.2532838 28.3632278,24.419705 27.2895608,25.1877528 C26.9352942,25.4463657 26.5992842,25.8045284 26.6473167,26.0220229 C26.6629653,26.0923569 26.7159966,26.145378 26.840316,26.162691 C27.1326403,26.1960185 28.1537106,25.6818225 29.3299627,25.61019 C30.1602072,25.5595495 30.848093,25.8181623 31.3779716,26.0495073" id="Fill-15" fill="#1A1919"></path>
                <path d="M30.3123463,26.6550293 C29.622287,26.763452 29.2417221,26.9900358 28.9974302,27.2006051 C28.7889998,27.3819588 28.6601163,27.5825731 28.6611961,27.723674 C28.6616376,27.7907619 28.6909787,27.8294997 28.7140169,27.8489769 C28.7455315,27.8764612 28.7826969,27.8918265 28.8274692,27.8918265 C28.9833031,27.8918265 29.3323535,27.7522405 29.3323535,27.7522405 C30.2925682,27.4100924 30.9259013,27.4516436 31.5535835,27.5228433 C31.9004605,27.5615811 32.064336,27.5830059 32.1404055,27.4646283 C32.1630091,27.4306516 32.1901767,27.3570713 32.1208448,27.2449697 C31.9591427,26.9839763 31.2625633,26.5427113 30.3123463,26.6550293" id="Fill-16" fill="#1A1919"></path>
                <path d="M35.5878763,28.8775853 C36.0562472,29.1067661 36.5719985,29.0167385 36.7400035,28.6765381 C36.9077911,28.3365541 36.6641513,27.8749463 36.1955631,27.6455491 C35.7271922,27.4165848 35.2114408,27.5063959 35.0434358,27.8465963 C34.8756482,28.1867967 35.119288,28.6481881 35.5878763,28.8775853" id="Fill-17" fill="#1A1919"></path>
                <path d="M38.5995773,26.2570468 C38.2190124,26.2505544 37.9034325,26.6667156 37.8945215,27.1863219 C37.8856105,27.7061446 38.1870632,28.1324772 38.5676281,28.1389695 C38.9481931,28.1454619 39.2639902,27.7293008 39.2726839,27.2096945 C39.2815949,26.6898717 38.9801423,26.2633228 38.5995773,26.2570468" id="Fill-18" fill="#1A1919"></path>
                <g id="Group-22">
                    <mask id="mask-4" fill="white">
                        <use xlink:href="#path-3"></use>
                    </mask>
                    <g id="Clip-20"></g>
                    <path d="M13.0363059,35.6274899 C12.9417623,35.5093287 12.7861458,35.5452531 12.6355281,35.5803119 C12.5303349,35.6047666 12.4112317,35.6322509 12.2806095,35.6300868 C12.0006737,35.6246765 11.7635541,35.5056496 11.6305411,35.3020055 C11.4571026,35.0369003 11.4671003,34.6415147 11.6585781,34.1892127 C11.6842244,34.1279679 11.7146522,34.0602308 11.7479055,33.9864342 C12.053053,33.3045185 12.5638055,32.1631592 11.9902413,31.0756866 C11.5586011,30.2572147 10.854632,29.7473469 10.0080869,29.6404392 C9.19522969,29.5378597 8.35868229,29.8378074 7.82510893,30.4240687 C6.983128,31.3490156 6.85141905,32.6076704 7.01420783,33.052398 C7.07397674,33.2151402 7.16721624,33.260154 7.23502678,33.2694597 C7.37847217,33.288504 7.59016278,33.1848424 7.72295843,32.8292768 C7.73252146,32.8037401 7.74512726,32.7641366 7.76077585,32.7137125 C7.81989274,32.5258665 7.93008487,32.1759276 8.11047831,31.895457 C8.3278198,31.5572043 8.66643784,31.3243445 9.06395543,31.2395108 C9.46907997,31.1531623 9.88289817,31.2302051 10.2293405,31.4561397 C10.8192053,31.8402718 11.0463272,32.5598433 10.7944284,33.24652 C10.6644582,33.6016528 10.4529849,34.2805387 10.499496,34.8386665 C10.5938222,35.9676902 11.2914884,36.4212908 11.9180839,36.4695507 C12.5272921,36.492274 12.9532814,36.1518573 13.0610828,35.9027665 C13.1245465,35.755606 13.0708632,35.6660113 13.0363059,35.6274899" id="Fill-19" fill="#1A1919" mask="url(#mask-4)"></path>
                    <path d="M18.8291086,14.8878183 C20.8162619,12.6009878 23.262875,10.613023 25.4543293,9.4965511 C25.5301814,9.45802969 25.6105978,9.54005001 25.5695203,9.61406307 C25.3954297,9.92807755 25.0605065,10.5998218 24.9542265,11.1094732 C24.9377085,11.1888965 25.0244278,11.2486264 25.0918037,11.2029633 C26.4551868,10.2775837 28.8270345,9.28598178 30.9074273,9.15851484 C30.9967546,9.15310453 31.0400056,9.2671539 30.9689349,9.32147342 C30.6524857,9.56320614 30.306478,9.89756339 30.0537099,10.2358161 C30.0106763,10.2933818 30.0511018,10.3762677 30.1232592,10.3767006 C31.5840113,10.3870884 33.643322,10.8960905 34.985623,11.6457432 C35.0764717,11.6963837 35.011704,11.8714614 34.9102055,11.8483053 C32.8793666,11.3849662 29.5551285,11.033296 26.1020069,11.8718943 C23.0192352,12.6204649 20.6662962,13.7765403 18.9497331,15.0196135 C18.8630139,15.0825895 18.7589073,14.9685401 18.8291086,14.8878183 Z M36.922353,38.0058628 C36.9812526,37.9811918 37.0218954,37.9143203 37.0149405,37.8478817 C37.0066815,37.7660778 36.9334374,37.7065644 36.8512824,37.7150044 C36.8512824,37.7150044 32.6100805,38.3400036 28.6036075,36.8796524 C29.0400292,35.4673446 30.2004154,35.9772124 31.9543612,36.1183133 C35.1158106,36.3059429 37.9490742,35.8460664 40.0431595,35.2474696 C41.8577436,34.7291617 44.240893,33.7068293 46.0919905,32.2518883 C46.7164126,33.6176674 46.9367969,35.1204355 46.9367969,35.1204355 C46.9367969,35.1204355 47.4201644,35.0345197 47.8239849,35.2818792 C48.2056365,35.515821 48.4855724,36.0018834 48.2943118,37.258807 C47.9050532,39.6070986 46.9026743,41.5128267 45.2180604,43.2662004 C44.1924259,44.3653593 42.9474938,45.3210367 41.5230377,46.0159371 C40.766472,46.4115391 39.9610044,46.7539036 39.1101125,47.0304787 C32.7589594,49.0959192 26.2580581,46.8253197 24.1624514,41.9491142 C23.9953158,41.5825115 23.8538265,41.1988122 23.7423303,40.7973671 C22.8492742,37.5840749 23.6073613,33.7289034 25.9772529,31.3022705 C25.9774702,31.302054 25.9770356,31.3011884 25.9772529,31.300972 C26.1233064,31.1464535 26.2724026,30.9644506 26.2724026,30.7354862 C26.2724026,30.5439612 26.1502567,30.341832 26.0441941,30.1985669 C25.2150363,29.0011568 22.3430858,26.9606037 22.9194755,23.0117256 C23.333511,20.1747746 25.8251139,18.1768548 28.148277,18.2952324 C28.3445364,18.3051874 28.5412305,18.3173065 28.7370551,18.3287764 C29.7437809,18.3882898 30.6220579,18.5168388 31.450781,18.5512484 C32.8378544,18.6109782 34.0851772,18.4101475 35.5624473,17.1846037 C36.0608114,16.7710395 36.460285,16.4124441 37.1364344,16.2986111 C37.2075051,16.286492 37.3842037,16.2232996 37.737601,16.2399633 C38.0981705,16.2590076 38.44157,16.3576917 38.7499776,16.5622015 C39.9344887,17.346913 40.1022764,19.2474473 40.163784,20.6378973 C40.198776,21.4314818 40.2952756,23.3517095 40.3280942,23.9029121 C40.4035117,25.1632982 40.7362615,25.3409729 41.4093681,25.5617136 C41.787977,25.6859343 42.1394182,25.7783424 42.6573429,25.9231224 C44.2250271,26.3613576 45.1545967,26.8060852 45.740332,27.3771977 C46.0898171,27.7340618 46.2523885,28.1134329 46.3025944,28.4750581 C46.4873347,29.8178974 45.2554431,31.4766989 41.9944514,32.9840117 C38.4296163,34.6313433 34.1049553,35.0485865 31.1169445,34.7172591 C30.8878665,34.6919388 30.0728359,34.5999635 30.0700105,34.5995307 C27.6799061,34.2790238 26.316523,37.3546777 27.7509768,39.4618858 C28.6755475,40.819874 31.193666,41.7037025 33.7130886,41.7041353 C39.4898081,41.7050009 43.9298774,39.2485031 45.5814554,37.1272282 C45.6310092,37.0638194 45.6357907,37.0568942 45.713599,36.9395986 C45.7948847,36.8177584 45.7279435,36.7504541 45.6266624,36.8194897 C44.2771891,37.7388098 38.2835628,41.3888223 31.8724235,40.2907455 C31.8724235,40.2907455 31.0934716,40.1632786 30.3823302,39.8877855 C29.8172424,39.6689925 28.63447,39.1270957 28.4908072,37.918865 C33.6646214,39.5120935 36.922353,38.0058628 36.922353,38.0058628 Z M8.50451843,25.7627608 C6.70514823,26.1111848 5.11920737,27.1265921 4.14942964,28.5291612 C3.56977989,28.0478599 2.49002736,27.1159879 2.29920153,26.7528477 C0.751078093,23.8256528 3.98903162,18.1340052 6.25090452,14.9200637 C11.8409277,6.97686084 20.5963123,0.964489912 24.6492964,2.05542512 C25.3082758,2.24110701 27.4903844,4.76036444 27.4903844,4.76036444 C27.4903844,4.76036444 23.439139,6.9987185 19.6819566,10.1187369 C14.6194213,14.0000944 10.7952977,19.6413179 8.50451843,25.7627608 Z M11.5279559,39.1954821 C11.255627,39.2417943 10.9778646,39.2601894 10.6977114,39.2534806 C7.99050581,39.1811989 5.06595871,36.7541331 4.77537313,33.8760638 C4.45414241,30.6948007 6.08659435,28.2465265 8.97701883,27.6658919 C9.3225918,27.5966399 9.74010481,27.5566036 10.1904364,27.5799762 C11.8098478,27.6682725 14.1964747,28.9063681 14.7415672,32.4193916 C15.2245,35.5305371 14.4575019,38.6979498 11.5279559,39.1954821 Z M48.2028111,33.5622658 C48.1795555,33.4806783 48.0285032,32.9307742 47.8209421,32.2681193 C47.613381,31.6052479 47.3984302,31.1388791 47.3984302,31.1388791 C48.2310655,29.8975372 48.2458447,28.7875577 48.1352179,28.1586631 C48.0169841,27.3793618 47.6911892,26.715192 47.0343832,26.0287317 C46.3775772,25.3422713 45.0344068,24.6391473 43.1465786,24.1113173 C42.9307585,24.0509382 42.2187478,23.8563834 42.1561535,23.8375555 C42.1513719,23.79687 42.1039915,21.5124201 42.0611752,20.5318552 C42.0298781,19.822888 41.9688051,18.7161547 41.6238842,17.6258687 C41.2128914,16.150585 40.4967512,14.8594682 39.603043,14.0334219 C42.0696515,11.4875457 43.609516,8.68284026 43.6058212,6.27655013 C43.5986489,1.64965176 37.8916961,0.249463148 30.8587428,3.1493901 C30.8513532,3.15241987 29.3792992,3.77395645 29.3686495,3.77936676 C29.3619119,3.77287439 26.6747017,1.14735844 26.6342762,1.11229962 C18.6156793,-5.85185331 -6.45487903,21.8956865 1.56067515,28.6347705 L3.31244756,30.1124348 C2.8579865,31.2845246 2.67954914,32.6273639 2.82538528,34.0714843 C3.0125163,35.9261391 3.97338303,37.7039674 5.53063481,39.0775373 C7.00899163,40.3818552 8.95267659,41.2072523 10.838766,41.2057374 C13.9580511,48.3631467 21.0851133,52.753939 29.4414589,53.0010821 C38.405274,53.2661873 45.9298538,49.077957 49.0828268,41.5548107 C49.2890838,41.0267643 50.164318,38.6477421 50.164318,36.5476756 C50.164318,34.4370049 48.965897,33.5622658 48.2028111,33.5622658 L48.2028111,33.5622658 Z" id="Fill-21" fill="#1A1919" mask="url(#mask-4)"></path>
                </g>
            </g>
        </g>
    </g>
</svg>