<?xml version="1.0" encoding="UTF-8"?>
<svg width="206px" height="16px" viewBox="0 0 206 16" version="1.1" xmlns="http://www.w3.org/2000/svg" xmlns:xlink="http://www.w3.org/1999/xlink">
    <title>B35868E1-CD18-409A-A6C7-D55BB22B87F3</title>
    <g id="Mercury-Labs" stroke="none" stroke-width="1" fill="none" fill-rule="evenodd">
        <g id="AICommerceAgencyWF_DT-Copy-28" transform="translate(-988.000000, -2847.000000)" fill="#404041" fill-rule="nonzero">
            <g id="Group" transform="translate(988.000000, 2847.000000)">
                <polygon id="Path" points="0 0.221793813 3.77518659 0.221793813 7.96031646 6.79971847 12.1454463 0.221793813 15.9201318 0.221793813 15.9201318 15.7762477 12.4406255 15.7762477 12.4406255 5.62220386 7.96031646 12.2657364 7.86910659 12.2657364 3.43440246 5.68830136 3.43440246 15.7762477 0 15.7762477"></polygon>
                <polygon id="Path" points="24.2944007 0.221793813 36.3030322 0.221793813 36.3030322 3.26619542 27.7744081 3.26619542 27.7744081 6.42124912 35.2796775 6.42124912 35.2796775 9.46565072 27.7744081 9.46565072 27.7744081 12.7323358 36.416794 12.7323358 36.416794 15.7762477 24.2944007 15.7762477"></polygon>
                <polygon id="Path" points="47.7924691 3.37782674 42.9483228 3.37782674 42.9483228 0.222283424 56.1391746 0.222283424 56.1391746 3.37782674 51.2945272 3.37782674 51.2945272 15.7762477 47.7924691 15.7762477"></polygon>
                <path d="M66.7856719,0.111141712 L70.0156039,0.111141712 L76.839305,15.7762477 L73.177379,15.7762477 L71.7220303,12.2877689 L64.989539,12.2877689 L63.533188,15.7762477 L59.9624719,15.7762477 L66.7856719,0.111141712 Z M70.4711521,9.26588941 L68.3557847,4.22191622 L66.2404173,9.26588941 L70.4711521,9.26588941 Z" id="Shape"></path>
                <polygon id="Path" points="83.8484328 0.221793813 87.3509921 0.221793813 87.3509921 12.665259 95.2882555 12.665259 95.2882555 15.7762477 83.8484328 15.7762477"></polygon>
                <g transform="translate(101.385786, 0.000000)" id="Clipped">
                    <g>
                        <path d="M0,13.5098381 L2.06926131,11.0887114 C3.50205813,12.2432143 5.00351294,12.9761621 6.82219768,12.9761621 C8.2539922,12.9761621 9.11948367,12.4209431 9.11948367,11.5102665 L9.11948367,11.4652223 C9.11948367,10.5981211 8.57422905,10.1540439 5.91310588,9.48817283 C2.70773041,8.68814835 0.637466793,7.82251599 0.637466793,4.73258056 L0.637466793,4.68753634 C0.637466793,1.86590777 2.95730467,0 6.20878624,0 C8.52962642,0 10.5076779,0.711404878 12.1228944,1.97753909 L10.3022051,4.55534135 C8.8934636,3.60059977 7.50577056,3.02187949 6.16368245,3.02187949 C4.82159435,3.02187949 4.11697304,3.62263227 4.11697304,4.37810215 L4.11697304,4.42314636 C4.11697304,5.44496466 4.79904246,5.7788794 7.5523778,6.46727256 C10.7793029,7.28981915 12.5989899,8.42326877 12.5989899,11.1327764 L12.5989899,11.1778206 C12.5989899,14.2667768 10.1879422,16 6.75554431,16 C4.34399541,15.9985312 1.91089692,15.1759846 0,13.5098381" id="Path"></path>
                    </g>
                    <g transform="translate(20.541766, 0.222283)">
                        <path d="M0,0 L5.52621566,0 C10.5297286,0 13.9871841,3.35530463 13.9871841,7.73242755 L13.9871841,7.77698216 C13.9871841,12.1536155 10.5302298,15.5539643 5.52621566,15.5539643 L0,15.5539643 L0,0 Z M1.79713516,1.62159185 L1.79713516,13.9323725 L5.52621566,13.9323725 C9.55197883,13.9323725 12.1223933,11.2664402 12.1223933,7.82251599 L12.1223933,7.77796138 C12.1223933,4.33403715 9.55197883,1.62355029 5.52621566,1.62355029 L1.79713516,1.62355029 L1.79713516,1.62159185 Z" id="Shape"></path>
                    </g>
                    <g transform="translate(40.468116, 0.111142)">
                        <path d="M7.2561963,0 L8.93856738,0 L16.1947637,15.6646164 L14.261816,15.6646164 L12.3960229,11.5538419 L3.73158627,11.5538419 L1.84324124,15.6646164 L0,15.6646164 L7.2561963,0 Z M11.6914016,9.95477218 L8.07558168,2.04461581 L4.43520528,9.95477218 L11.6914016,9.95477218 Z" id="Shape"></path>
                    </g>
                    <g transform="translate(64.512942, 0.221794)">
                        <rect id="Rectangle" x="0" y="0" width="1.79713516" height="15.5544539"></rect>
                    </g>
                    <g transform="translate(75.522776, 0.221794)">
                        <polygon id="Path" points="0 0 1.79713516 0 1.79713516 13.9323725 10.7582544 13.9323725 10.7582544 15.5544539 0 15.5544539"></polygon>
                    </g>
                    <g transform="translate(89.558071, 0.221794)">
                        <polygon id="Path" points="6.6187295 9.39955323 0 0 2.18352423 0 7.5513755 7.77747177 12.9643305 0 15.0561437 0 8.43841655 9.37752073 8.43841655 15.5544539 6.6187295 15.5544539"></polygon>
                    </g>
                </g>
            </g>
        </g>
    </g>
</svg>