<?xml version="1.0" encoding="UTF-8"?>
<svg width="149px" height="32px" viewBox="0 0 149 32" version="1.1" xmlns="http://www.w3.org/2000/svg" xmlns:xlink="http://www.w3.org/1999/xlink">
    <title>695DFB0B-20C6-4949-AE87-AD5A8B722F24</title>
    <g id="Mercury-Labs" stroke="none" stroke-width="1" fill="none" fill-rule="evenodd">
        <g id="AICommerceAgencyWF_DT-Copy-28" transform="translate(-722.000000, -3089.000000)" fill-rule="nonzero">
            <g id="Group-7" transform="translate(661.683841, 3051.346280)">
                <g id="Group" transform="translate(60.316159, 37.653720)">
                    <g transform="translate(30.765051, 8.000000)" fill="#05053C" id="Shape">
                        <g>
                            <path d="M11.4316453,1.344 C12.4679418,2.24 12.98609,3.52 12.98609,5.152 C12.98609,6.752 12.4679418,7.968 11.4316453,8.864 C10.3953489,9.76 8.90567269,10.208 7.02738538,10.208 L3.3679635,10.208 L3.3679635,16 L0,16 L0,0 L7.02738538,0 C8.90567269,0 10.3953489,0.448 11.4316453,1.344 Z M8.84090421,6.976 C9.32666811,6.56 9.58574226,5.952 9.58574226,5.12 C9.58574226,4.288 9.32666811,3.68 8.84090421,3.264 C8.35514023,2.848 7.57791787,2.656 6.54162141,2.656 L3.40034776,2.656 L3.40034776,7.584 L6.54162141,7.584 C7.57791787,7.584 8.35514023,7.392 8.84090421,6.976 Z"></path>
                            <path d="M47.3134103,4.768 C48.1230169,5.536 48.5440123,6.624 48.5440123,8.032 L48.5440123,16 L45.1760488,16 L45.1760488,8.704 C45.1760488,7.872 44.9817433,7.232 44.6255163,6.848 C44.2369052,6.464 43.7187569,6.24 43.0710717,6.24 C42.2938493,6.24 41.646164,6.528 41.1280158,7.104 C40.6098676,7.68 40.3831777,8.448 40.3831777,9.472 L40.3831777,16 L37.0152142,16 L37.0152142,8.704 C37.0152142,7.872 36.8209086,7.232 36.4646817,6.848 C36.0760706,6.464 35.5579223,6.24 34.910237,6.24 C34.165399,6.24 33.5500979,6.528 32.9995654,7.072 C32.4814172,7.616 32.1899588,8.448 32.1899588,9.568 L32.1899588,16 L28.8219953,16 L28.8219953,3.872 L31.8337319,3.872 L31.9308847,6.016 C32.3518802,5.216 32.9024126,4.64 33.6148664,4.224 C34.3273202,3.808 35.1369268,3.616 36.011302,3.616 C36.9180614,3.616 37.727668,3.84 38.4401218,4.256 C39.1525756,4.672 39.6707239,5.28 39.9945665,6.08 C40.3831777,5.28 40.9660945,4.672 41.7109326,4.256 C42.4557706,3.84 43.2653772,3.616 44.1721366,3.616 C45.4351229,3.648 46.5038037,4.032 47.3134103,4.768 Z" id="Path"></path>
                            <path d="M62.7930886,13.888 L62.5340146,15.904 C62.0806348,16.128 61.5301024,16.256 60.9471856,16.256 C59.3927409,16.256 58.421213,15.648 58.1297546,14.432 C57.7735277,15.04 57.2229952,15.488 56.4457729,15.776 C55.7009347,16.096 54.7941753,16.224 53.7578789,16.224 C52.5596611,16.224 51.6205175,15.968 50.9728321,15.424 C50.2927626,14.88 49.9689199,14.112 49.9689199,13.12 C49.9689199,11.136 51.5557489,9.856 54.7617911,9.28 L57.7087591,8.736 L57.7087591,8.16 C57.7087591,7.52 57.5144536,7.008 57.1582267,6.624 C56.8019997,6.24 56.2838515,6.048 55.6361663,6.048 C54.8913281,6.048 54.2760271,6.208 53.7902631,6.528 C53.3044992,6.848 52.9806565,7.392 52.8187353,8.096 L50.1308413,6.976 C50.3899154,5.92 50.9728321,5.088 51.9119759,4.512 C52.8187353,3.904 54.016953,3.616 55.5066292,3.616 C57.2553795,3.616 58.6155186,4 59.6194308,4.736 C60.5909587,5.472 61.0767226,6.592 61.0767226,8.064 L61.0767226,13.024 C61.0767226,13.344 61.1414912,13.568 61.3034125,13.728 C61.4653338,13.888 61.6920237,13.952 61.983482,13.952 C62.3073247,13.984 62.5663988,13.952 62.7930886,13.888 Z M56.834384,13.472 C57.4173008,13.12 57.7411434,12.64 57.7411434,12.064 L57.7411434,10.816 L55.118018,11.392 C54.5674855,11.52 54.1464901,11.68 53.8874159,11.904 C53.6283419,12.128 53.4664205,12.416 53.4664205,12.8 C53.4664205,13.184 53.5959576,13.472 53.8226475,13.696 C54.0817215,13.888 54.4055642,13.984 54.8589439,13.984 C55.5713977,13.984 56.219083,13.824 56.834384,13.472 Z"></path>
                            <path d="M23.2195176,16 L26.5874811,16 L26.5874811,3.872 L23.2195176,3.872 L23.2195176,16 Z M23.2195176,0 L23.2195176,2.368 L26.5874811,2.368 L26.5874811,0 L23.2195176,0 Z"></path>
                            <path d="M18.0704195,9.952 L18.0704195,9.952 C18.0704195,9.312 18.1675723,8.8 18.3294937,8.352 C18.4590307,8 18.6533363,7.68 18.8800261,7.424 C19.3981743,6.88 20.0458597,6.592 20.7906977,6.592 L20.7906977,6.592 C20.9850033,6.592 21.1793089,6.624 21.3412303,6.656 L21.7298414,3.872 C21.6003043,3.872 21.6650729,3.84 21.5355358,3.84 C19.6572485,3.84 18.3618779,4.704 17.6818083,6.464 L17.5522713,3.872 L14.7024561,3.872 L14.7024561,16 L18.0704195,16 L18.0704195,9.952 L18.0704195,9.952 Z" id="Path"></path>
                            <path d="M67.35927,9.952 L67.35927,9.952 C67.35927,9.312 67.4564228,8.8 67.618344,8.352 C67.7478812,8 67.9421867,7.68 68.1688766,7.424 C68.6870248,6.88 69.33471,6.592 70.0795482,6.592 C70.0795482,6.592 70.0795482,6.592 70.0795482,6.592 C70.2738538,6.592 70.4681594,6.624 70.6300806,6.656 L71.0186918,3.872 C70.8891548,3.872 70.9539233,3.84 70.8243862,3.84 C68.9460989,3.84 67.6507284,4.704 66.9706588,6.464 L66.8411217,3.872 L63.9913064,3.872 L63.9913064,16 L67.35927,16 L67.35927,9.952 Z" id="Path"></path>
                            <path d="M80.2805915,16.224 C79.6652904,17.888 78.9852209,19.04 78.1756143,19.68 C77.3660076,20.352 76.3297112,20.672 75.0019564,20.672 C73.6742015,20.672 72.637905,20.352 71.893067,19.712 L72.7350578,17.376 C72.994132,17.664 73.2855904,17.856 73.609433,17.984 C73.9332756,18.08 74.3218868,18.144 74.8076508,18.144 C75.325799,18.144 75.7144102,18.048 76.0382528,17.824 C76.3620954,17.6 76.6211696,17.248 76.8154752,16.672 L77.042165,16.16 L75.6820259,13.024 L71.9254512,3.872 L75.6496416,3.872 L77.9489244,11.136 L78.5966097,13.568 L79.3414478,11.008 L81.6083464,3.872 L85.0086938,3.872 L80.2805915,16.224 Z" id="Path"></path>
                        </g>
                        <g transform="translate(86.012606, 0.000000)">
                            <path d="M0.0323842643,0 L6.86546405,0 C8.8085199,0 10.2334275,0.384 11.1725712,1.12 C12.1117149,1.856 12.5974789,2.944 12.5974789,4.352 C12.5974789,5.248 12.3384047,6.016 11.7878723,6.656 C11.2373397,7.296 10.4925017,7.712 9.52097371,7.872 L9.52097371,7.904 C10.6220387,8.064 11.4964139,8.48 12.1117149,9.152 C12.7270159,9.824 13.0184743,10.624 13.0184743,11.584 C13.0184743,12.96 12.5003261,14.048 11.4964139,14.816 C10.4925017,15.584 9.00282549,15.968 7.0921539,15.968 L0,15.968 L0,0 L0.0323842643,0 Z M6.41208435,6.72 C8.22560312,6.72 9.09997828,6.048 9.09997828,4.672 C9.09997828,3.296 8.19321888,2.624 6.41208435,2.624 L3.33557923,2.624 L3.33557923,6.72 L6.41208435,6.72 Z M6.83307979,13.472 C7.73983919,13.472 8.41990871,13.28 8.87328845,12.928 C9.32666812,12.576 9.55335803,12.032 9.55335803,11.36 C9.55335803,10.688 9.32666812,10.176 8.87328845,9.824 C8.41990871,9.472 7.73983919,9.28 6.83307979,9.28 L3.33557923,9.28 L3.33557923,13.472 L6.83307979,13.472 L6.83307979,13.472 Z"></path>
                            <path d="M32.222343,0 L32.222343,16 L29.2429908,16 L29.0810694,13.76 C28.7248425,14.528 28.17431,15.136 27.4618562,15.584 C26.7494024,16.032 25.9397958,16.256 25.0330364,16.256 C23.3814389,16.256 22.1184526,15.712 21.1793089,14.592 C20.2401653,13.472 19.7867855,11.936 19.7867855,9.984 C19.7867855,8 20.2401653,6.432 21.1793089,5.344 C22.1184526,4.224 23.3814389,3.68 25.0330364,3.68 C25.9074115,3.68 26.6846338,3.872 27.3323192,4.288 C27.9800044,4.672 28.4981526,5.216 28.8543796,5.92 L28.8543796,0 L32.222343,0 Z M28.1095415,12.736 C28.6276897,12.096 28.8543796,11.2 28.8543796,10.048 L28.8543796,9.792 C28.8543796,8.64 28.5953054,7.744 28.1095415,7.104 C27.5913932,6.464 26.9113237,6.144 26.0369486,6.144 C25.1301892,6.144 24.4177354,6.464 23.9319714,7.104 C23.4138232,7.744 23.1871333,8.672 23.1871333,9.888 C23.1871333,11.104 23.4462074,12.032 23.9319714,12.672 C24.4501196,13.312 25.1301892,13.632 26.0369486,13.632 C26.9113237,13.696 27.5913932,13.376 28.1095415,12.736 Z"></path>
                            <path d="M14.7348403,16 L18.1028038,16 L18.1028038,3.872 L14.7348403,3.872 L14.7348403,16 Z M14.7348403,0 L14.7348403,2.368 L18.1028038,2.368 L18.1028038,0 L14.7348403,0 Z"></path>
                        </g>
                    </g>
                    <g id="Shape">
                        <path d="M17.7789611,20.992 C17.8113455,21.184 17.8113455,21.408 17.8113455,21.6 C17.8113455,25.568 14.5405347,28.8 10.5248859,28.8 L3.23842644,28.8 L3.23842644,20.8 L10.5248859,20.8 C13.0184743,20.8 15.2853728,19.936 17.0988916,18.496 L17.0988916,18.496 C17.0988916,18.496 17.0988916,18.496 17.0988916,18.496 C17.3255815,18.336 17.5198871,18.144 17.7465769,17.952 C17.7465769,17.952 17.7465769,17.952 17.7465769,17.952 C19.7867855,16.064 21.0497719,13.376 21.0497719,10.4 C21.0497719,4.672 16.3216693,0 10.5248859,0 L0,0 L0,14.4 L10.5248859,14.4 C12.2412519,14.4 13.8280809,15.008 15.0910672,16 C13.8280809,16.992 12.2412519,17.6 10.5248859,17.6 L0,17.6 L0,32 L10.5248859,32 C16.3216693,32 21.0497719,27.328 21.0497719,21.6 C21.0497719,20.512 20.8878505,19.456 20.5640079,18.464 C19.7544013,19.456 18.8152577,20.288 17.7789611,20.992 Z M3.23842644,11.2 L3.23842644,3.2 L10.5248859,3.2 C14.5405347,3.2 17.8113455,6.432 17.8113455,10.4 C17.8113455,11.52 17.5522713,12.544 17.0988916,13.504 C15.2853728,12.064 13.0184743,11.2 10.5248859,11.2 L3.23842644,11.2 Z" fill="#00C3B9"></path>
                        <path d="M20.5640079,18.464 C20.2725495,17.568 19.8839383,16.736 19.3981743,16 C18.7828733,16.96 18.005651,17.792 17.1312759,18.496 C17.4875027,19.264 17.7465769,20.096 17.8113455,20.992 C18.8152577,20.288 19.7544013,19.456 20.5640079,18.464 Z" fill="#00969B"></path>
                    </g>
                </g>
            </g>
        </g>
    </g>
</svg>