<?xml version="1.0" encoding="UTF-8"?>
<svg width="202px" height="40px" viewBox="0 0 202 40" version="1.1" xmlns="http://www.w3.org/2000/svg" xmlns:xlink="http://www.w3.org/1999/xlink">
    <title>AE0EDD7D-4F34-4D54-AB49-CC1D31014990</title>
    <g id="Product-Marketing" stroke="none" stroke-width="1" fill="none" fill-rule="evenodd">
        <g id="AICommerceAgencyWF_DT-Copy-24" transform="translate(-960.000000, -3340.000000)" fill="#3901F1">
            <g id="recharge-payments-logo-vector" transform="translate(960.000000, 3340.000000)">
                <path d="M40.3360841,20 C40.3360841,31.0517529 31.3126529,40 20.1680421,40 C9.02343117,40 0,31.0517529 0,20 C0,8.94824708 9.02343117,0 20.1680421,0 C31.3126529,0 40.3360841,8.94824708 40.3360841,20 L40.3360841,20 Z M12.1210269,27.9131886 L22.1208742,27.9131886 C22.2892218,27.9131886 22.3565608,27.7128548 22.2892218,27.5792988 L14.2085371,17.6627713 C14.0738591,17.5292154 13.9055115,17.5959933 13.8718419,17.7295492 L11.9190098,27.6460768 C11.8853403,27.8130217 11.9863489,27.9131886 12.1210269,27.9131886 L12.1210269,27.9131886 Z M11.9190098,12.9549249 L21.9188571,12.9549249 C22.0535351,12.9549249 22.1545437,13.0884808 22.1208742,13.1886477 L20.1680421,23.1051753 C20.1343725,23.2721202 19.9323554,23.3055092 19.8313469,23.1719533 L11.7506622,13.2220367 C11.6833232,13.1218698 11.7506622,12.9549249 11.9190098,12.9549249 L11.9190098,12.9549249 Z M22.9289426,13.0884808 C22.9626122,13.0217028 23.0299512,12.9215359 23.1309598,12.9215359 L30.3362369,12.9215359 C30.470915,12.9215359 30.5719235,13.0550918 30.538254,13.1552588 L29.1914732,19.5993322 C29.1578037,19.6994992 29.0904647,19.7662771 28.9894561,19.7662771 L28.787439,19.7662771 C25.2521395,19.7662771 22.4238998,16.5275459 22.9289426,13.0884808 L22.9289426,13.0884808 Z M55.2180116,11.5525876 L62.4232888,11.5525876 C62.759984,11.5525876 62.9956706,11.7529215 62.894662,12.1202003 L62.4906278,14.4240401 C63.9047476,12.3873122 65.9585883,11.1519199 68.079768,11.1519199 C69.1235231,11.1519199 70.2346172,11.5525876 70.8406686,12.1202003 C71.1773638,12.4540902 71.1773638,12.654424 70.9416771,12.9883139 L68.8541669,15.9265442 C68.5848108,16.293823 68.4164632,16.2604341 67.9787594,16.0601002 C67.5747252,15.8931553 67.0360129,15.7262104 66.4973006,15.7262104 C64.0057562,15.7262104 61.8845765,17.3622705 60.9081604,22.3038397 L59.4603711,29.7495826 C59.3593625,30.2504174 58.9889978,30.3505843 58.7869807,30.3505843 L54.982325,30.3505843 C54.6792993,30.3505843 54.4099432,30.0834725 54.5109517,29.7495826 L57.3391914,15.4257095 L54.9486555,12.0868114 C54.7466384,11.8196995 54.8813164,11.5525876 55.2180116,11.5525876 L55.2180116,11.5525876 Z M68.988845,20.8013356 C69.9652611,14.9916528 74.2749596,11.1519199 79.8640998,11.1519199 C85.5542485,11.1519199 88.2478101,15.6594324 87.4397416,20.5342237 C87.2377245,21.803005 86.8000207,22.8046745 85.7562656,22.8046745 L73.6352387,22.8046745 C73.7362472,25.542571 75.6554098,26.8447412 78.2142933,26.8447412 C79.8977693,26.8447412 81.4802367,26.2103506 82.6586699,25.442404 C82.9616955,25.2086811 83.2983907,25.1085142 83.5004078,25.442404 L84.8808581,27.5792988 C85.1165448,27.9131886 84.9818667,28.1469115 84.6451715,28.4474124 C82.860687,30.0834725 79.9314388,30.8180301 77.2715468,30.8180301 C71.3120419,30.8180301 68.079768,26.4440735 68.988845,20.8013356 L68.988845,20.8013356 Z M83.0963736,19.5325543 C83.2647212,16.5943239 81.24455,15.3589316 79.3253874,15.3589316 C76.766504,15.3589316 74.8136719,17.0617696 74.0392729,19.5325543 L83.0963736,19.5325543 Z M105.553943,29.8831386 L109.897311,7.91318865 L107.776131,5.10851419 C107.675123,4.9081803 107.809801,4.67445743 108.079157,4.67445743 L114.745722,4.67445743 C115.116086,4.67445743 115.318104,4.9081803 115.217095,5.24207012 L113.264263,14.9248748 C114.745722,12.687813 117.00158,11.1853088 119.627802,11.1853088 C123.836492,11.1853088 126.227028,14.7579299 125.317951,19.1318865 L123.163102,29.7829716 C123.095763,30.1836394 122.759067,30.3839733 122.489711,30.3839733 L118.550377,30.3839733 C118.180013,30.3839733 117.977996,30.1502504 118.045335,29.7829716 L119.998167,20.1669449 C120.50321,17.5626043 119.79615,15.9599332 118.213682,15.9599332 C115.217095,15.9599332 112.860229,19.2988314 111.850143,24.0066778 L110.570701,29.9165275 C110.537032,30.1502504 110.335015,30.3505843 110.065659,30.3505843 L105.924308,30.3505843 C105.688621,30.3171953 105.520273,30.1168614 105.553943,29.8831386 L105.553943,29.8831386 Z M126.664732,21.0016694 C127.641148,14.7913189 132.051855,11.1185309 137.203291,11.1185309 C139.930522,11.1185309 142.051702,12.3539232 142.89344,14.3906511 L143.331144,12.1202003 C143.398483,11.7195326 143.701508,11.5191987 144.038204,11.5191987 L147.674512,11.5191987 C148.078546,11.5191987 148.246893,11.7863105 148.145885,12.1202003 L144.677924,29.7495826 C144.610585,30.0834725 144.374899,30.3171953 143.970864,30.3171953 L140.300887,30.3171953 C139.964192,30.3171953 139.795844,30.1168614 139.863183,29.7495826 L140.199878,27.9131886 C138.482733,29.8497496 136.361553,30.8182214 134.038356,30.8182214 C128.752242,30.851419 125.789324,26.5108514 126.664732,21.0016694 L126.664732,21.0016694 Z M135.519815,26.3439065 C138.550072,26.3439065 140.80593,23.8063439 141.243633,20.8681135 C141.681337,17.8964942 140.0652,15.6594324 137.27063,15.6594324 C134.274043,15.6594324 132.119194,18.0634391 131.614151,20.9015025 C131.142778,23.7729549 132.590567,26.3439065 135.519815,26.3439065 L135.519815,26.3439065 Z M147.034791,29.7161937 L150.57009,12.0200334 C150.637429,11.7195326 150.805777,11.5525876 151.007794,11.5525876 L154.980797,11.5525876 C155.317492,11.5525876 155.553179,11.7529215 155.452171,12.1202003 L155.048136,14.4240401 C156.462256,12.3873122 158.516097,11.1519199 160.603607,11.1519199 C161.647362,11.1519199 162.792126,11.5525876 163.364508,12.1202003 C163.701203,12.4540902 163.701203,12.654424 163.465516,12.9883139 L161.378006,15.9265442 C161.10865,16.293823 160.906633,16.2604341 160.502598,16.0601002 C160.098564,15.8931553 159.559852,15.7262104 158.98747,15.7262104 C156.495926,15.7262104 154.374746,17.3622705 153.431999,22.3038397 L151.98421,29.7495826 C151.883202,30.2504174 151.479167,30.3505843 151.31082,30.3505843 L147.506164,30.3505843 C147.236808,30.3171953 146.967452,30.0500835 147.034791,29.7161937 L147.034791,29.7161937 Z M160.098564,35.6928214 C159.862878,35.5258765 159.862878,35.2253756 160.031225,34.9582638 L161.78204,32.2203673 C161.984057,31.9198664 162.253413,31.8530885 162.4891,32.0200334 C164.206246,33.0884808 165.889722,33.7562604 167.943562,33.7562604 C171.546201,33.7562604 174.542788,32.3205342 175.586543,27.5125209 C173.600041,29.3489149 171.781887,30.2504174 168.987317,30.2504174 C163.566525,30.2504174 160.738285,25.7429048 161.613693,20.6677796 C162.623778,14.9582638 166.933477,11.0851419 172.354269,11.0851419 C175.350856,11.0851419 177.404697,12.754591 178.044418,14.1235392 L178.482122,12.0868114 C178.549461,11.6861436 178.818817,11.4858097 179.121843,11.4858097 L182.79182,11.4858097 C183.162185,11.4858097 183.364202,11.7195326 183.296863,12.0868114 L180.232937,27.6126878 C178.886156,34.3572621 174.172423,37.8964942 167.775215,37.8964942 C165.081653,37.9298831 162.051396,37.2621035 160.098564,35.6928214 L160.098564,35.6928214 Z M170.435107,25.9432387 C173.465363,25.9432387 175.721221,23.5392321 176.158925,20.6677796 C176.596629,17.7963272 175.014161,15.6594324 172.185922,15.6594324 C169.189334,15.6594324 167.034485,17.9966611 166.529442,20.7011686 C166.058069,23.4724541 167.505858,25.9432387 170.435107,25.9432387 L170.435107,25.9432387 Z M183.431541,20.8013356 C184.407957,14.9916528 188.717656,11.1519199 194.306796,11.1519199 C199.996945,11.1519199 202.690506,15.6594324 201.848768,20.5342237 C201.680421,21.803005 201.209047,22.8046745 200.165292,22.8046745 L188.044265,22.8046745 C188.145274,25.542571 190.064436,26.8447412 192.62332,26.8447412 C194.306796,26.8447412 195.889263,26.2103506 197.067696,25.442404 C197.370722,25.2086811 197.707417,25.1085142 197.909434,25.442404 L199.289885,27.5792988 C199.525571,27.9131886 199.390893,28.1469115 199.054198,28.4474124 C197.269714,30.0834725 194.340465,30.8180301 191.680573,30.8180301 C185.754738,30.8180301 182.522464,26.4440735 183.431541,20.8013356 L183.431541,20.8013356 Z M197.53907,19.5325543 C197.707417,16.5943239 195.687246,15.3589316 193.768084,15.3589316 C191.2092,15.3589316 189.256368,17.0617696 188.481969,19.5325543 L197.53907,19.5325543 Z M97.1702327,30.851419 C99.6954466,30.851419 102.153322,30.1502504 104.409179,28.0467446 C104.745875,27.7462437 104.779544,27.345576 104.543857,27.1118531 L102.490017,24.8414023 C102.288,24.6076795 101.984974,24.6076795 101.749287,24.8080134 C100.87388,25.442404 99.4934295,26.1769616 97.8436231,26.1769616 C94.8807054,26.1769616 93.2308989,23.8731219 93.6012636,21.0016694 C93.9716283,18.130217 96.2611557,15.8263773 99.1567343,15.8263773 C100.739202,15.8263773 101.749287,16.39399 102.860381,17.4958264 C103.163407,17.7963272 103.331755,17.7963272 103.66845,17.5292154 L106.328342,15.2587646 C106.597698,15.0250417 106.665037,14.7913189 106.46302,14.490818 C104.846883,12.2203673 102.355339,11.1519199 99.5944381,11.1519199 C94.0052979,11.1519199 89.4935823,15.2587646 88.7528528,20.7345576 C87.9447844,26.6444073 91.9177877,30.851419 97.1702327,30.851419 L97.1702327,30.851419 Z" id="Shape"></path>
            </g>
        </g>
    </g>
</svg>