<?xml version="1.0" encoding="UTF-8"?>
<svg width="179px" height="36px" viewBox="0 0 179 36" version="1.1" xmlns="http://www.w3.org/2000/svg" xmlns:xlink="http://www.w3.org/1999/xlink">
    <title>5D9D5BFC-C5A6-4689-92F9-28C9F945F6D5</title>
    <g id="Product-Marketing" stroke="none" stroke-width="1" fill="none" fill-rule="evenodd">
        <g id="AICommerceAgencyWF_DT-Copy-22" transform="translate(-154.000000, -3497.000000)" fill="#000000" fill-rule="nonzero">
            <g id="shopify-plus-logo--black" transform="translate(154.000000, 3497.000000)">
                <path d="M139.501926,13.6093459 C137.221871,13.6093459 135.351008,14.3858898 134.021366,15.8693817 L134.278867,14.5617111 C134.360331,14.1477985 134.07193,13.7979875 133.648692,13.7979875 C133.225454,13.7979875 132.79847,14.1477985 132.717942,14.5617111 L128.778644,34.5622949 C128.69718,34.9762075 128.985581,35.3260185 129.408819,35.3260185 C129.832057,35.3260185 130.259041,34.9762075 130.340505,34.5622949 L131.803111,27.1338468 C132.341522,28.0834647 133.590637,29.3856409 136.395058,29.3856409 C138.588967,29.3856409 140.42893,28.7263112 141.865318,27.424135 C143.347588,26.0807507 144.358865,24.0816996 144.871058,21.4810102 C145.383251,18.8821522 145.157587,16.8876798 144.202492,15.5534528 C143.279233,14.264097 141.696772,13.6093459 139.501926,13.6093459 Z M136.671286,27.9863967 C133.335009,27.9863967 132.01473,25.7373498 132.852779,21.4828416 C133.699256,17.1880411 135.810765,15.0104216 139.130188,15.0104216 C142.757676,15.0104216 144.103237,17.1276026 143.245524,21.4828416 C142.370956,25.9195812 140.28192,27.9863967 136.671286,27.9863967 Z" id="Shape"></path>
                <path d="M173.492072,20.6376176 C171.513527,19.9196808 169.643601,19.2420363 169.99942,17.438037 C170.178267,16.5314586 170.93017,15.0095058 173.961192,15.0095058 C175.664445,15.0095058 176.739395,15.4701209 177.671081,16.6001388 C177.846181,16.810758 178.044691,16.810758 178.129901,16.810758 C178.517557,16.810758 178.908959,16.4902505 178.983868,16.1102202 C179.025068,15.9041796 178.984804,15.7823868 178.892104,15.6203016 C178.888359,15.6138914 178.884613,15.6074813 178.879931,15.6010711 C177.9342,14.2787487 176.372339,13.6084302 174.23742,13.6084302 C171.125871,13.6084302 168.90387,15.0754388 168.437559,17.4371212 C167.881357,20.2649131 170.44045,21.2108681 172.698968,22.0460191 C174.650359,22.7676188 176.495003,23.4489262 176.153229,25.178751 C175.671936,27.6210182 173.053852,27.985481 171.535063,27.985481 C169.441345,27.985481 168.149158,27.4287137 167.211854,26.1228745 C167.209045,26.1192116 167.205299,26.1146329 167.20249,26.11097 C167.086381,25.9708624 166.93188,25.9003507 166.744606,25.9003507 C166.399087,25.9003507 165.973039,26.1823973 165.890639,26.6008886 C165.849439,26.8060134 165.889703,26.9268905 165.982403,27.0898914 C166.606024,28.2318139 168.480632,29.3865566 171.259771,29.3865566 C174.783323,29.3865566 177.196342,27.8133227 177.71509,25.178751 C178.26942,22.3692738 175.730927,21.4489594 173.492072,20.6376176 Z" id="Path"></path>
                <path d="M168.770906,9.65977776 L167.122899,9.65977776 L167.440328,8.04808289 C167.521792,7.63417034 167.23339,7.2843593 166.810152,7.2843593 C166.386914,7.2843593 165.95993,7.63417034 165.878466,8.04808289 L165.561038,9.65977776 L163.913031,9.65977776 C163.489792,9.65977776 163.063745,10.0095888 162.982281,10.4235013 C162.900817,10.8374139 163.189218,11.1872249 163.612457,11.1872249 L165.260464,11.1872249 L164.943035,12.7989198 C164.861571,13.2128323 165.149972,13.5626434 165.573211,13.5626434 C165.996449,13.5626434 166.423432,13.2128323 166.50396,12.7989198 L166.821389,11.1872249 L168.469396,11.1872249 C168.891697,11.1872249 169.318681,10.8374139 169.400145,10.4235013 C169.483482,10.0105045 169.194144,9.65977776 168.770906,9.65977776 Z" id="Path"></path>
                <path d="M37.9256991,25.1824139 C38.7262935,25.5899163 40.1673633,26.1530938 41.5447601,26.1219588 C42.7938745,26.1219588 43.4661865,25.4635448 43.4661865,24.6503715 C43.4661865,23.8674174 42.9858299,23.335375 41.6402696,22.583556 C39.9754079,21.6440111 38.7262935,20.3280989 38.7262935,18.6056 C38.7262935,15.5671889 41.3846412,13.4060526 45.2593306,13.4060526 C46.9569651,13.4060526 48.2697526,13.7192342 48.9739011,14.1267366 L47.9495149,17.1962827 C47.3408759,16.9142361 46.3483262,16.6010545 45.1956576,16.6010545 C43.9465431,16.6010545 43.1459488,17.1651477 43.1459488,18.0415068 C43.1459488,18.7301401 43.7227513,19.2319632 44.8435833,19.8271915 C46.5730544,20.7978713 48.0141242,22.1137835 48.0141242,23.9617382 C48.0141242,27.406736 45.1638211,29.3490115 41.1926859,29.3178765 C39.3667689,29.2867414 37.6691344,28.8160533 36.8376399,28.2528758 L37.9256991,25.1824139 Z" id="Path"></path>
                <path d="M48.9111644,29.232713 L53.2025374,7.30175828 L57.6221927,7.30175828 L55.9245582,15.8034487 L55.9882312,15.7475888 C57.1727362,14.3694066 58.7102519,13.4179572 60.6635149,13.4179572 C62.9697884,13.4179572 64.2825758,14.8684825 64.2825758,17.3116654 C64.2825758,18.0634845 64.1542935,19.2786658 63.9623381,20.2191263 L62.2328671,29.2336288 L57.8132117,29.2336288 L59.4780734,20.4892684 C59.6054194,19.8940402 59.6709652,19.1239064 59.6709652,18.5295939 C59.6709652,17.5900491 59.2870544,16.907826 58.2935683,16.907826 C56.884335,16.907826 55.3786558,18.7484548 54.8027897,21.5991401 L53.328947,29.2336288 L48.9111644,29.2336288 L48.9111644,29.232713 Z" id="Path"></path>
                <path d="M80.2654353,19.4196891 C80.2654353,24.7758273 76.7418839,29.3490115 71.5216342,29.3490115 C67.550499,29.3490115 65.4371172,26.654917 65.4371172,23.3033242 C65.4371172,18.0726418 68.9606687,13.3740018 74.2764278,13.3740018 C78.4086183,13.3749176 80.2654353,16.3190079 80.2654353,19.4196891 Z M69.9532184,23.2099192 C69.9532184,24.7758273 70.5936938,26.0285537 72.099373,26.0285537 C74.4365467,26.0285537 75.7502705,21.956277 75.7502705,19.2942333 C75.7502705,18.0103718 75.237141,16.6953751 73.6687252,16.6953751 C71.2660058,16.6944596 69.9532184,20.7346856 69.9532184,23.2099192 Z" id="Shape"></path>
                <path d="M79.2092126,35.324187 L82.2833076,19.5185885 C82.6363182,17.7329039 82.9874561,15.4234184 83.1803479,13.7979875 L87.0878101,13.7979875 L86.8312453,16.2347602 L86.8949183,16.2347602 C88.0794234,14.6102451 89.8098308,13.5196038 91.570202,13.5196038 C94.8044159,13.5196038 96.1181397,16.0461187 96.1181397,18.959074 C96.1181397,24.2218072 92.723807,29.4048713 87.5353938,29.4048713 C86.4463982,29.4048713 85.4538485,29.2317973 84.940719,28.8261264 L84.8442732,28.8261264 L83.6269952,35.324187 L79.2092126,35.324187 Z M85.5193943,25.4644605 C85.9997509,25.8399122 86.5437805,26.0908238 87.3453112,26.0908238 C89.8117036,26.0908238 91.5093381,22.1128678 91.5093381,19.3253683 C91.5093381,18.1669626 91.0926545,16.9453711 89.7480306,16.9453711 C88.2105149,16.9453711 86.7694451,18.7310558 86.257252,21.4242345 L85.5193943,25.4644605 Z" id="Shape"></path>
                <path d="M96.2482948,29.232713 L99.2268803,13.7998189 L103.678372,13.7998189 L100.66795,29.232713 L96.2482948,29.232713 Z M101.981674,12.1753038 C100.73256,12.1753038 99.9001287,11.1304493 99.9001287,9.84658784 C99.9001287,8.43727057 101.020961,7.25688723 102.430194,7.25688723 C103.774818,7.25688723 104.640022,8.29166859 104.640022,9.54439506 C104.608185,11.1414382 103.422744,12.1762195 102.046283,12.1762195 L101.981674,12.1753038 L101.981674,12.1753038 Z" id="Shape"></path>
                <path d="M104.510803,29.232713 L106.848913,17.0488493 L104.799204,17.0488493 L105.43968,13.7998189 L107.489389,13.7998189 L107.617671,13.0232751 C107.970682,11.2064554 108.673894,9.36124791 110.179573,8.10852145 C111.364078,7.10670657 112.93343,6.65341739 114.503719,6.65341739 C115.592714,6.65341739 116.393309,6.80359805 116.905502,7.02245888 L116.041234,10.4015237 C115.657324,10.2769836 115.208803,10.1808314 114.632001,10.1808314 C113.158158,10.1808314 112.261118,11.5516878 112.00549,13.0241908 L111.845371,13.7998189 L114.919466,13.7998189 L114.310827,17.0488493 L111.268568,17.0488493 L108.930458,29.232713 L104.510803,29.232713 L104.510803,29.232713 Z" id="Path"></path>
                <path d="M120.397217,13.7998189 L121.101365,20.7081292 C121.294257,22.2429023 121.421603,23.5469099 121.485276,24.3591675 L121.548949,24.3591675 C121.901959,23.5469099 122.222197,22.3363073 122.862673,20.6769942 L125.552857,13.8007347 L130.164468,13.8007347 L124.752263,25.099082 C122.830836,28.9827172 120.973083,31.8132563 118.95521,33.661211 C117.385858,35.1016633 115.528105,35.8122742 114.631065,36 L113.413787,32.3297312 C114.150708,32.0788196 115.078648,31.7006208 115.912016,31.1063083 C116.936402,30.4176751 117.801606,29.4762987 118.313799,28.5056189 C118.441145,28.286758 118.473917,28.1384088 118.410244,27.8252272 L115.751897,13.8016504 L120.397217,13.7998189 L120.397217,13.7998189 Z" id="Path"></path>
                <path d="M165.155591,15.2512601 C164.732352,15.2512601 164.305369,15.6010711 164.223905,16.0149837 L162.731335,23.5963597 C161.921377,27.4580172 159.496184,27.985481 157.222684,27.985481 C153.127948,27.985481 153.024948,25.7043833 153.464104,23.4727354 L155.218857,14.5626268 C155.300321,14.1487143 155.01192,13.7989032 154.588682,13.7989032 C154.165443,13.7989032 153.73846,14.1487143 153.656996,14.5626268 L151.902243,23.4727354 C151.549232,25.2684931 151.674705,26.6091302 152.288963,27.569737 C153.058657,28.7748452 154.626136,29.3856409 156.946455,29.3856409 C159.266774,29.3856409 161.073964,28.7739294 162.319333,27.569737 C163.311883,26.6091302 163.966404,25.2684931 164.319414,23.4727354 L165.787639,16.0149837 C165.86723,15.6010711 165.578829,15.2512601 165.155591,15.2512601 Z" id="Path"></path>
                <path d="M151.046403,7.32648314 C150.623165,7.32648314 150.196181,7.67629419 150.114717,8.09020673 L146.108936,28.4332757 C146.027472,28.8471883 146.315873,29.1969993 146.739112,29.1969993 C147.16235,29.1969993 147.589333,28.8471883 147.670797,28.4332757 L151.676578,8.09020673 C151.758042,7.67629419 151.469641,7.32648314 151.046403,7.32648314 Z" id="Path"></path>
                <g id="Group">
                    <path d="M21.7134295,4.1104193 C21.7106204,4.11133503 21.3107914,4.23221215 20.634734,4.43733695 C20.5223699,4.07928428 20.3556964,3.6388154 20.1187954,3.19651505 C19.3547194,1.77071453 18.2348237,1.01523256 16.8827088,1.01340109 C16.8808361,1.01340109 16.8798997,1.01340109 16.878027,1.01340109 C16.7843902,1.01340109 16.6907534,1.02164271 16.5971167,1.02988433 C16.5577892,0.983181812 16.5175254,0.93647929 16.4744525,0.892523976 C15.8854773,0.276233836 15.1288922,-0.0241274797 14.224361,0.0015131205 C12.477099,0.0509628494 10.7373279,1.28445886 9.32715821,3.47581444 C8.33367213,5.01791339 7.57989616,6.95561018 7.36546797,8.45466955 C5.35976845,9.06180233 3.95615334,9.48761944 3.92618958,9.4967768 C2.91397614,9.80721121 2.88213964,9.83834622 2.74917543,10.7714809 C2.64898409,11.4775132 0,31.512895 0,31.512895 L21.9802943,35.230782 L21.9802943,4.06646398 C21.8716757,4.07378987 21.7742934,4.09302032 21.7134295,4.1104193 Z M16.6383169,5.64793957 C15.4753482,6.00049782 14.2056337,6.38510682 12.9312373,6.77063156 C13.2898661,5.42907873 13.9687327,4.09302032 14.8030363,3.21757697 C15.1129739,2.89249079 15.5474485,2.52894371 16.0615144,2.3210717 C16.5456165,3.30640333 16.6495533,4.70381604 16.6383169,5.64793957 Z M14.2580703,1.13885688 C14.6681993,1.13061526 15.013719,1.21852589 15.3086748,1.40808319 C14.8367455,1.64800594 14.3797981,1.99232258 13.9518781,2.44103308 C12.8422824,3.60493318 11.9920606,5.41259549 11.6530955,7.1561563 C10.595,7.4766638 9.56031375,7.78984542 8.60896422,8.07830217 C9.20917588,5.33384222 11.5613314,1.21486295 14.2580703,1.13885688 Z M10.8590557,16.7741286 C10.977038,18.6028528 15.8967137,19.0021136 16.1729421,23.2859253 C16.3901794,26.6558327 14.3451525,28.9607395 11.3984035,29.1429709 C7.86174283,29.360916 5.91503447,27.3206568 5.91503447,27.3206568 L6.6641286,24.2025767 C6.6641286,24.2025767 8.6239461,25.6485234 10.1923619,25.5514554 C11.2167481,25.4882697 11.5828679,24.6732649 11.5463495,24.0963514 C11.3927853,21.7108598 7.38700443,21.8509674 7.13324879,17.9316185 C6.92069333,14.6331385 9.13520284,11.2907031 14.023042,10.9885103 C15.9060773,10.8722118 16.870536,11.3419843 16.870536,11.3419843 L15.7525131,15.4307443 C15.7525131,15.4307443 14.5062077,14.8758084 13.0276832,14.9664663 C10.8599921,15.1019951 10.8365829,16.4389693 10.8590557,16.7741286 Z M17.7994127,5.29538132 C17.7863036,4.43001106 17.6804941,3.22673433 17.2684923,2.18645855 C18.5943889,2.43187572 19.2470371,3.89888434 19.5223292,4.77341196 C19.0120089,4.92908703 18.4305245,5.10490829 17.7994127,5.29538132 Z" id="Shape"></path>
                    <path d="M22.7069156,35.1456186 L31.8252638,32.9286224 C31.8252638,32.9286224 27.8990743,6.96934621 27.8747287,6.79077775 C27.8494468,6.61312502 27.6902643,6.51422556 27.5591728,6.50323673 C27.4280813,6.4922479 24.8605612,6.45470274 24.8605612,6.45470274 C24.8605612,6.45470274 23.2949545,4.96846366 22.7069156,4.4052862 L22.7069156,35.1456186 Z" id="Path"></path>
                </g>
            </g>
        </g>
    </g>
</svg>