<?xml version="1.0" encoding="UTF-8"?>
<svg width="76px" height="54px" viewBox="0 0 76 54" version="1.1" xmlns="http://www.w3.org/2000/svg" xmlns:xlink="http://www.w3.org/1999/xlink">
    <title>A196E985-F6E1-40B8-A04D-BD70A5DD153E</title>
    <g id="Mercury-Labs" stroke="none" stroke-width="1" fill="none" fill-rule="evenodd">
        <g id="AICommerceAgencyWF_DT-Copy-28" transform="translate(-1050.000000, -2703.000000)" fill="#000000">
            <g id="Group-8" transform="translate(1050.000000, 2703.000000)">
                <g id="5ea0577744721d33c152b95c_vovi-o-white" transform="translate(25.767721, 22.848436)">
                    <path d="M0,4.04986024 C0,1.8132451 1.82854828,0 4.08425654,0 C6.33974796,0 8.16829624,1.8132451 8.16829624,4.04986024 C8.16829624,6.2866904 6.33974796,8.09993549 4.08425654,8.09993549 C1.82854828,8.09993549 0,6.2866904 0,4.04986024 Z M4.08425654,1.60704303 C2.72363274,1.60704303 1.62060593,2.70083857 1.62060593,4.04986024 C1.62060593,5.39909693 2.72363274,6.49267745 4.08425654,6.49267745 C5.4446635,6.49267745 6.54769031,5.39909693 6.54769031,4.04986024 C6.54769031,2.70083857 5.4446635,1.60704303 4.08425654,1.60704303 Z" id="Shape"></path>
                </g>
                <g id="5ea05776f1d80979719ba92c_vovi-cir-white">
                    <path d="M4.90952094,20.5713979 C8.06226516,9.38208663 18.270955,1.65327185 29.8975124,1.65327185 C41.5240698,1.65327185 51.7327597,9.38208663 54.8855039,20.5713979 L56.4770543,20.1230857 C53.1235232,8.22120553 42.2645527,0 29.8975124,0 C17.5304721,0 6.67150165,8.22120553 3.31797056,20.1230857 L4.90952094,20.5713979 Z M54.8855039,33.4286021 C51.7327597,44.6176984 41.5240698,52.3467281 29.8975124,52.3467281 C18.270955,52.3467281 8.06226516,44.6176984 4.90952094,33.4286021 L3.31797056,33.8769143 C6.67150165,45.7787945 17.5304721,54 29.8975124,54 C42.2645527,54 53.1235232,45.7787945 56.4770543,33.8769143 L54.8855039,33.4286021 Z M3.2414287,30.4402848 L0,24.0116826 L1.44952511,23.2928781 L3.96629967,28.2840863 L6.4828574,23.2928781 L7.9323825,24.0116826 L4.69095381,30.4402848 L3.2414287,30.4402848 Z M55.0552837,23.2928781 L51.813855,29.7214803 L53.263597,30.4402848 L55.7801547,25.4490766 L58.2967124,30.4402848 L59.7464544,29.7214803 L56.5050257,23.2928781 L55.0552837,23.2928781 Z" id="Shape"></path>
                </g>
                <g id="5ea05776f1d80952579ba92d_vovi-i-white" transform="translate(74.379177, 23.651958)">
                    <polygon id="Path" points="0 6.4896672 0 0 1.62082277 0 1.62082277 6.4896672"></polygon>
                </g>
            </g>
        </g>
    </g>
</svg>