<?xml version="1.0" encoding="UTF-8"?>
<svg width="119px" height="57px" viewBox="0 0 119 57" version="1.1" xmlns="http://www.w3.org/2000/svg" xmlns:xlink="http://www.w3.org/1999/xlink">
    <title>15D25DCE-0155-4BCE-A274-8802168A3FF2</title>
    <g id="Product-Marketing" stroke="none" stroke-width="1" fill="none" fill-rule="evenodd">
        <g id="AICommerceAgencyWF_DT-Copy-24" transform="translate(-200.000000, -1383.000000)" fill="#000000" fill-rule="nonzero">
            <g id="Group-2" transform="translate(77.000000, 997.000000)">
                <g id="Group" transform="translate(123.000000, 386.000000)">
                    <path d="M115.736839,0 L108.323867,0 L109.457616,3.59790887 C111.107365,8.82186653 111.943142,14.2739125 111.943142,19.8142507 C111.943142,28.2093714 109.966349,36.5382729 106.223525,43.984252 L78.2068523,3.67148574 L59.5,31.858784 L40.7931477,3.67148574 L12.7837425,43.984252 C9.03365091,36.5456306 7.06412605,28.2093714 7.06412605,19.8142507 C7.06412605,14.2739125 7.89990228,8.82186653 9.54965189,3.59790887 L10.6834005,0 L3.27042873,0 L2.81983633,1.42003356 C0.952058141,7.34297147 0,13.5307861 0,19.8142507 C0,31.483542 3.29223159,42.7996644 9.52784903,52.5559571 L12.3694882,57 L40.6623305,16.282561 L55.2484427,38.2673293 L47.4139489,50.0764167 L45.5970441,52.9679876 L53.9984121,52.9679876 L59.5,44.6758745 L65.0015879,52.9679876 L70.1325272,52.9679876 L73.8462807,52.8870531 L71.5424453,50.0101975 L63.7515573,38.2673293 L78.3376695,16.282561 L106.630512,57 L109.472151,52.5559571 C115.707768,42.7996644 119,31.483542 119,19.8142507 C119,13.5381438 118.047942,7.35032916 116.180164,1.42003356 L115.736839,0 Z" id="Path"></path>
                </g>
            </g>
        </g>
    </g>
</svg>