<?xml version="1.0" encoding="UTF-8"?>
<svg width="108px" height="20px" viewBox="0 0 108 20" version="1.1" xmlns="http://www.w3.org/2000/svg" xmlns:xlink="http://www.w3.org/1999/xlink">
    <title>AAD59BD0-CF19-4E92-89DC-5472F415CC00</title>
    <g id="Mercury-Labs" stroke="none" stroke-width="1" fill="none" fill-rule="evenodd">
        <g id="AICommerceAgencyWF_DT-Copy-32" transform="translate(-157.000000, -2891.000000)" fill="#000000" fill-rule="nonzero">
            <path d="M160.437361,2910 L164.45494,2903.8791 L164.655818,2903.8791 L168.614315,2910 L172.135604,2910 L166.510994,2901.48037 L172.230135,2892.94893 L168.803377,2892.94893 L164.856697,2899.21162 L164.655818,2899.21162 L160.768221,2892.94893 L157.164217,2892.94893 L162.694295,2901.40947 L157.116951,2910 L160.437361,2910 Z M183.208994,2910 L183.208994,2898.00635 L183.374424,2898.00635 L188.08917,2909.33828 L190.263389,2909.33828 L194.978135,2898.00635 L195.143565,2898.00635 L195.143565,2910 L197.979502,2910 L197.979502,2892.94893 L194.410947,2892.94893 L189.282627,2905.36797 L189.069932,2905.36797 L183.941611,2892.94893 L180.373057,2892.94893 L180.373057,2910 L183.208994,2910 Z M206.612096,2910.25996 C209.660729,2910.25996 211.799498,2908.79473 212.354869,2906.44326 L209.578014,2906.44326 C209.152623,2907.40039 208.148229,2907.93213 206.694811,2907.93213 C204.768736,2907.93213 203.528014,2906.58506 203.457115,2904.43447 L203.457115,2904.28086 L212.48485,2904.28086 L212.48485,2903.33555 C212.48485,2899.25889 210.275182,2896.81289 206.588463,2896.81289 C202.842662,2896.81289 200.51483,2899.42432 200.51483,2903.58369 C200.51483,2907.74307 202.807213,2910.25996 206.612096,2910.25996 Z M209.554381,2902.28389 L203.468932,2902.28389 C203.598912,2900.39326 204.827818,2899.14072 206.576647,2899.14072 C208.337291,2899.14072 209.495299,2900.36963 209.554381,2902.28389 Z M219.380432,2910.2127 C221.176525,2910.2127 222.665393,2909.37373 223.39801,2907.95576 L223.598889,2907.95576 L223.598889,2910 L226.434826,2910 L226.434826,2892.07451 L223.504357,2892.07451 L223.504357,2899.12891 L223.303479,2899.12891 C222.618127,2897.71094 221.152893,2896.86016 219.380432,2896.86016 C216.119104,2896.86016 214.063049,2899.43613 214.063049,2903.52461 C214.063049,2907.63672 216.107287,2910.2127 219.380432,2910.2127 Z M220.290295,2907.71943 C218.281506,2907.71943 217.064416,2906.14785 217.064416,2903.53643 C217.064416,2900.93682 218.293322,2899.35342 220.290295,2899.35342 C222.299084,2899.35342 223.539807,2900.96045 223.539807,2903.53643 C223.539807,2906.13604 222.3109,2907.71943 220.290295,2907.71943 Z M230.896229,2894.96953 C231.971521,2894.96953 232.704139,2894.28418 232.704139,2893.35068 C232.704139,2892.41719 231.971521,2891.73184 230.896229,2891.73184 C229.832752,2891.73184 229.088318,2892.41719 229.088318,2893.35068 C229.088318,2894.28418 229.832752,2894.96953 230.896229,2894.96953 Z M232.361463,2910 L232.361463,2897.07285 L229.442811,2897.07285 L229.442811,2910 L232.361463,2910 Z M240.804994,2910.25996 C244.078139,2910.25996 246.110561,2908.44023 246.429603,2905.73428 L243.640932,2905.73428 C243.333705,2907.08135 242.317494,2907.80215 240.793178,2907.80215 C238.796205,2907.80215 237.590932,2906.21875 237.590932,2903.50098 C237.590932,2900.81865 238.784389,2899.2707 240.793178,2899.2707 C242.400209,2899.2707 243.369154,2900.16875 243.640932,2901.42129 L246.429603,2901.42129 C246.122377,2898.70352 244.113588,2896.81289 240.793178,2896.81289 C236.90558,2896.81289 234.625014,2899.30615 234.625014,2903.50098 C234.625014,2907.75488 236.917396,2910.25996 240.804994,2910.25996 Z M252.06083,2910.2127 C253.750576,2910.2127 255.168545,2909.48008 255.889346,2908.22754 L256.090225,2908.22754 L256.090225,2910 L258.914346,2910 L258.914346,2901.17314 C258.914346,2898.43174 257.047353,2896.81289 253.726943,2896.81289 C250.654678,2896.81289 248.515908,2898.26631 248.27958,2900.54688 L251.044619,2900.54688 C251.316396,2899.67246 252.238076,2899.1998 253.585146,2899.1998 C255.168545,2899.1998 256.019326,2899.90879 256.019326,2901.17314 L256.019326,2902.26025 L252.6871,2902.46113 C249.543935,2902.6502 247.783291,2903.99727 247.783291,2906.33691 C247.783291,2908.7002 249.567568,2910.2127 252.06083,2910.2127 Z M252.923428,2907.9085 C251.623623,2907.9085 250.690127,2907.25859 250.690127,2906.17148 C250.690127,2905.11982 251.458193,2904.529 253.100674,2904.42266 L256.019326,2904.23359 L256.019326,2905.26162 C256.019326,2906.7623 254.695889,2907.9085 252.923428,2907.9085 Z M264.758267,2910 L264.758267,2892.07451 L261.827799,2892.07451 L261.827799,2910 L264.758267,2910 Z" id="XMedical"></path>
        </g>
    </g>
</svg>