<?xml version="1.0" encoding="UTF-8"?>
<svg width="32px" height="32px" viewBox="0 0 32 32" version="1.1" xmlns="http://www.w3.org/2000/svg" xmlns:xlink="http://www.w3.org/1999/xlink">
    <title>04F01D95-8AD1-4F38-8280-E4FAF81A38C6</title>
    <g id="Product-Marketing" stroke="none" stroke-width="1" fill="none" fill-rule="evenodd">
        <g id="AICommerceAgencyWF_DT-Copy-22" transform="translate(-925.000000, -641.000000)" fill="#5D21D1">
            <g id="Person-/-User-/-events-/-32-Copy-2" transform="translate(925.000000, 641.000000)">
                <path d="M21,16 L23,16 L23,18 L21,18 L21,16 Z M9,16 L17,16 L17,18 L9,18 L9,16 Z M21,12 L23,12 L23,14 L21,14 L21,12 Z M9,12 L17,12 L17,14 L9,14 L9,12 Z M9,8 L23,8 L23,10 L9,10 L9,8 Z M25,2 L7,2 C5.89588748,2.00110246 5.00110246,2.89588748 5,4 L5,29 C5,29.5522847 5.44771525,30 6,30 L7,30 C7.31480564,30 7.61128055,29.8519675 7.8,29.6 L10,26.667 L12.2,29.6 C12.396653,29.8394011 12.6901851,29.97815 13,29.97815 C13.3098149,29.97815 13.603347,29.8394011 13.8,29.6 L16,26.667 L18.2,29.6 C18.396653,29.8394011 18.6901851,29.97815 19,29.97815 C19.3098149,29.97815 19.603347,29.8394011 19.8,29.6 L22,26.667 L24.2,29.6 C24.3887818,29.8518928 24.6852167,30 25,30 L26,30 C26.5522847,30 27,29.5522847 27,29 L27,4 C26.9987325,2.89595593 26.1040441,2.00126747 25,2 Z M25,27.333 L22.8,24.4 C22.603347,24.1605989 22.3098149,24.02185 22,24.02185 C21.6901851,24.02185 21.396653,24.1605989 21.2,24.4 L19,27.333 L16.8,24.4 C16.603347,24.1605989 16.3098149,24.02185 16,24.02185 C15.6901851,24.02185 15.396653,24.1605989 15.2,24.4 L13,27.333 L10.8,24.4 C10.603347,24.1605989 10.3098149,24.02185 10,24.02185 C9.69018509,24.02185 9.39665301,24.1605989 9.2,24.4 L7,27.333 L7,4 L25,4 L25,27.333 Z" id="Fill"></path>
            </g>
        </g>
    </g>
</svg>