<?xml version="1.0" encoding="UTF-8"?>
<svg width="28px" height="22px" viewBox="0 0 28 22" version="1.1" xmlns="http://www.w3.org/2000/svg" xmlns:xlink="http://www.w3.org/1999/xlink">
    <title>DC73911E-1B07-4A77-A4C3-823F10960F7A</title>
    <g id="Product-Marketing" stroke="none" stroke-width="1" fill="none" fill-rule="evenodd">
        <g id="AICommerceAgencyWF_DT-Copy-22" transform="translate(-509.000000, -648.000000)" fill="#5D21D1">
            <g id="Person-/-User-/-events-/-32-Copy" transform="translate(509.988669, 648.000000)">
                <path d="M25.771331,7.35 C25.5813283,7.12786225 25.3036428,6.99998077 25.011331,7 L19.011331,7 L19.011331,3 C19.011331,1.34314575 17.6681852,0 16.011331,0 L10.011331,0 C8.3544767,0 7.01133095,1.34314575 7.01133095,3 L7.01133095,7 L1.01133095,7 C0.717955103,6.99667768 0.437921032,7.12235994 0.245401699,7.34375717 C0.0528823664,7.5651544 -0.0326970565,7.85992766 0.0113309541,8.15 L1.89133095,20.3 C2.0408698,21.2860761 2.89404421,22.0112744 3.89133095,22.0001297 L22.151331,22.0001297 C23.1486177,22.0112744 24.0017921,21.2860761 24.151331,20.3 L26.011331,8.15 C26.0518557,7.86109147 25.9641957,7.56889169 25.771331,7.35 Z M9.01133095,3 C9.01133095,2.44771525 9.4590462,2 10.011331,2 L16.011331,2 C16.5636157,2 17.011331,2.44771525 17.011331,3 L17.011331,7 L9.01133095,7 L9.01133095,3 Z M22.151331,20 L3.87133095,20 L2.18133095,9 L23.841331,9 L22.151331,20 Z" id="Fill"></path>
            </g>
        </g>
    </g>
</svg>