<?xml version="1.0" encoding="UTF-8"?>
<svg width="65px" height="119px" viewBox="0 0 65 119" version="1.1" xmlns="http://www.w3.org/2000/svg" xmlns:xlink="http://www.w3.org/1999/xlink">
    <title>Group 6 Copy 12</title>
    <defs>
        <polygon id="path-1" points="0 0 14.5054815 0 14.5054815 18.2277397 0 18.2277397"></polygon>
    </defs>
    <g id="Agency" stroke="none" stroke-width="1" fill="none" fill-rule="evenodd">
        <g id="sm-320px-4-column-copy-12" transform="translate(-243.000000, -1967.000000)">
            <g id="Group-6-Copy-12" transform="translate(275.273182, 2026.500000) scale(-1, 1) rotate(-83.000000) translate(-275.273182, -2026.500000) translate(218.773182, 2001.000000)">
                <path d="M0.0270286178,29.6069537 C-0.115546937,29.5264291 0.317194949,28.405613 1.05944759,27.0940044 C1.40621426,26.4773742 1.7751912,25.703322 2.34191112,24.8683322 C2.77465301,24.2161551 3.28119028,23.5008641 3.85794064,22.744948 C4.34370058,22.0934964 5.03938331,21.500806 5.62688057,20.785515 C6.16995731,20.1667085 6.67936042,19.4637501 7.31056175,18.8021422 C7.87298291,18.1833357 8.48483982,17.5616273 9.12822096,16.9225083 C9.72216637,16.321838 10.4851963,15.8379647 11.1407573,15.2220599 C11.7812726,14.6714455 12.2089993,13.8698262 12.9104137,13.3025265 C13.5795874,12.7700482 14.278136,12.22959 15.0074923,11.7050916 C15.6945776,11.1914749 16.3809463,10.6423114 17.1289306,10.1475563 C17.4850113,9.90453148 17.8898112,9.71809154 18.2967606,9.53092614 C18.7108745,9.35391701 19.1314365,9.18343691 19.509011,8.94766654 C19.8744056,8.721327 20.2240382,8.46451867 20.5815517,8.21206302 C20.9455135,7.97193998 21.3137739,7.72964059 21.7020953,7.51128096 C22.0789533,7.30090126 22.4378998,7.05279829 22.8054438,6.81267525 C23.1787195,6.58270847 23.5555775,6.35129079 23.9546458,6.15106734 C24.3415342,5.95664748 24.7606634,5.81155803 25.1826584,5.6715467 C25.6125344,5.54604433 26.0431269,5.42054195 26.4479268,5.23990558 C26.8426963,5.0636219 27.2095239,4.82349885 27.5806502,4.58047402 C27.9560753,4.34905634 28.3415308,4.12924582 28.7563612,3.96602019 C29.5681105,3.64899973 30.4457741,3.46691247 31.2926299,3.20212422 C32.1215742,2.93733597 32.9906403,2.75234692 33.848243,2.53543818 C34.6865013,2.31127498 35.4817719,1.90067183 36.3472557,1.70117383 C37.1991267,1.51110665 38.0782233,1.40519135 38.943707,1.21439872 C39.8013097,1.06132935 40.6890038,1.03231146 41.5602192,0.885771108 C42.4149561,0.722545474 43.2632448,0.483147877 44.1423413,0.369978104 C44.5757997,0.321373138 45.0157062,0.310491429 45.4556127,0.300335167 C45.8969521,0.311216876 46.3397244,0.322824032 46.7796309,0.296707931 C47.648697,0.257533778 48.5206289,0.126953271 49.4018748,0.131305955 C50.2730902,0.126227824 51.1486044,0.00435268358 52.0327162,-9.16684383e-13 C52.906081,0.00435268358 53.7758635,0.231417677 54.6535271,0.265513698 C55.0884184,0.285826222 55.5276084,0.256082884 55.9689478,0.225614099 C56.4102872,0.211830601 56.8552089,0.212556048 57.2965483,0.257533778 C58.1713461,0.355469159 59.0439945,0.505636742 59.9216581,0.626786435 C60.7957394,0.775503124 61.6834334,0.829186222 62.5524995,0.979353805 C63.4337454,1.10558163 64.2533757,1.50965575 65.1095455,1.69899749 C65.9743128,1.90067183 66.8061229,2.20028155 67.6386495,2.47667696 C68.483356,2.74509244 69.3588702,2.90686718 70.1856651,3.20357511 C71.0153259,3.51479199 71.9223643,3.62288363 72.7477263,3.93410051 C73.5766707,4.26055178 74.3769566,4.64431338 75.1829741,4.99542985 C76.0061868,5.34074275 76.8000245,5.73611151 77.5816825,6.13873474 C77.9778849,6.34403632 78.3647733,6.56239594 78.7495124,6.78075557 C79.1270869,7.01217325 79.5025119,7.24286548 79.8757876,7.47210681 C80.6366682,7.93784395 81.2621379,8.59147194 81.9742992,9.0913051 C82.7108202,9.58606014 83.4509234,10.0597772 84.1616518,10.5603358 C84.8752461,11.0870105 85.6203645,11.5600021 86.3189131,12.0786969 C87.0160288,12.628586 87.7976867,13.0711088 88.474025,13.6209978 C89.165409,14.1853958 89.6905742,14.9093922 90.34112,15.48177 C91.0145924,16.0635787 91.6515255,16.6715036 92.2762786,17.270723 C92.9225256,17.8830005 93.6647783,18.4009698 94.260873,19.0313835 C94.8834769,19.6741298 95.3018895,20.462691 95.8650272,21.1126917 C96.4589726,21.7786523 96.9304033,22.5142558 97.4648825,23.1838436 C98.0337518,23.8693913 98.6764165,24.4874724 99.1865361,25.1737455 C99.7324786,25.8810566 100.249763,26.5854659 100.736239,27.2833461 C101.260688,28.0102443 101.864664,28.674754 102.331796,29.3835159 C102.8369,30.1314521 103.005268,31.0179486 103.45019,31.7281615 C103.916605,32.4993119 104.550673,33.1667234 104.96407,33.8921707 C105.396812,34.6959663 105.946337,35.4127082 106.312448,36.1541153 C106.738742,36.9774979 106.914991,37.8219185 107.256742,38.5524439 C107.650795,39.4135498 107.973202,40.2071891 108.262652,40.9297346 C108.645242,41.8583071 108.96335,42.6613772 109.184736,43.3331414 C109.653301,44.7579198 109.789429,45.5094832 109.639689,45.5660681 C109.489232,45.6248293 109.191901,44.8914021 108.456097,43.6022823 C108.10933,42.9958084 107.465949,42.4974261 106.975174,41.6443001 C106.590434,40.9848686 106.157693,40.2434615 105.690561,39.4440186 C105.283611,38.7679017 104.997744,37.9017177 104.513417,37.1370963 C104.094288,36.4486468 103.518254,35.8327421 103.040375,35.084806 C102.586139,34.4123164 102.313168,33.5301725 101.805914,32.8069016 C101.325169,32.1416664 100.800004,31.4880385 100.267674,30.7937854 C99.7740333,30.1343539 99.1435485,29.5764849 98.5997553,28.9010935 C98.0939345,28.2525437 97.7414361,27.4211811 97.1790149,26.7617495 C96.6538497,26.1211796 95.9545847,25.6358554 95.3792672,25.0003636 C94.8369069,24.3786553 94.4371222,23.5763106 93.8381616,22.9582295 C93.2721581,22.3524811 92.6208959,21.8258064 92.0047403,21.2338414 C91.4165265,20.6534836 90.9150045,19.9476234 90.2759221,19.3817745 C89.65905,18.8282583 88.9311265,18.4053225 88.2741327,17.8728442 C87.6386326,17.346895 87.0002666,16.810064 86.3318094,16.294271 C85.6791143,15.7922615 85.1030804,15.1611224 84.4274585,14.6533093 C83.7532696,14.1781413 83.144995,13.5832746 82.4543275,13.0950485 C81.7665258,12.6329386 80.9139383,12.4414206 80.2118074,11.988016 C79.5297374,11.5266316 78.8705942,10.9934278 78.1469695,10.5661394 C77.4369575,10.1424782 76.6252083,9.91541319 75.8765075,9.54978777 C75.1399865,9.18561325 74.3791059,8.86206377 73.6074784,8.55157234 C72.8537624,8.23527733 72.2075154,7.61356903 71.4258575,7.31613565 C70.6513642,7.03393666 69.8453466,6.83081143 69.0644051,6.54353431 C68.2863294,6.27076614 67.4444889,6.20112321 66.6535169,5.95447114 C65.8740084,5.69838825 65.1202924,5.30374494 64.3071102,5.11803044 C63.5010926,4.9439231 62.6965079,4.7444251 61.8711459,4.63125533 C61.0579637,4.4926949 60.2562449,4.26200267 59.4344652,4.11981501 C58.6076703,4.00664523 57.7579486,4.12852038 56.9411841,4.03421223 C56.5277867,3.9906854 56.1201209,3.90435717 55.7095893,3.831087 C55.2961918,3.77377666 54.8827943,3.71646633 54.4686804,3.69542836 C53.6304221,3.66060689 52.7928803,3.70195738 51.9668018,3.69325202 C51.1306929,3.69252657 50.2988828,3.63376534 49.4713714,3.631589 C48.6323966,3.6192564 47.8077511,3.88114286 46.9852549,3.9094353 C46.5689916,3.93410051 46.1541612,3.95804027 45.7400473,3.98270548 C45.3287992,4.02840865 44.9189841,4.07411183 44.5098854,4.11981501 C43.6830904,4.21775039 42.838384,4.1074824 42.0266347,4.25257186 C41.2005563,4.38025058 40.3880905,4.56378873 39.5763413,4.69364379 C38.755278,4.84236048 37.93923,4.99035172 37.132496,5.13616662 C36.3142986,5.30737218 35.4903695,5.40603301 34.6893671,5.60045287 C33.8697368,5.78761827 33.0766155,6.03209399 32.28636,6.26351167 C31.4738943,6.49492935 30.7724799,7.06368 30.0037182,7.34080086 C29.6089487,7.48443941 29.2034323,7.58527658 28.804364,7.69989725 C28.4095945,7.82539963 28.016258,7.94945111 27.6358177,8.10614772 C27.2453469,8.26647156 26.8512939,8.40720833 26.4593902,8.54721966 C26.0739347,8.70246537 25.6920615,8.86061287 25.3187858,9.03326932 C24.9340467,9.2110039 24.5686521,9.43008897 24.2075562,9.64627226 C23.8514755,9.87478815 23.5039924,10.1098331 23.1393142,10.2969985 C22.7631727,10.4906929 22.3648209,10.6256261 21.967902,10.7591084 C21.5781477,10.9056487 21.1919757,11.0558163 20.8337457,11.2589415 C20.0843284,11.6702701 19.4509777,12.270215 18.7595938,12.7091106 C18.0266551,13.1472808 17.3997525,13.7399712 16.7234142,14.195552 C16.0076706,14.6583874 15.1815921,14.8832761 14.511702,15.358444 C13.811004,15.8626299 13.1762204,16.4190479 12.5249582,16.912352 C11.8586503,17.4709464 11.2582568,18.0861257 10.6506986,18.625133 C9.9908389,19.1975109 9.45922552,19.9019202 8.87531056,20.4539856 C8.21974959,21.0437742 7.63010295,21.6487972 7.05406904,22.2008626 C6.4285994,22.8385307 5.7071241,23.2614665 5.17264488,23.8389225 C4.53786126,24.5077849 3.92385497,25.0547721 3.41875062,25.6249737 C2.75817443,26.3584009 2.38776457,27.2797189 1.93782764,27.7998646 C0.979204059,28.9054462 0.166738333,29.685302 0.0270286178,29.6069537" id="Fill-1" fill="#000000"></path>
                <g id="Group-5" transform="translate(98.494518, 32.772260)">
                    <mask id="mask-2" fill="white">
                        <use xlink:href="#path-1"></use>
                    </mask>
                    <g id="Clip-4"></g>
                    <path d="M13.7938862,0.00271361844 C13.9538522,0.0293655711 14.1007893,0.297287832 14.1956107,0.622020835 C14.2397642,0.774918879 14.3577482,0.967794853 14.388149,1.18030911 C14.4113115,1.34442903 14.4351978,1.52818723 14.4503982,1.72597277 C14.4634271,1.89500226 14.3135947,2.05631671 14.320833,2.24778995 C14.3266236,2.41892354 14.388149,2.60548721 14.3895967,2.79345361 C14.3888728,2.9666913 14.3888728,3.14553993 14.388149,3.33070087 C14.3852537,3.50323719 14.2339736,3.66174618 14.228183,3.84550438 C14.2223924,4.01874207 14.5140951,4.23826999 14.5054092,4.42132683 C14.497447,4.59456452 14.4460553,4.76710084 14.4359217,4.94875494 C14.4250642,5.122694 14.4402646,5.3043481 14.4279595,5.48530083 C14.4156545,5.65923989 14.110199,5.79390239 14.0957225,5.97415375 C14.0812459,6.14809281 14.1869248,6.34307289 14.1710006,6.52262289 C14.1550764,6.69656195 14.2824701,6.89504886 14.2650982,7.07459885 C14.2484502,7.24853791 13.9893197,7.38810998 13.9705002,7.56695861 C13.9524045,7.74089767 14.2129826,7.95972423 14.1927154,8.13787149 C14.1731721,8.31181055 13.9987295,8.4647086 13.9777385,8.64215449 C13.9567475,8.81679492 13.8018483,8.97179706 13.7794096,9.14924296 C13.7576948,9.32388339 13.8901553,9.52377303 13.8669928,9.70121893 C13.8445541,9.87585935 13.7352561,10.0378752 13.7106459,10.2153211 C13.6874834,10.3892601 13.5528514,10.5477691 13.5275174,10.7245136 C13.5029073,10.8984527 13.6628733,11.1039533 13.6368155,11.2799964 C13.6107577,11.4546369 13.4348674,11.6054308 13.4080858,11.781474 C13.3813042,11.9561144 13.3928854,12.1377685 13.3653799,12.3138117 C13.3516272,12.4007812 13.3668276,12.4926603 13.3813042,12.5852408 C13.3878186,12.7220074 13.3827518,12.9254038 13.3552463,13.0902251 C13.2958924,13.4359991 13.0881538,13.7039214 13.0316952,14.0272517 C12.9766843,14.3456724 13.1011827,14.8247061 13.0389335,15.1810007 C12.9781319,15.5295802 12.8536335,15.8010093 12.7935558,16.1383669 C12.733478,16.4757245 12.7501261,16.9393282 12.6864292,17.288609 C12.6227323,17.6427995 12.4475659,17.7543168 12.388212,18.0783485 C12.3780784,18.1323537 12.3664972,18.1821508 12.3534683,18.2277397 C12.0943378,18.0222391 11.8171117,17.7487059 11.5862105,17.5880928 C11.3082605,17.3945155 11.0570922,17.3082473 10.7719039,17.109059 C10.493954,16.9154817 10.2398903,16.9961389 9.93588251,16.7829233 C9.63621768,16.5739159 9.33872434,16.3663112 9.04267866,16.1601093 C8.74084235,15.9602196 8.44117753,15.7617327 8.14368419,15.5646485 C7.99457561,15.4587421 7.85342913,15.3395097 7.71517797,15.2230827 C7.60226079,15.1283981 7.49296275,15.036519 7.38945533,14.9495495 C7.24324206,14.841539 7.26857604,14.50348 7.12525809,14.3961708 C6.97976864,14.2860562 6.83572686,14.1773442 6.6924089,14.0693337 C6.54691945,13.9592191 6.36668626,13.8996028 6.22409213,13.7908909 C6.07932652,13.6793735 5.84046325,13.6962064 5.69931677,13.5867931 C5.55527499,13.4745743 5.50677851,13.2375122 5.36635586,13.1266962 C5.22231407,13.0130747 5.05583361,12.9338202 4.9161348,12.8223029 C4.77281684,12.7072786 4.51513404,12.7493607 4.37615905,12.6364406 C4.23356492,12.520715 4.21257391,12.2478831 4.0757704,12.1342617 C3.9339001,12.016432 3.85572666,11.8207505 3.72037081,11.7064277 C3.57850051,11.5871953 3.35990443,11.5759734 3.22599624,11.4602478 C3.08195445,11.3417168 2.94515094,11.2301994 2.80689978,11.1165779 C2.66720096,10.9931373 2.44281426,10.9882277 2.3125252,10.8696966 C2.17427404,10.7434506 2.21987521,10.3885588 2.09248147,10.268625 C1.95495414,10.1395734 1.6885854,10.186565 1.56408697,10.0638258 C1.4280073,9.93056599 1.22026864,9.89970584 1.10011318,9.77556385 C0.964757326,9.63529041 0.964033498,9.34632714 0.85039249,9.21797694 C0.717208124,9.06788437 0.615148366,8.90656992 0.511640951,8.77471289 C0.378456584,8.6035793 0.255405811,8.4689168 0.175060895,8.3300461 C0.00496129701,8.03617325 -0.0478781526,7.84470001 0.0462194974,7.71564845 C0.139593319,7.58659689 0.291597215,7.66094181 0.635415552,7.71775255 C0.796829213,7.74370314 1.14354286,7.52908478 1.35417683,7.5929092 C1.51776198,7.64340763 1.69799517,7.70442658 1.88908578,7.77596603 C2.0519471,7.83698497 2.11709162,8.06983888 2.29877247,8.1462879 C2.46090996,8.21432051 2.70194471,8.17995352 2.87783493,8.25990938 C3.03852477,8.3321502 3.06313492,8.62041211 3.23468217,8.70247207 C3.39464818,8.77892109 3.60021535,8.79855937 3.76886729,8.88272343 C3.92810947,8.96197792 4.19303055,8.89604941 4.35951101,8.9816162 C4.51802935,9.0629748 4.54843013,9.33791073 4.71346293,9.42558163 C4.87125746,9.50904432 5.15644572,9.41506112 5.31930703,9.50343338 C5.47637773,9.58900018 5.50388319,9.86674158 5.66602068,9.95651658 C5.82164372,10.0434861 6.04458277,10.0406806 6.2052726,10.1325597 C6.36017181,10.220932 6.44124055,10.4201203 6.60120656,10.5119994 C6.75610577,10.6017744 7.03333192,10.5218185 7.19185027,10.6151004 C7.34602565,10.7055767 7.52046822,10.7722066 7.67826274,10.8661898 C7.83171429,10.9580689 7.91061155,11.1593613 8.06768224,11.2540459 C8.22113379,11.3473277 8.29930723,11.5486201 8.45565409,11.644006 C8.60910564,11.7379892 8.9225232,11.609639 9.07814624,11.7057263 C9.23087396,11.8004109 9.27937044,12.0437853 9.43426965,12.1412753 C9.46467043,12.1595109 9.53415792,12.1924751 9.54573917,12.1805519 C9.56021574,12.1700314 9.57613995,12.1546013 9.59061651,12.1384699 C9.62029347,12.106207 9.64345596,12.0697359 9.64779893,12.0690345 C9.65938018,12.0697359 9.68471416,11.9939882 9.68326651,11.9869746 C9.67458057,11.9743499 9.6702376,12.3046939 9.70063838,12.3208253 C9.72380088,12.3313458 9.72452471,12.2254394 9.73393447,12.2275435 C9.75130635,12.2352585 9.69774307,12.0220429 9.69267627,12.0157306 C9.69267627,12.0157306 9.78460244,12.2520913 9.83599423,12.3439704 C9.84250869,12.3558937 9.84757548,12.3615046 9.84757548,12.3579978 C9.85047079,12.3334499 9.82151767,12.2506886 9.82296533,12.2345572 C9.82513681,12.2212312 9.90186259,12.3138117 9.90692938,12.285757 C9.91272001,12.2534941 9.75420166,12.0550072 9.75420166,12.0550072 C9.75420166,12.0550072 9.88810985,12.140574 9.89390048,12.1153247 C9.8996911,12.0914783 9.80125048,12.029758 9.80486963,12.0234456 C9.80848877,12.010821 9.82079384,12.0339662 9.84395634,11.9939882 C9.87508095,11.9091228 9.90620556,11.8249587 9.92357743,11.7386906 C9.95832118,11.5633488 9.81500322,11.3592509 9.85047079,11.1860132 C9.88593837,11.0113728 9.89607196,10.8332255 9.93153954,10.6606892 C9.96845477,10.4853474 10.1479641,10.3366576 10.1848794,10.1648226 C10.2225184,9.9901822 10.1942891,9.80502127 10.232652,9.63318631 C10.2710149,9.45854588 10.3614934,9.29442597 10.3998563,9.12329237 C10.4396668,8.94865195 10.6119379,8.79926074 10.6517485,8.62812715 C10.6922828,8.45348672 10.767561,8.28656133 10.8088192,8.11612911 C10.8500774,7.94148868 10.607595,7.71705119 10.649577,7.54661896 C10.6922828,7.37197854 10.8717922,7.22399006 10.9152219,7.05355784 C10.9593754,6.87891741 11.0780832,6.72040843 11.1222367,6.55067757 C11.1678379,6.37603715 11.0361012,6.17123793 11.0817024,6.00150707 C11.1287512,5.82686665 11.4211777,5.70062056 11.4682265,5.53229243 C11.516723,5.35695064 11.3828148,5.15145006 11.4320351,4.9838233 C11.4827031,4.80918288 11.4001867,4.61280007 11.4508547,4.44587468 C11.5029703,4.27123425 11.8786371,4.16252234 11.9300289,3.99629832 C11.9857636,3.82165789 12.0139929,3.64701746 12.0690038,3.48149481 C12.1261863,3.30615302 12.0733468,3.11467978 12.1305292,2.95126123 C12.1913308,2.77591943 12.0798613,2.57182158 12.1406628,2.41050713 C12.2079788,2.23516534 12.2731234,2.06683722 12.3353726,1.90552277 C12.4077554,1.7273755 12.6849815,1.60463625 12.7551929,1.45033547 C12.8377093,1.26868137 13.0034659,1.1249011 13.0823632,0.977613993 C13.1844229,0.787543488 12.9875417,0.552585484 13.0823632,0.422832557 C13.2835874,0.147896624 13.6339201,-0.0239383342 13.7938862,0.00271361844" id="Fill-3" fill="#000000" mask="url(#mask-2)"></path>
                </g>
            </g>
        </g>
    </g>
</svg>