<?xml version="1.0" encoding="UTF-8"?>
<svg width="20px" height="22px" viewBox="0 0 20 22" version="1.1" xmlns="http://www.w3.org/2000/svg" xmlns:xlink="http://www.w3.org/1999/xlink">
    <title>B772A4E5-2655-477F-8102-59EEE071C3D3</title>
    <g id="Mercury-Labs" stroke="none" stroke-width="1" fill="none" fill-rule="evenodd">
        <g id="AICommerceAgencyWF_DT-Copy-32" transform="translate(-1222.000000, -366.000000)" fill="#FFFFFF">
            <g id="Actions-/-Toggle-/-notification-/-24" transform="translate(1222.316710, 366.250000)">
                <path d="M19.280325,13.71975 L17.25,11.689425 L17.25,9 C17.245014,5.15031208 14.3299188,1.92777151 10.5,1.5381 L10.5,0 L9,0 L9,1.5381 C5.17008119,1.92777151 2.254986,5.15031208 2.25,9 L2.25,11.689425 L0.219675,13.71975 C0.0790404727,13.8603818 0,14.0511147 0,14.25 L0,16.5 C0,16.9142136 0.335786438,17.25 0.75,17.25 L6,17.25 L6,17.8326 C5.96633432,19.802684 7.42043373,21.4825566 9.375,21.731625 C10.429268,21.8362433 11.4786621,21.4905445 12.2643284,20.7798023 C13.0499946,20.06906 13.4987863,19.0594454 13.5,18 L13.5,17.25 L18.75,17.25 C19.1642136,17.25 19.5,16.9142136 19.5,16.5 L19.5,14.25 C19.5,14.0511147 19.4209595,13.8603818 19.280325,13.71975 Z M12,18 C12,19.2426407 10.9926407,20.25 9.75,20.25 C8.50735931,20.25 7.5,19.2426407 7.5,18 L7.5,17.25 L12,17.25 L12,18 Z M18,15.75 L1.5,15.75 L1.5,14.560575 L3.53025,12.53025 C3.67091203,12.3896305 3.74995752,12.1988961 3.75,12 L3.75,9 C3.75,5.6862915 6.4362915,3 9.75,3 C13.0637085,3 15.75,5.6862915 15.75,9 L15.75,12 C15.7500425,12.1988961 15.829088,12.3896305 15.96975,12.53025 L18,14.560575 L18,15.75 Z" id="Fill"></path>
            </g>
        </g>
    </g>
</svg>