<?xml version="1.0" encoding="UTF-8"?>
<svg width="32px" height="32px" viewBox="0 0 32 32" version="1.1" xmlns="http://www.w3.org/2000/svg" xmlns:xlink="http://www.w3.org/1999/xlink">
    <title>C111E83A-82B1-4CD4-A6C9-C2A1EDBC0A55</title>
    <g id="Product-Marketing" stroke="none" stroke-width="1" fill="none" fill-rule="evenodd">
        <g id="AICommerceAgencyWF_DT-Copy-22" transform="translate(-89.000000, -644.000000)" fill="#5D21D1">
            <g id="Person-/-User-/-events-/-32" transform="translate(89.000000, 644.000000)">
                <path d="M26,14 L24,14 L24,16 L26,16 C27.6561003,16.0018187 28.9981813,17.3438997 29,19 L29,23 L31,23 L31,19 C30.9968038,16.2399012 28.7600988,14.0031962 26,14 Z M24,4 C25.6568542,4 27,5.34314575 27,7 C27,8.65685425 25.6568542,10 24,10 C22.3431458,10 21,8.65685425 21,7 C21,5.34314575 22.3431458,4 24,4 M24,2 C21.2385763,2 19,4.23857625 19,7 C19,9.76142375 21.2385763,12 24,12 C26.7614237,12 29,9.76142375 29,7 C29,5.67391755 28.4732158,4.40214799 27.5355339,3.46446609 C26.597852,2.5267842 25.3260824,2 24,2 L24,2 Z M23,30 L21,30 L21,28 C20.9981813,26.3438997 19.6561003,25.0018187 18,25 L14,25 C12.3438997,25.0018187 11.0018187,26.3438997 11,28 L11,30 L9,30 L9,28 C9.00325114,25.239924 11.239924,23.0032511 14,23 L18,23 C20.760076,23.0032511 22.9967489,25.239924 23,28 L23,30 Z M16,13 C17.6568542,13 19,14.3431458 19,16 C19,17.6568542 17.6568542,19 16,19 C14.3431458,19 13,17.6568542 13,16 C13,14.3431458 14.3431458,13 16,13 M16,11 C13.2385763,11 11,13.2385763 11,16 C11,18.7614237 13.2385763,21 16,21 C18.7614237,21 21,18.7614237 21,16 C21,14.6739176 20.4732158,13.402148 19.5355339,12.4644661 C18.597852,11.5267842 17.3260824,11 16,11 Z M8,14 L6,14 C3.23992404,14.0032511 1.00325114,16.239924 1,19 L1,23 L3,23 L3,19 C3.00181871,17.3438997 4.34389967,16.0018187 6,16 L8,16 L8,14 Z M8,4 C9.65685425,4 11,5.34314575 11,7 C11,8.65685425 9.65685425,10 8,10 C6.34314575,10 5,8.65685425 5,7 C5,5.34314575 6.34314575,4 8,4 M8,2 C5.23857625,2 3,4.23857625 3,7 C3,9.76142375 5.23857625,12 8,12 C10.7614237,12 13,9.76142375 13,7 C13,5.67391755 12.4732158,4.40214799 11.5355339,3.46446609 C10.597852,2.5267842 9.32608245,2 8,2 Z" id="Fill"></path>
            </g>
        </g>
    </g>
</svg>